<svg id="Layer_1" data-name="Layer 1" xmlns="http://www.w3.org/2000/svg" viewBox="0 0 1354.82 1080"><path d="M360.79,461.36h75.32v21.4h-52v6.81h40.71v20.6H384.1v21.5H360.79Z"/><path d="M484.12,460.36a119.27,119.27,0,0,1,16.8,1.05,57.84,57.84,0,0,1,13.5,3.55,29.24,29.24,0,0,1,10.15,6.55,27.57,27.57,0,0,1,6.15,10.2,42.85,42.85,0,0,1,2.21,14.46,46.41,46.41,0,0,1-1.95,14.2,28.57,28.57,0,0,1-5.61,10.15,26.26,26.26,0,0,1-9.6,6.7,53.83,53.83,0,0,1-13.45,3.65,121.2,121.2,0,0,1-17.5,1.1q-24.81,0-36.06-9.05t-11.25-28q0-17.61,11.5-26.06T484.12,460.36Zm.9,53.21q10.59,0,16.4-4.3t5.8-13.1q0-8.51-6.1-13t-16.4-4.45a35.7,35.7,0,0,0-9.51,1.15,17.37,17.37,0,0,0-6.75,3.45,14.48,14.48,0,0,0-3.95,5.51,19.36,19.36,0,0,0-1.3,7.3,15.91,15.91,0,0,0,5.5,12.65Q474.22,513.58,485,513.57Z"/><path d="M582.83,531.67q-15.69,0-26.2-3.1t-14.5-10.7a41.85,41.85,0,0,1-3.9-14.15,235.71,235.71,0,0,1-1-25.46l.1-16.8h24.6v31.41a42.67,42.67,0,0,0,.3,5.35,18.77,18.77,0,0,0,1.55,5.15,12.65,12.65,0,0,0,3.45,4.65,17.91,17.91,0,0,0,6.2,3.1,32,32,0,0,0,9.45,1.25,31.5,31.5,0,0,0,9.41-1.25,16.75,16.75,0,0,0,6-3.05,12.62,12.62,0,0,0,3.25-4.65,18.84,18.84,0,0,0,1.45-5.15,52.74,52.74,0,0,0,.25-5.4V461.46h24.6v16.8a223.71,223.71,0,0,1-.9,25.46,41.85,41.85,0,0,1-3.9,14.15,19.1,19.1,0,0,1-5.95,6.75,29.12,29.12,0,0,1-9.25,4.25,70.82,70.82,0,0,1-11.4,2.15A125.83,125.83,0,0,1,582.83,531.67Z"/><path d="M722.76,531.67H691l-34.4-42.3v42.3H633.24V461.46h32.51l33.8,41.61V461.46h23.21Z"/><path d="M777.47,531.67H729.16v-70h48a87.14,87.14,0,0,1,12.1.75,43.76,43.76,0,0,1,10.7,3,26.24,26.24,0,0,1,9,6,27.77,27.77,0,0,1,5.85,10.15,45.62,45.62,0,0,1,2.25,15.11,38.53,38.53,0,0,1-2.4,14,28.14,28.14,0,0,1-6.3,10.05,33.74,33.74,0,0,1-9.21,6.4,42.21,42.21,0,0,1-10.65,3.55A59.68,59.68,0,0,1,777.47,531.67Zm-1.6-19.1a19.23,19.23,0,0,0,9.4-2.15,13.5,13.5,0,0,0,5.7-5.65,17.26,17.26,0,0,0,1.8-8q0-7.2-4-11.56t-12.85-4.35h-23.4v31.71Z"/><path d="M821.18,461.46h77.51V481H844.48v6.2h50.81v18.71H844.48v6.3h54.21v19.5H821.18Z"/><path d="M903.89,461.46H955.5c1.33,0,2.6,0,3.8.1a48.37,48.37,0,0,1,5.05.65,35.38,35.38,0,0,1,5.91,1.5,27.62,27.62,0,0,1,5.65,2.9,20.49,20.49,0,0,1,5.05,4.6,22.66,22.66,0,0,1,3.4,6.75,29.76,29.76,0,0,1,1.35,9.31q0,16.59-12.91,23.7l14.41,20.7-26.91-.1-12-16.5H927.2v16.6H903.89Zm49.41,33.11q8.7,0,8.7-6.6,0-6-9.1-6H927.2v12.61Z"/><path d="M644.84,596h50.92v23.3H621.54V549.13h23.3Z"/><path d="M767.27,549.33l31.5,70h-27l-5.3-11.8H731.76l-5.3,11.8H699.65l31.41-70Zm-27.21,38h18.1l-9.1-18.4Z"/><path d="M892.79,619.34H861L826.58,577v42.31H803.27V549.13h32.51l33.8,41.61V549.13h23.21Z"/><path d="M947.6,619.34H899.29v-70h48a87.14,87.14,0,0,1,12.1.75,43.83,43.83,0,0,1,10.71,3,26.39,26.39,0,0,1,9,6A27.77,27.77,0,0,1,985,569.23a45.6,45.6,0,0,1,2.25,15.1,38.58,38.58,0,0,1-2.4,14,28.23,28.23,0,0,1-6.3,10,33.74,33.74,0,0,1-9.21,6.4,42.21,42.21,0,0,1-10.65,3.55A59.76,59.76,0,0,1,947.6,619.34Zm-1.6-19.1a19.23,19.23,0,0,0,9.4-2.15,13.56,13.56,0,0,0,5.7-5.65,17.28,17.28,0,0,0,1.8-8q0-7.2-4-11.55T946,568.53H922.6v31.71Z"/><polygon points="537.55 566.83 580.6 566.83 540.02 606.84 551.86 619.32 592.97 579.2 592.97 619.32 610.47 619.32 610.47 549.33 537.55 549.33 537.55 566.83"/></svg>