<svg width="70" height="75" viewBox="0 0 70 75" fill="none" xmlns="http://www.w3.org/2000/svg">
<g clip-path="url(#clip0_497:719)">
<path d="M0.0479736 0.0515671L70 0.0515747L70 75.0002L0.0479683 75.0002L0.0479736 0.0515671Z" fill="#0063E2"/>
<path d="M14.8593 19.9311C19.6135 14.8367 27.3265 14.8367 32.0819 19.9311C32.312 20.177 32.5201 20.4367 32.7301 20.695L34.5021 22.5929L36.3629 20.5992C36.571 20.3395 36.7797 20.0798 37.0111 19.8353C41.7633 14.7395 49.473 14.7395 54.2298 19.8367C58.9866 24.9339 58.9859 33.193 54.2298 38.2895L34.9098 58.8818C34.797 59.0026 34.6441 59.0705 34.4846 59.0705C34.3251 59.0705 34.1722 59.0026 34.0594 58.8818C34.0594 58.8818 15.0894 38.6284 14.8593 38.3839C10.1039 33.2888 10.1039 25.0277 14.8593 19.9311Z" fill="white"/>
</g>
<defs>
<clipPath id="clip0_497:719">
<rect width="70" height="75" fill="white" transform="matrix(-1 -1.08382e-07 -7.05169e-08 1 70 0)"/>
</clipPath>
</defs>
</svg>
