<svg width="81" height="241" viewBox="0 0 81 241" fill="none" xmlns="http://www.w3.org/2000/svg">
<g clip-path="url(#clip0_506:546)">
<path d="M80.3973 80H0V160.397H80.3973V80Z" fill="black"/>
<path d="M65.4084 130.626L49.8523 129.831L50.6473 145.387L40.2091 133.825L29.7716 145.387L30.5659 129.831L15.0105 130.626L26.5721 120.187L15.0105 109.75L30.5659 110.544L29.7716 94.9888L40.2091 106.55L50.6473 94.9888L49.8523 110.544L65.4084 109.75L53.8468 120.187L65.4084 130.626Z" fill="white"/>
</g>
<g clip-path="url(#clip1_506:546)">
<path d="M80.3973 0H0V80.3973H80.3973V0Z" fill="#0063E2"/>
<path d="M14.5764 40.1986C20.5235 42.1738 25.931 45.5022 30.3734 49.9219C34.8159 54.3416 38.172 59.732 40.1777 65.6688C42.1832 59.7322 45.539 54.342 49.9811 49.9223C54.4231 45.5027 59.8302 42.1741 65.7768 40.1986C59.8302 38.223 54.4231 34.8945 49.9811 30.4748C45.539 26.0551 42.1832 20.6649 40.1777 14.7283C38.1718 20.665 34.8155 26.0552 30.3731 30.4749C25.9307 34.8945 20.5233 38.2231 14.5764 40.1986" fill="white"/>
</g>
<g clip-path="url(#clip2_506:546)">
<path d="M80.3449 160.055H0V240.4H80.3449V160.055Z" fill="#D7FB03"/>
<path d="M40.2678 198.944L31.47 168.001H49.0656L40.2678 198.944Z" fill="black"/>
<path d="M39.3327 199.253L11.2307 183.594L23.6734 171.151L39.3327 199.253Z" fill="black"/>
<path d="M38.8897 200.132L7.9469 208.931V191.334L38.8897 200.132Z" fill="black"/>
<path d="M39.1987 201.067L23.5393 229.169L11.0967 216.727L39.1987 201.067Z" fill="black"/>
<path d="M40.0779 201.51L48.8765 232.453H31.28L40.0779 201.51Z" fill="black"/>
<path d="M41.0129 201.201L69.115 216.861L56.6723 229.304L41.0129 201.201Z" fill="black"/>
<path d="M41.4559 200.322L72.3988 191.524V209.12L41.4559 200.322Z" fill="black"/>
<path d="M41.147 199.387L56.8064 171.285L69.2483 183.728L41.147 199.387Z" fill="black"/>
</g>
<defs>
<clipPath id="clip0_506:546">
<rect width="80.3973" height="80.3973" fill="white" transform="translate(0 80)"/>
</clipPath>
<clipPath id="clip1_506:546">
<rect width="80.3973" height="80.3973" fill="white"/>
</clipPath>
<clipPath id="clip2_506:546">
<rect width="80.4" height="80.4" fill="white" transform="translate(0 160)"/>
</clipPath>
</defs>
</svg>
