<svg width="339" height="226" viewBox="0 0 339 226" fill="none" xmlns="http://www.w3.org/2000/svg">
<g clip-path="url(#clip0_468:507)">
<path d="M226 0L338.781 0L338.781 112.607L226 112.607L226 0Z" fill="black"/>
<path d="M296.674 72.4597L324.893 72.4597L324.893 100.679L296.674 100.679L296.674 72.4597Z" fill="white"/>
<path d="M268.454 44.2402L296.673 44.2402L296.673 72.4595L268.454 72.4595L268.454 44.2402Z" fill="white"/>
<path d="M240.233 16.019L268.453 16.019L268.453 44.2383L240.233 44.2383L240.233 16.019Z" fill="white"/>
</g>
<rect x="-0.5" y="0.5" width="111.781" height="111.781" transform="matrix(-1 0 0 1 337.781 0)" stroke="black"/>
<path d="M113 0L225.781 0L225.781 112.781L113 112.781L113 0Z" fill="#F6331C"/>
<path d="M160.587 58.0884C90.1678 58.0884 169.389 137.334 169.389 66.8926C169.389 137.334 248.614 58.0884 178.193 58.0884C248.614 58.0884 169.389 -21.1537 169.389 49.2842C169.389 -21.1537 90.1678 58.0884 160.587 58.0884Z" fill="white"/>
<g clip-path="url(#clip1_468:507)">
<path d="M226.077 113.078L338.781 113.078L338.781 225.781L226.077 225.781L226.077 113.078Z" fill="#EE93B5"/>
<path d="M250.713 142.945C258.372 135.284 270.799 135.284 278.461 142.945C278.832 143.315 279.167 143.705 279.505 144.094L282.36 146.948L285.358 143.95C285.694 143.559 286.03 143.169 286.403 142.801C294.059 135.138 306.481 135.138 314.145 142.803C321.808 150.468 321.807 162.888 314.145 170.551L283.017 201.517C282.835 201.699 282.589 201.801 282.332 201.801C282.075 201.801 281.829 201.699 281.647 201.517C281.647 201.517 251.083 171.061 250.713 170.693C243.051 163.032 243.051 150.609 250.713 142.945Z" fill="white"/>
</g>
<rect x="-0.5" y="0.5" width="111.781" height="111.781" transform="matrix(-1 0 0 1 337.781 113)" stroke="black"/>
<g clip-path="url(#clip2_468:507)">
<path d="M113 113L225.781 113L225.781 225.781L113 225.781L113 113Z" fill="#0063E2"/>
<path d="M198.077 155.161C200.911 155.161 203.681 156.001 206.037 157.575C208.393 159.15 210.23 161.387 211.314 164.005C212.398 166.623 212.682 169.504 212.129 172.283C211.576 175.062 210.212 177.615 208.208 179.619C206.204 181.623 203.652 182.987 200.872 183.54C198.093 184.093 195.212 183.809 192.594 182.725C189.976 181.64 187.739 179.804 186.164 177.448C184.59 175.092 183.75 172.322 183.75 169.488C183.75 165.688 185.26 162.044 187.947 159.357C190.633 156.67 194.277 155.161 198.077 155.161" fill="white"/>
<path d="M169.293 126.366C172.127 126.366 174.897 127.207 177.253 128.781C179.609 130.355 181.445 132.593 182.53 135.211C183.614 137.829 183.898 140.71 183.345 143.489C182.792 146.268 181.428 148.821 179.424 150.825C177.42 152.828 174.867 154.193 172.088 154.746C169.309 155.299 166.428 155.015 163.81 153.93C161.192 152.846 158.955 151.01 157.38 148.654C155.806 146.297 154.966 143.527 154.966 140.694C154.966 136.894 156.475 133.25 159.162 130.563C161.849 127.876 165.493 126.366 169.293 126.366Z" fill="white"/>
<path d="M169.486 183.753C172.32 183.753 175.09 184.593 177.446 186.168C179.802 187.742 181.639 189.979 182.723 192.597C183.808 195.215 184.091 198.096 183.538 200.875C182.986 203.655 181.621 206.208 179.617 208.211C177.614 210.215 175.061 211.579 172.282 212.132C169.502 212.685 166.622 212.401 164.004 211.317C161.386 210.233 159.148 208.396 157.574 206.04C155.999 203.684 155.159 200.914 155.159 198.08C155.159 194.281 156.669 190.636 159.356 187.95C162.043 185.263 165.687 183.753 169.486 183.753" fill="white"/>
<path d="M140.701 154.963C143.535 154.963 146.305 155.804 148.661 157.378C151.017 158.952 152.853 161.19 153.938 163.808C155.022 166.426 155.306 169.307 154.753 172.086C154.2 174.865 152.836 177.418 150.832 179.422C148.828 181.425 146.275 182.79 143.496 183.343C140.717 183.896 137.836 183.612 135.218 182.527C132.6 181.443 130.363 179.607 128.788 177.251C127.214 174.894 126.374 172.124 126.374 169.291C126.374 165.491 127.883 161.847 130.57 159.16C133.257 156.473 136.901 154.963 140.701 154.963" fill="white"/>
</g>
<rect x="-0.5" y="0.5" width="111.781" height="111.781" transform="matrix(-1 0 0 1 224.781 113)" stroke="black"/>
<g clip-path="url(#clip3_468:507)">
<path d="M169.574 196.787C181.958 196.787 191.996 186.749 191.996 174.365C191.996 161.981 181.958 151.942 169.574 151.942C157.19 151.942 147.151 161.977 147.151 174.365C147.151 186.753 157.191 196.787 169.574 196.787ZM128.814 157.43C151.325 134.919 187.823 134.919 210.335 157.43L227.271 174.365L210.335 191.302C187.823 213.811 151.325 213.811 128.814 191.302L111.879 174.365L128.814 157.43Z" fill="black"/>
<path d="M-3.05176e-05 113L112.781 113L112.781 225.607L-3.05176e-05 225.607L-3.05176e-05 113Z" fill="#D7FB03"/>
<path d="M56.3904 136.374C60.728 136.362 65.0248 137.211 69.0322 138.871C73.0397 140.53 76.6781 142.969 79.7371 146.044C92.6087 158.918 92.6087 179.863 79.7371 192.737C73.545 198.929 65.147 202.407 56.3904 202.407C47.6338 202.407 39.2359 198.929 33.0437 192.737C20.1721 179.863 20.1721 158.918 33.0437 146.044C36.1027 142.969 39.7412 140.53 43.7486 138.871C47.756 137.211 52.0529 136.362 56.3904 136.374V136.374ZM56.3904 214.35C68.3995 214.35 79.6901 209.672 88.1821 201.18C105.711 183.651 105.711 155.128 88.1821 137.601C79.6901 129.109 68.3995 124.431 56.3904 124.431C44.3813 124.431 33.0907 129.109 24.5988 137.601C7.0697 155.13 7.0697 183.653 24.5988 201.18C33.0907 209.672 44.3813 214.35 56.3904 214.35" fill="black"/>
<path d="M56.3904 154.543C59.328 154.542 62.1999 155.412 64.6428 157.044C67.0857 158.675 68.9898 160.995 70.1142 163.709C71.2385 166.423 71.5327 169.409 70.9594 172.29C70.3862 175.171 68.9712 177.818 66.8936 179.895C61.1031 185.685 51.6776 185.687 45.885 179.895C44.5016 178.518 43.4049 176.881 42.6584 175.078C41.9118 173.275 41.5302 171.342 41.5357 169.39C41.5357 165.422 43.3464 161.436 46.1513 158.634C49.0492 155.74 52.5861 154.547 56.3851 154.547L56.3904 154.543ZM56.3851 194.414C61.3365 194.418 66.1777 192.952 70.2959 190.203C74.4141 187.455 77.6241 183.546 79.5198 178.971C81.4154 174.397 81.9114 169.364 80.945 164.507C79.9786 159.651 77.5931 155.191 74.0907 151.691C64.3268 141.926 48.4539 141.926 38.69 151.691C35.1878 155.19 32.8024 159.65 31.8358 164.505C30.8691 169.361 31.3647 174.394 33.2598 178.968C35.1549 183.541 38.3642 187.45 42.4817 190.199C46.5992 192.948 51.4396 194.413 56.3904 194.41" fill="black"/>
<path d="M56.3904 167.031C56.9364 167.032 57.4651 167.222 57.8866 167.569C58.308 167.916 58.5961 168.398 58.7018 168.934C58.8075 169.47 58.7241 170.025 58.466 170.506C58.2079 170.987 57.791 171.364 57.2863 171.572C56.7816 171.781 56.2204 171.807 55.6981 171.648C55.1759 171.489 54.725 171.154 54.4223 170.699C54.1196 170.245 53.9838 169.7 54.038 169.156C54.0922 168.613 54.3331 168.105 54.7196 167.72C54.9387 167.5 55.1992 167.326 55.4859 167.207C55.7727 167.089 56.0801 167.028 56.3904 167.029V167.031ZM56.3904 178.167C58.4215 178.166 60.3895 177.461 61.9591 176.172C63.5288 174.883 64.6029 173.09 64.9986 171.098C65.3942 169.106 65.0869 167.038 64.1289 165.247C63.171 163.456 61.6217 162.052 59.745 161.276C57.8683 160.499 55.7804 160.397 53.8369 160.987C51.8935 161.577 50.2148 162.823 49.0868 164.512C47.9588 166.201 47.4514 168.229 47.6509 170.25C47.8505 172.271 48.7447 174.161 50.1812 175.597C50.9957 176.413 51.9635 177.061 53.0291 177.503C54.0947 177.944 55.237 178.17 56.3904 178.169" fill="black"/>
</g>
<rect x="-0.5" y="0.5" width="111.781" height="111.781" transform="matrix(-1 0 0 1 111.781 113)" stroke="black"/>
<g clip-path="url(#clip4_468:507)">
<path d="M-3.05176e-05 0L112.781 0L112.781 112.781L-3.05176e-05 112.781L-3.05176e-05 0Z" fill="#0063E2"/>
<path d="M18.7644 43.4736L91.4036 43.4736L91.4036 95.2045L18.7644 95.2045L18.7644 43.4736Z" fill="white"/>
<path d="M18.7654 43.4729L91.4045 43.4729L55.085 15.8667L18.7654 43.4729Z" fill="white"/>
</g>
<rect x="-0.5" y="0.5" width="111.781" height="111.781" transform="matrix(-1 0 0 1 111.781 0)" stroke="black"/>
<defs>
<clipPath id="clip0_468:507">
</clipPath>
<clipPath id="clip1_468:507">
</clipPath>
<clipPath id="clip2_468:507">
</clipPath>
<clipPath id="clip3_468:507">
</clipPath>
<clipPath id="clip4_468:507">
</clipPath>
</defs>
</svg>
