<svg width="242" height="81" viewBox="0 0 242 81" fill="none" xmlns="http://www.w3.org/2000/svg">
<g clip-path="url(#clip0_553:689)">
<path d="M161.397 0H81V80.3973H161.397V0Z" fill="#0063E2"/>
<path d="M95.5764 40.1988C101.523 42.174 106.931 45.5025 111.373 49.9222C115.816 54.3419 119.172 59.7322 121.178 65.6691C123.183 59.7325 126.539 54.3423 130.981 49.9226C135.423 45.5029 140.83 42.1743 146.777 40.1988C140.83 38.2233 135.423 34.8947 130.981 30.475C126.539 26.0553 123.183 20.6651 121.178 14.7285C119.172 20.6652 115.816 26.0554 111.373 30.4751C106.931 34.8948 101.523 38.2233 95.5764 40.1988" fill="white"/>
</g>
<g clip-path="url(#clip1_553:689)">
<path d="M241.345 0.0551758H161V80.4001H241.345V0.0551758Z" fill="#D7FB03"/>
<path d="M201.268 38.9443L192.47 8.00146H210.066L201.268 38.9443Z" fill="black"/>
<path d="M200.333 39.2529L172.231 23.5935L184.673 11.1509L200.333 39.2529Z" fill="black"/>
<path d="M199.89 40.1323L168.947 48.9309V31.3345L199.89 40.1323Z" fill="black"/>
<path d="M200.199 41.0674L184.539 69.1694L172.097 56.7268L200.199 41.0674Z" fill="black"/>
<path d="M201.078 41.5103L209.876 72.4531H192.28L201.078 41.5103Z" fill="black"/>
<path d="M202.013 41.2012L230.115 56.8606L217.672 69.304L202.013 41.2012Z" fill="black"/>
<path d="M202.456 40.3222L233.399 31.5244V49.1201L202.456 40.3222Z" fill="black"/>
<path d="M202.147 39.3872L217.806 11.2852L230.248 23.7278L202.147 39.3872Z" fill="black"/>
</g>
<g clip-path="url(#clip2_553:689)">
<path d="M0.599998 -7.02879e-06L81 0L81 80.3792L0.599991 80.3792L0.599998 -7.02879e-06Z" fill="#F6331C"/>
<path d="M26.873 34.563C26.873 33.5933 27.2085 32.7744 27.8795 32.1063C28.5505 31.4383 29.3694 31.1033 30.3362 31.1013C30.7893 31.0959 31.2389 31.1822 31.6578 31.3549C32.0768 31.5276 32.4566 31.7832 32.7742 32.1063C33.1063 32.4224 33.369 32.8039 33.5459 33.2268C33.7227 33.6497 33.8098 34.1047 33.8016 34.563C33.8016 35.506 33.4591 36.3187 32.7742 37.0011C32.0894 37.6835 31.2767 38.0259 30.3362 38.0284C29.8779 38.0365 29.4229 37.9494 29 37.7726C28.5772 37.5957 28.1956 37.333 27.8795 37.0011C27.5564 36.6832 27.3008 36.3035 27.1279 35.8846C26.9549 35.4657 26.8682 35.0162 26.873 34.563ZM53.3574 48.9844C51.931 51.6932 50.1771 53.7603 48.0957 55.1856C46.0142 56.611 43.5751 57.3232 40.7785 57.3222C38.0127 57.3222 35.5808 56.6095 33.483 55.1841C31.3851 53.7588 29.6233 51.6907 28.1974 48.9799L30.8923 47.4397C33.1187 51.5465 36.4141 53.5999 40.7785 53.5999C45.1429 53.5999 48.4505 51.547 50.7012 47.4412L53.3574 48.9844ZM47.7979 34.563C47.7979 33.5933 48.1329 32.7744 48.8029 32.1064C49.4729 31.4383 50.2918 31.1033 51.2595 31.1014C51.7129 31.096 52.1627 31.1822 52.5819 31.3549C53.0011 31.5276 53.3811 31.7832 53.6991 32.1064C54.0308 32.4226 54.2932 32.8042 54.4698 33.227C54.6464 33.6499 54.7332 34.1048 54.7249 34.563C54.7249 35.506 54.383 36.3187 53.6991 37.0011C53.0152 37.6835 52.202 38.0259 51.2595 38.0284C50.8013 38.0366 50.3463 37.9495 49.9234 37.7726C49.5005 37.5958 49.1189 37.3331 48.8029 37.0011C48.4797 36.6834 48.2241 36.3036 48.0514 35.8847C47.8787 35.4657 47.7925 35.0162 47.7979 34.563V34.563ZM13.5259 40.2104C13.5259 47.7412 16.1858 54.166 21.5056 59.4848C26.8254 64.8036 33.2497 67.4635 40.7785 67.4645C48.3093 67.4645 54.7416 64.8046 60.0753 59.4848C65.409 54.165 68.0758 47.7402 68.0758 40.2104C68.0758 32.6523 65.409 26.2131 60.0753 20.8928C54.7416 15.5725 48.3093 12.9126 40.7785 12.9131C33.2482 12.9131 26.8234 15.573 21.5041 20.8928C16.1848 26.2126 13.5249 32.6518 13.5244 40.2104" fill="white"/>
</g>
<defs>
<clipPath id="clip0_553:689">
<rect width="80.3973" height="80.3973" fill="white" transform="translate(81)"/>
</clipPath>
<clipPath id="clip1_553:689">
<rect width="80.4" height="80.4" fill="white" transform="translate(161)"/>
</clipPath>
<clipPath id="clip2_553:689">
<rect width="80.4" height="80.4" fill="white" transform="matrix(-1 -8.74228e-08 -8.74228e-08 1 81 0)"/>
</clipPath>
</defs>
</svg>
