<svg width="87" height="94" viewBox="0 0 87 94" fill="none" xmlns="http://www.w3.org/2000/svg">
<g clip-path="url(#clip0_515:505)">
<path d="M0.059494 0.0639573L86.7819 0.0639648L86.7819 93.67L0.0594858 93.67L0.059494 0.0639573Z" fill="#0063E2"/>
<path d="M18.4217 24.8927C24.3157 18.5301 33.8778 18.5301 39.7733 24.8928C40.0586 25.1998 40.3165 25.5242 40.5768 25.8468L42.7737 28.2172L45.0807 25.7271C45.3386 25.4027 45.5973 25.0784 45.8842 24.7731C51.7757 18.4087 61.3338 18.4087 67.2309 24.7748C73.1281 31.1409 73.1273 41.4559 67.2309 47.8211L43.2791 73.5397C43.1393 73.6905 42.9497 73.7753 42.752 73.7753C42.5543 73.7753 42.3647 73.6905 42.2249 73.5397C42.2249 73.5397 18.707 48.2444 18.4217 47.9391C12.5262 41.5756 12.5262 31.258 18.4217 24.8927Z" fill="white"/>
</g>
<defs>
<clipPath id="clip0_515:505">
<rect width="86.7819" height="93.6702" fill="white" transform="matrix(-1 -8.74228e-08 -8.74228e-08 1 86.7819 0)"/>
</clipPath>
</defs>
</svg>
