<svg width="70" height="75" viewBox="0 0 70 75" fill="none" xmlns="http://www.w3.org/2000/svg">
<g clip-path="url(#clip0_591:556)">
<path d="M0.0479736 0.0516282L70 0.0516357L70 75.0002L0.0479683 75.0002L0.0479736 0.0516282Z" fill="white"/>
<path d="M15.5666 20.0134C20.3208 14.9189 28.0337 14.9189 32.7892 20.0134C33.0193 20.2592 33.2273 20.5189 33.4373 20.7773L35.2094 22.6752L37.0702 20.6814C37.2783 20.4217 37.487 20.162 37.7184 19.9175C42.4706 14.8217 50.1803 14.8217 54.9371 19.9189C59.6938 25.0161 59.6932 33.2752 54.9371 38.3717L35.6171 58.9641C35.5043 59.0848 35.3513 59.1527 35.1919 59.1527C35.0324 59.1527 34.8795 59.0848 34.7667 58.9641C34.7667 58.9641 15.7967 38.7106 15.5666 38.4661C10.8111 33.371 10.8111 25.1099 15.5666 20.0134Z" fill="#0063E2"/>
</g>
<defs>
<clipPath id="clip0_591:556">
<rect width="70" height="75" fill="white" transform="matrix(-1 -1.08382e-07 -7.05169e-08 1 70 0)"/>
</clipPath>
</defs>
</svg>
