<svg width="87" height="94" viewBox="0 0 87 94" fill="none" xmlns="http://www.w3.org/2000/svg">
<g clip-path="url(#clip0_521:746)">
<path d="M0.059433 0.0639573L86.7819 0.0639648L86.7819 93.67L0.0594248 93.67L0.059433 0.0639573Z" fill="white"/>
<path d="M18.4217 24.8927C24.3156 18.5301 33.8777 18.5301 39.7732 24.8928C40.0585 25.1998 40.3164 25.5242 40.5768 25.8468L42.7737 28.2172L45.0806 25.7271C45.3385 25.4027 45.5973 25.0784 45.8841 24.7731C51.7757 18.4087 61.3337 18.4087 67.2309 24.7748C73.128 31.1409 73.1272 41.4559 67.2309 47.8211L43.2791 73.5397C43.1392 73.6905 42.9496 73.7753 42.752 73.7753C42.5543 73.7753 42.3647 73.6905 42.2248 73.5397C42.2248 73.5397 18.7069 48.2444 18.4217 47.9391C12.5261 41.5756 12.5261 31.258 18.4217 24.8927Z" fill="#0063E2"/>
</g>
<rect x="-0.5" y="0.5" width="85.7819" height="92.6702" transform="matrix(-1 -8.74228e-08 -8.74228e-08 1 85.7819 -4.37114e-08)" stroke="#0063E2"/>
<defs>
<clipPath id="clip0_521:746">
</clipPath>
</defs>
</svg>
