<svg width="520" height="43" viewBox="0 0 520 43" fill="none" xmlns="http://www.w3.org/2000/svg">
<path d="M0 0.602539H36.1783V13.4553H11.1979V17.5375H30.7499V29.904H11.1979V42.8168H0.00480128L0 0.602539Z" fill="black"/>
<path d="M59.2371 0.00247678C61.9358 -0.0255979 64.6327 0.185032 67.3077 0.632802C69.532 1.01613 71.7111 1.73369 73.7978 2.76993C75.6247 3.64141 77.2856 4.98077 78.6737 6.70199C80.0005 8.45283 81.0084 10.5417 81.6281 12.8252C82.3755 15.6197 82.733 18.554 82.685 21.4998C82.7303 24.385 82.4142 27.2612 81.7482 30.0243C81.1955 32.2645 80.2798 34.3386 79.0581 36.1175C77.781 37.874 76.2051 39.2505 74.4463 40.1456C72.3754 41.2208 70.2021 41.9573 67.9802 42.3368C65.1942 42.8075 62.3847 43.0281 59.5734 42.9971C51.6277 42.9971 45.8534 41.1962 42.2504 37.5943C38.6475 33.9924 36.8476 28.3674 36.8508 20.7194C36.8508 13.6717 38.6939 8.45895 42.3801 5.08117C46.0664 1.70339 51.6853 0.010481 59.2371 0.00247678ZM59.6694 31.9453C63.0674 31.9453 65.6936 31.0848 67.5479 29.3639C69.4022 27.643 70.3325 25.0217 70.3389 21.4998C70.3389 18.098 69.3605 15.4966 67.4038 13.6957C65.447 11.8947 62.8208 11.0043 59.5253 11.0243C57.986 10.9934 56.4506 11.2257 54.9616 11.7147C53.7707 12.0943 52.6628 12.8019 51.719 13.7858C50.8745 14.6762 50.2151 15.8091 49.7974 17.0875C49.3633 18.4837 49.1512 19.9722 49.1729 21.4698C49.1273 22.9025 49.3412 24.3296 49.7987 25.6445C50.2562 26.9595 50.9455 28.1283 51.815 29.0638C53.5989 30.9888 56.2186 31.9493 59.6743 31.9453H59.6694Z" fill="black"/>
<path d="M106.666 42.8173C101.635 42.8173 97.438 42.197 94.0753 40.9563C90.7125 39.7156 88.3874 37.5725 87.1 34.5269C86.0837 31.8537 85.4496 28.9788 85.2265 26.0324C84.8459 20.9543 84.6856 15.8542 84.7461 10.7544L84.7941 0.663086H96.6166V19.519C96.6107 20.5923 96.6588 21.665 96.7607 22.7307C96.8853 23.8016 97.1362 24.8434 97.5053 25.8223C97.8776 26.9004 98.4449 27.8559 99.1626 28.6138C100.047 29.474 101.06 30.1066 102.141 30.4748C103.615 31.0108 105.146 31.2638 106.681 31.2252C108.208 31.2649 109.731 31.0118 111.196 30.4748C112.247 30.1159 113.228 29.4929 114.079 28.6438C114.763 27.875 115.298 26.92 115.64 25.8524C115.992 24.8697 116.226 23.8282 116.337 22.7607C116.424 21.6837 116.464 20.6015 116.457 19.519V0.663086H128.279V10.7544C128.363 15.8532 128.218 20.9538 127.847 26.0324C127.624 28.9788 126.99 31.8537 125.973 34.5269C125.29 36.1423 124.31 37.5328 123.115 38.5851C121.762 39.7527 120.257 40.6161 118.667 41.1364C116.872 41.7502 115.04 42.1818 113.19 42.4271C111.023 42.7012 108.845 42.8315 106.666 42.8173Z" fill="black"/>
<path d="M173.883 42.8173H158.606L142.076 17.4179V42.8173H130.883V0.663086H146.496L162.738 25.6423V0.663086H173.883V42.8173Z" fill="black"/>
<path d="M200.17 42.8176H176.962V0.795471H200.021C201.964 0.77693 203.907 0.927372 205.833 1.24571C207.601 1.57062 209.328 2.17581 210.974 3.04666C212.599 3.86029 214.071 5.08681 215.297 6.64856C216.571 8.4058 217.529 10.4834 218.107 12.7417C218.879 15.6627 219.251 18.7252 219.208 21.8005C219.243 24.6671 218.852 27.517 218.055 30.205C217.398 32.4519 216.367 34.4984 215.028 36.2081C213.736 37.7887 212.243 39.0892 210.609 40.0561C208.985 41.0436 207.265 41.7602 205.492 42.1873C203.738 42.6036 201.956 42.8146 200.17 42.8176V42.8176ZM199.401 31.3456C200.97 31.4037 202.524 30.9594 203.917 30.0549C205.084 29.2989 206.04 28.1156 206.655 26.6631C207.248 25.1725 207.545 23.525 207.52 21.8606C207.52 18.979 206.879 16.6678 205.598 14.9269C204.317 13.186 202.259 12.3155 199.425 12.3155H188.155V31.3456H199.401Z" fill="black"/>
<path d="M221.163 0.663086H258.403V12.3752H232.361V16.0972H256.769V27.3231H232.361V31.1051H258.403V42.8173H221.163V0.663086Z" fill="black"/>
<path d="M260.901 0.663086H285.694C286.333 0.663086 286.943 0.66309 287.519 0.723121C288.096 0.783153 288.903 0.897209 289.921 1.11332C290.886 1.30983 291.834 1.61318 292.756 2.01979C293.71 2.46673 294.621 3.04883 295.47 3.75471C296.398 4.49961 297.218 5.43529 297.896 6.52216C298.622 7.74622 299.174 9.11681 299.529 10.5743C299.981 12.3804 300.2 14.265 300.178 16.1572C300.178 22.8007 298.112 27.5432 293.981 30.3847L300.898 42.8173L287.976 42.7573L282.211 32.8461H272.094V42.8173H260.901V0.663086ZM284.637 20.5396C287.423 20.5396 288.816 19.2189 288.816 16.5775C288.816 14.1762 287.359 12.9756 284.445 12.9756H272.094V20.5396H284.637Z" fill="black"/>
<path d="M355.528 28.8239H379.985V42.8173H344.335V0.663086H355.528V28.8239Z" fill="black"/>
<path d="M414.343 0.783203L429.475 42.8054H416.504L413.954 35.7156H397.284L394.738 42.8054H381.859L396.948 0.783203H414.343ZM401.276 23.6012H409.971L405.6 12.5554L401.276 23.6012Z" fill="black"/>
<path d="M474.641 42.8173H459.36L442.835 17.4179V42.8173H431.637V0.663086H447.254L463.492 25.6423V0.663086H474.641V42.8173Z" fill="black"/>
<path d="M500.972 42.8176H477.764V0.795502H500.823C502.767 0.776766 504.709 0.927209 506.636 1.24574C508.403 1.57065 510.131 2.17584 511.776 3.04669C513.401 3.86032 514.873 5.08685 516.099 6.64859C517.375 8.40429 518.334 10.4823 518.91 12.7418C519.679 15.6649 520.046 18.73 519.995 21.8066C520.032 24.6737 519.639 27.5242 518.838 30.211C518.181 32.458 517.15 34.5044 515.811 36.2142C514.519 37.7948 513.026 39.0953 511.392 40.0622C509.769 41.0514 508.049 41.768 506.275 42.1933C504.527 42.6064 502.751 42.8154 500.972 42.8176ZM500.203 31.3456C501.772 31.4038 503.326 30.9594 504.719 30.0549C505.887 29.2989 506.842 28.1156 507.457 26.6631C508.051 25.1726 508.347 23.5251 508.322 21.8606C508.322 18.9791 507.681 16.6679 506.4 14.9269C505.119 13.186 503.062 12.3156 500.227 12.3156H488.981V31.3456H500.203Z" fill="black"/>
<path d="M303.987 11.2887H324.663L305.174 35.3074L310.861 42.8054L330.61 18.7207V42.8054H339.012V0.783203H303.987V11.2887Z" fill="black"/>
</svg>
