<svg width="183" height="169" viewBox="0 0 183 169" fill="none" xmlns="http://www.w3.org/2000/svg">
<path d="M82.2661 0.498047V23.0777H25.642V30.2808H69.9797V51.964H25.642V74.6386H0.273438V0.498047H82.2661Z" fill="black"/>
<path d="M0.273438 168.502V94.6777H52.6021C74.8091 94.6777 96.0785 100.035 96.0785 131.59C96.0785 160.118 72.5743 168.502 52.8529 168.502H0.273438ZM69.5436 131.664C69.5436 122.425 64.7577 114.937 51.1304 114.937H25.642V148.401H51.1522C63.4822 148.401 69.5436 140.913 69.5436 131.664Z" fill="black"/>
<path d="M182.737 143.982V168.502H101.878V94.4141H127.225V143.982H182.737Z" fill="black"/>
<path d="M103.241 18.9541H150.174L105.934 61.1498L118.842 74.3221L163.659 31.9998V74.3221H182.737V0.498047H103.241V18.9541Z" fill="black"/>
</svg>
