<svg width="74" height="740" viewBox="0 0 74 740" fill="none" xmlns="http://www.w3.org/2000/svg">
<path d="M74 296H0V370H74V296Z" fill="#D7FB03"/>
<path d="M44.3925 334.162V333.193C44.3925 326.09 41.0022 321.732 35.7591 321.732C30.5161 321.732 27.2813 326.09 27.2813 333.193V334.162C27.2813 341.264 30.5099 345.625 35.7557 345.625C41.0015 345.625 44.389 341.267 44.389 334.164L44.3925 334.162ZM0 334.001V332.063C0 309.947 13.7215 296.224 35.9983 296.224H37.7736C58.0331 296.224 71.5135 309.786 71.5135 329.965V335.938C71.5135 347.237 66.9131 353.856 57.6309 353.856H52.9491C47.8636 353.856 45.1194 351.676 45.1194 348.207V348.044H43.6662C42.2958 351.515 39.5503 354.34 33.6577 354.34C23.4875 354.34 17.2721 345.462 17.2721 334.323V333.032C17.2721 321.732 23.3264 313.015 32.8505 313.015C38.8233 313.015 41.2447 315.516 42.9392 318.343H44.3925V313.499H54.2399V342.071C54.2399 343.928 54.8847 344.816 56.7416 344.816H57.065C60.2127 344.816 61.5036 341.83 61.5036 335.937V330.126C61.5036 314.791 53.674 305.428 37.4536 305.428H36.3203C20.0163 305.428 10.0092 314.791 10.0092 332.386V333.677C10.0092 351.273 20.1794 360.797 37.6132 360.797H54.4003V369.999H36.9664C13.8825 369.999 0 356.116 0 334.001Z" fill="black"/>
<path d="M0 666H74V740H0V666Z" fill="#0063E2"/>
<path d="M55.8226 693.664C57.6819 693.664 59.4995 694.215 61.0454 695.248C62.5914 696.281 63.7963 697.75 64.5078 699.467C65.2193 701.185 65.4055 703.075 65.0427 704.899C64.68 706.722 63.7847 708.397 62.47 709.712C61.1552 711.027 59.4802 711.922 57.6566 712.285C55.8331 712.648 53.9429 712.461 52.2251 711.75C50.5074 711.038 49.0392 709.834 48.0062 708.288C46.9732 706.742 46.4219 704.924 46.4219 703.065C46.4221 700.572 47.4126 698.181 49.1755 696.418C50.9384 694.655 53.3295 693.664 55.8226 693.664Z" fill="white"/>
<path d="M36.9362 674.771C38.7955 674.771 40.613 675.322 42.159 676.355C43.7049 677.388 44.9098 678.856 45.6213 680.574C46.3329 682.291 46.519 684.182 46.1563 686.005C45.7936 687.829 44.8982 689.504 43.5835 690.819C42.2688 692.133 40.5938 693.029 38.7702 693.391C36.9466 693.754 35.0565 693.568 33.3387 692.856C31.6209 692.145 30.1528 690.94 29.1198 689.394C28.0868 687.848 27.5355 686.031 27.5355 684.171C27.5355 681.678 28.5259 679.287 30.2889 677.524C32.0519 675.761 34.443 674.771 36.9362 674.771Z" fill="white"/>
<path d="M37.063 712.424C38.9223 712.424 40.7398 712.975 42.2858 714.008C43.8317 715.041 45.0366 716.509 45.7481 718.227C46.4597 719.945 46.6458 721.835 46.2831 723.659C45.9204 725.482 45.025 727.157 43.7103 728.472C42.3956 729.787 40.7205 730.682 38.897 731.045C37.0734 731.407 35.1832 731.221 33.4655 730.51C31.7477 729.798 30.2795 728.593 29.2465 727.047C28.2136 725.501 27.6622 723.684 27.6622 721.825C27.6624 719.331 28.6529 716.94 30.4159 715.177C32.1788 713.415 34.5698 712.424 37.063 712.424Z" fill="white"/>
<path d="M18.1758 693.534C20.0351 693.534 21.8526 694.086 23.3986 695.118C24.9445 696.151 26.1494 697.62 26.861 699.337C27.5725 701.055 27.7587 702.945 27.3959 704.769C27.0332 706.593 26.1379 708.268 24.8231 709.582C23.5084 710.897 21.8334 711.792 20.0098 712.155C18.1862 712.518 16.2961 712.332 14.5783 711.62C12.8605 710.909 11.3923 709.704 10.3594 708.158C9.32639 706.612 8.77505 704.794 8.77505 702.935C8.77505 700.442 9.76548 698.051 11.5285 696.288C13.2914 694.525 15.6826 693.534 18.1758 693.534Z" fill="white"/>
<g clip-path="url(#clip0)">
<path d="M111.264 646.976C119.39 646.976 125.977 640.389 125.977 632.264C125.977 624.138 119.39 617.551 111.264 617.551C103.139 617.551 96.5521 624.135 96.5521 632.264C96.5521 640.392 103.139 646.976 111.264 646.976ZM84.5202 621.152C99.2908 606.382 123.238 606.382 138.009 621.152L149.122 632.264L138.009 643.377C123.238 658.146 99.2908 658.146 84.5202 643.377L73.4086 632.264L84.5202 621.152Z" fill="black"/>
<path d="M0 592H74V665.886H0V592Z" fill="#D7FB03"/>
<path d="M37 607.336C39.8461 607.329 42.6654 607.886 45.2948 608.975C47.9243 610.064 50.3116 611.663 52.3187 613.681C60.7643 622.128 60.7643 635.872 52.3187 644.319C48.2558 648.381 42.7456 650.663 37 650.663C31.2545 650.663 25.7443 648.381 21.6814 644.319C13.2358 635.872 13.2358 622.128 21.6814 613.681C23.6885 611.663 26.0758 610.064 28.7052 608.975C31.3347 607.886 34.154 607.329 37 607.336ZM37 658.5C44.8797 658.5 52.2879 655.43 57.8598 649.858C69.3613 638.357 69.3613 619.642 57.8598 608.142C52.2879 602.57 44.8797 599.5 37 599.5C29.1204 599.5 21.7122 602.57 16.1403 608.142C4.63875 619.643 4.63875 638.358 16.1403 649.858C21.7122 655.43 29.1204 658.5 37 658.5Z" fill="black"/>
<path d="M37 619.258C38.9275 619.257 40.8119 619.828 42.4148 620.899C44.0177 621.969 45.267 623.491 46.0048 625.272C46.7425 627.052 46.9355 629.012 46.5594 630.902C46.1832 632.793 45.2548 634.529 43.8916 635.892C40.0923 639.691 33.9078 639.693 30.1071 635.892C29.1994 634.989 28.4798 633.915 27.9899 632.732C27.5001 631.549 27.2497 630.28 27.2533 629C27.2533 626.396 28.4414 623.781 30.2818 621.942C32.1832 620.043 34.5039 619.26 36.9966 619.26L37 619.258ZM36.9966 645.419C40.2454 645.421 43.4219 644.46 46.124 642.656C48.8261 640.852 50.9324 638.287 52.1762 635.286C53.42 632.285 53.7454 628.982 53.1113 625.796C52.4772 622.609 50.912 619.683 48.6139 617.386C42.2074 610.979 31.7926 610.979 25.3861 617.386C23.0882 619.682 21.523 622.608 20.8888 625.794C20.2545 628.98 20.5797 632.283 21.8231 635.284C23.0666 638.285 25.1724 640.849 27.874 642.653C30.5756 644.457 33.7516 645.418 37 645.416" fill="black"/>
<path d="M37.0001 627.451C37.3583 627.452 37.7053 627.577 37.9818 627.804C38.2583 628.032 38.4474 628.349 38.5167 628.7C38.586 629.051 38.5314 629.416 38.362 629.732C38.1927 630.047 37.9191 630.295 37.5879 630.431C37.2568 630.568 36.8885 630.585 36.5459 630.481C36.2032 630.376 35.9074 630.156 35.7088 629.858C35.5101 629.56 35.421 629.202 35.4566 628.846C35.4922 628.49 35.6502 628.156 35.9038 627.903C36.0476 627.759 36.2185 627.645 36.4066 627.567C36.5948 627.489 36.7965 627.449 37.0001 627.45V627.451ZM37.0001 634.758C38.3328 634.758 39.6241 634.295 40.654 633.449C41.6839 632.604 42.3886 631.427 42.6482 630.12C42.9078 628.813 42.7062 627.456 42.0776 626.281C41.4491 625.106 40.4325 624.185 39.2012 623.675C37.9698 623.166 36.5998 623.099 35.3247 623.486C34.0495 623.873 32.948 624.69 32.2079 625.799C31.4678 626.907 31.1348 628.237 31.2658 629.564C31.3967 630.89 31.9834 632.13 32.926 633.072C33.4604 633.608 34.0955 634.033 34.7946 634.322C35.4938 634.612 36.2433 634.76 37.0001 634.759" fill="black"/>
</g>
<path d="M0 444H74V517.981H0V444Z" fill="#F6331C"/>
<path d="M24.1817 475.812C24.1817 474.92 24.4904 474.166 25.108 473.551C25.7256 472.936 26.4793 472.628 27.3691 472.626C27.7862 472.621 28.2 472.701 28.5856 472.86C28.9712 473.018 29.3207 473.254 29.6131 473.551C29.9187 473.842 30.1605 474.193 30.3233 474.582C30.4861 474.972 30.5662 475.39 30.5587 475.812C30.5587 476.68 30.2435 477.428 29.6131 478.056C28.9827 478.684 28.2348 479 27.3691 479.002C26.9473 479.009 26.5286 478.929 26.1393 478.766C25.7501 478.604 25.3989 478.362 25.108 478.056C24.8107 477.764 24.5754 477.414 24.4162 477.029C24.257 476.643 24.1772 476.229 24.1817 475.812ZM48.5578 489.086C47.245 491.579 45.6307 493.481 43.7149 494.793C41.7991 496.105 39.5542 496.761 36.9802 496.76C34.4345 496.76 32.1963 496.104 30.2654 494.792C28.3346 493.48 26.713 491.577 25.4006 489.082L27.881 487.664C29.9301 491.444 32.9632 493.334 36.9802 493.334C40.9972 493.334 44.0415 491.444 46.1131 487.665L48.5578 489.086ZM43.4408 475.812C43.4408 474.92 43.7492 474.166 44.3658 473.551C44.9825 472.936 45.7362 472.628 46.627 472.626C47.0442 472.621 47.4582 472.701 47.844 472.86C48.2299 473.018 48.5796 473.254 48.8723 473.551C49.1776 473.842 49.4191 474.193 49.5816 474.583C49.7442 474.972 49.8241 475.391 49.8165 475.812C49.8165 476.68 49.5018 477.428 48.8723 478.056C48.2428 478.684 47.4944 479 46.627 479.002C46.2051 479.009 45.7864 478.929 45.3971 478.766C45.0079 478.604 44.6567 478.362 44.3658 478.056C44.0684 477.764 43.8331 477.414 43.6742 477.029C43.5152 476.643 43.4359 476.229 43.4408 475.812ZM11.897 481.01C11.897 487.941 14.3451 493.855 19.2415 498.75C24.1378 503.646 30.0507 506.094 36.9802 506.095C43.9116 506.095 49.8318 503.647 54.7409 498.75C59.65 493.854 62.1046 487.941 62.1046 481.01C62.1046 474.054 59.65 468.127 54.7409 463.23C49.8318 458.333 43.9116 455.885 36.9802 455.886C30.0494 455.886 24.136 458.334 19.2401 463.23C14.3442 468.127 11.8961 474.053 11.8956 481.01" fill="white"/>
<path d="M0.050705 518.051H74V592H0.050705V518.051Z" fill="#EE93B5"/>
<path d="M16.215 537.649C21.2408 532.622 29.3945 532.622 34.4217 537.649C34.665 537.891 34.8849 538.147 35.1069 538.402L36.9802 540.275L38.9474 538.308C39.1673 538.051 39.388 537.795 39.6326 537.554C44.6563 532.526 52.8066 532.526 57.8352 537.555C62.8638 542.585 62.8631 550.733 57.8352 555.762L37.4112 576.08C37.292 576.199 37.1303 576.266 36.9617 576.266C36.7931 576.266 36.6315 576.199 36.5122 576.08C36.5122 576.08 16.4582 556.096 16.215 555.855C11.1878 550.828 11.1878 542.677 16.215 537.649Z" fill="white"/>
<path d="M0.112976 370.113H73.8862V443.886H0.112976V370.113Z" fill="black"/>
<path d="M32.7902 429.704L38.8993 423.595L22.3384 407.035L38.8993 390.474L32.7902 384.365L10.1202 407.035L32.7902 429.704Z" fill="white"/>
<path d="M57.9981 429.704L64.1072 423.595L47.5463 407.035L64.1072 390.474L57.9981 384.365L35.328 407.035L57.9981 429.704Z" fill="white"/>
<path d="M0 222H74V296H0V222Z" fill="#0063E2"/>
<path d="M12.312 250.524H59.9735V284.467H12.312V250.524Z" fill="white"/>
<path d="M12.3127 250.525H59.9742L36.1435 232.411L12.3127 250.525Z" fill="white"/>
<g clip-path="url(#clip1)">
<path d="M-0.0191879 148H74V222H-0.0191879V148Z" fill="#F6331C"/>
<path d="M31.2129 186.114C-15.0042 186.114 36.9897 238.11 36.9897 191.891C36.9897 238.11 88.9857 186.114 42.7679 186.114C88.9857 186.114 36.9897 134.12 36.9897 180.338C36.9897 134.12 -15.0042 186.114 31.2129 186.114Z" fill="white"/>
</g>
<path d="M0 74H74V147.886H0V74Z" fill="black"/>
<path d="M46.3719 121.544H64.8877V140.06H46.3719V121.544Z" fill="white"/>
<path d="M27.8555 103.028H46.3713V121.544H27.8555V103.028Z" fill="white"/>
<path d="M9.33907 84.5107H27.8548V103.027H9.33907V84.5107Z" fill="white"/>
<rect width="73.8408" height="73.8409" transform="matrix(-0.00215226 0.999998 -0.999998 -0.00216154 74 0.15918)" fill="#EE93B5"/>
<path d="M52.8946 9L52.8946 42.5789L16.3874 10.9266L5.00005 20.1618L41.6076 52.2275L5.00005 52.2274L5.00005 65.8774L68.8624 65.8774L68.8624 9L52.8946 9Z" fill="white"/>
<defs>
<clipPath id="clip0">
<rect width="74" height="74" fill="white" transform="matrix(-1 0 0 1 74 592)"/>
</clipPath>
<clipPath id="clip1">
<rect width="74" height="74" fill="white" transform="matrix(-1 0 0 1 74 148)"/>
</clipPath>
</defs>
</svg>
