<svg width="2956" height="74" viewBox="0 0 2956 74" fill="none" xmlns="http://www.w3.org/2000/svg">
<path d="M370 0L296 0V74L370 74V0Z" fill="#D7FB03"/>
<path d="M340.392 38.1617V37.1935C340.392 30.0902 337.002 25.7317 331.759 25.7317C326.516 25.7317 323.281 30.0902 323.281 37.1935V38.1617C323.281 45.2643 326.51 49.6255 331.756 49.6255C337.001 49.6255 340.389 45.267 340.389 38.1644L340.392 38.1617ZM296 38.0006V36.0629C296 13.9472 309.722 0.223633 331.998 0.223633L333.774 0.223633C354.033 0.223633 367.513 13.7862 367.513 33.9649V39.9377C367.513 51.237 362.913 57.8559 353.631 57.8559H348.949C343.864 57.8559 341.119 55.6764 341.119 52.2066V52.0442H339.666C338.296 55.5153 335.55 58.3404 329.658 58.3404C319.487 58.3404 313.272 49.4617 313.272 38.3234V37.0325C313.272 25.7317 319.326 17.0148 328.851 17.0148C334.823 17.0148 337.245 19.5164 338.939 22.3428H340.392V17.4985H350.24V46.0707C350.24 47.9276 350.885 48.8163 352.742 48.8163H353.065C356.213 48.8163 357.504 45.8296 357.504 39.937V34.1259C357.504 18.7908 349.674 9.42773 333.454 9.42773H332.32C316.016 9.42773 306.009 18.7908 306.009 36.3863V37.6772C306.009 55.2735 316.179 64.7969 333.613 64.7969L350.4 64.7969V73.9989L332.966 73.9989C309.883 73.9989 296 60.1164 296 38.0006" fill="black"/>
<rect x="296.5" y="0.5" width="73" height="73" stroke="black"/>
<g clip-path="url(#clip0)">
<path d="M444 74L444 0L518 -3.23464e-06L518 74L444 74Z" fill="#0063E2"/>
<path d="M471.663 18.1771C471.663 16.3178 472.215 14.5003 473.248 12.9543C474.281 11.4084 475.749 10.2035 477.467 9.49196C479.184 8.78044 481.075 8.59427 482.898 8.957C484.722 9.31973 486.397 10.2151 487.712 11.5298C489.026 12.8445 489.922 14.5196 490.284 16.3431C490.647 18.1667 490.461 20.0569 489.749 21.7746C489.038 23.4924 487.833 24.9606 486.287 25.9935C484.741 27.0265 482.923 27.5779 481.064 27.5779C478.571 27.5777 476.18 26.5872 474.417 24.8242C472.654 23.0613 471.664 20.6703 471.663 18.1771" fill="white"/>
<path d="M452.77 37.0638C452.77 35.2045 453.322 33.387 454.355 31.8411C455.388 30.2951 456.856 29.0902 458.574 28.3787C460.291 27.6672 462.182 27.481 464.005 27.8437C465.829 28.2065 467.504 29.1018 468.818 30.4165C470.133 31.7312 471.028 33.4063 471.391 35.2298C471.754 37.0534 471.568 38.9436 470.856 40.6613C470.145 42.3791 468.94 43.8473 467.394 44.8802C465.848 45.9132 464.03 46.4645 462.171 46.4645C459.678 46.4645 457.287 45.4741 455.524 43.7111C453.761 41.9482 452.77 39.557 452.77 37.0638Z" fill="white"/>
<path d="M490.424 36.9369C490.424 35.0776 490.975 33.2601 492.008 31.7141C493.041 30.1682 494.509 28.9632 496.227 28.2517C497.945 27.5402 499.835 27.354 501.659 27.7168C503.482 28.0795 505.157 28.9748 506.472 30.2895C507.787 31.6043 508.682 33.2793 509.045 35.1029C509.408 36.9264 509.221 38.8166 508.51 40.5344C507.798 42.2521 506.593 43.7203 505.047 44.7533C503.502 45.7863 501.684 46.3376 499.825 46.3376C497.332 46.3374 494.941 45.3469 493.178 43.584C491.415 41.8211 490.424 39.4301 490.424 36.9369" fill="white"/>
<path d="M471.534 55.8236C471.534 53.9643 472.085 52.1468 473.118 50.6008C474.151 49.0549 475.62 47.85 477.337 47.1384C479.055 46.4269 480.945 46.2408 482.769 46.6035C484.592 46.9662 486.267 47.8616 487.582 49.1763C488.897 50.491 489.792 52.166 490.155 53.9896C490.518 55.8132 490.332 57.7034 489.62 59.4211C488.908 61.1389 487.704 62.6071 486.158 63.6401C484.612 64.673 482.794 65.2244 480.935 65.2244C478.442 65.2244 476.05 64.2339 474.287 62.4709C472.524 60.708 471.534 58.3168 471.534 55.8236" fill="white"/>
</g>
<rect x="0.5" y="0.5" width="73" height="73" transform="matrix(4.37114e-08 1 1 -4.37114e-08 444 -2.18557e-08)" stroke="black"/>
<g clip-path="url(#clip1)">
<path d="M720.976 -37.2639C720.976 -45.3895 714.389 -51.9762 706.264 -51.9762C698.138 -51.9762 691.551 -45.3895 691.551 -37.2639C691.551 -29.1383 698.135 -22.5516 706.264 -22.5516C714.392 -22.5516 720.976 -29.139 720.976 -37.2639ZM695.152 -10.5198C680.382 -25.2903 680.382 -49.2375 695.152 -64.0088L706.264 -75.1211L717.377 -64.0088C732.146 -49.2375 732.146 -25.2903 717.377 -10.5198L706.264 0.591861L695.152 -10.5198Z" fill="black"/>
<path d="M666 74L666 0L739.886 -3.22967e-06L739.886 74L666 74Z" fill="#D7FB03"/>
<path d="M681.337 36.9996C681.329 34.1535 681.886 31.3342 682.975 28.7048C684.064 26.0754 685.664 23.688 687.681 21.6809C696.128 13.2353 709.872 13.2353 718.319 21.6809C722.381 25.7438 724.664 31.254 724.664 36.9996C724.664 42.7451 722.381 48.2554 718.319 52.3183C709.872 60.7639 696.128 60.7639 687.681 52.3183C685.664 50.3112 684.064 47.9238 682.975 45.2944C681.886 42.6649 681.329 39.8456 681.337 36.9996V36.9996ZM732.5 36.9996C732.5 29.12 729.43 21.7117 723.858 16.1398C712.357 4.63829 693.642 4.63829 682.142 16.1398C676.57 21.7117 673.5 29.12 673.5 36.9996C673.5 44.8792 676.57 52.2874 682.142 57.8594C693.643 69.3609 712.358 69.3609 723.858 57.8594C729.43 52.2874 732.5 44.8792 732.5 36.9996" fill="black"/>
<path d="M693.258 36.9993C693.257 35.0718 693.829 33.1875 694.899 31.5846C695.97 29.9817 697.491 28.7324 699.272 27.9946C701.053 27.2568 703.012 27.0638 704.903 27.44C706.793 27.8161 708.53 28.7445 709.892 30.1077C713.692 33.9071 713.693 40.0916 709.892 43.8923C708.989 44.8 707.915 45.5196 706.732 46.0094C705.549 46.4993 704.281 46.7497 703 46.7461C700.396 46.7461 697.781 45.558 695.943 43.7176C694.043 41.8162 693.261 39.4955 693.261 37.0028L693.258 36.9993ZM719.419 37.0028C719.422 33.754 718.46 30.5775 716.656 27.8754C714.853 25.1733 712.288 23.067 709.287 21.8232C706.285 20.5794 702.983 20.2539 699.796 20.8881C696.61 21.5222 693.683 23.0873 691.387 25.3854C684.98 31.7919 684.98 42.2067 691.387 48.6132C693.683 50.9112 696.609 52.4763 699.795 53.1106C702.981 53.7448 706.283 53.4197 709.284 52.1762C712.285 50.9328 714.85 48.827 716.653 46.1254C718.457 43.4237 719.419 40.2477 719.416 36.9993" fill="black"/>
<path d="M701.452 36.9997C701.452 36.6415 701.577 36.2946 701.805 36.018C702.033 35.7415 702.349 35.5525 702.701 35.4831C703.052 35.4138 703.417 35.4685 703.732 35.6378C704.048 35.8072 704.295 36.0807 704.432 36.4119C704.568 36.743 704.586 37.1113 704.481 37.4539C704.377 37.7966 704.157 38.0924 703.859 38.2911C703.561 38.4897 703.203 38.5788 702.846 38.5432C702.49 38.5077 702.157 38.3496 701.904 38.096C701.76 37.9522 701.645 37.7813 701.568 37.5932C701.49 37.405 701.45 37.2033 701.45 36.9997L701.452 36.9997ZM708.759 36.9997C708.758 35.667 708.296 34.3758 707.45 33.3459C706.604 32.316 705.427 31.6112 704.12 31.3516C702.813 31.092 701.456 31.2936 700.281 31.9222C699.106 32.5507 698.185 33.5673 697.676 34.7986C697.166 36.03 697.099 37.4 697.486 38.6752C697.873 39.9503 698.691 41.0518 699.799 41.7919C700.907 42.532 702.238 42.865 703.564 42.734C704.89 42.6031 706.13 42.0164 707.072 41.0738C707.608 40.5394 708.033 39.9044 708.323 39.2052C708.612 38.506 708.761 37.7565 708.76 36.9997" fill="black"/>
</g>
<rect x="0.5" y="0.5" width="73" height="73" transform="matrix(4.37114e-08 1 1 -4.37114e-08 666 -2.18557e-08)" stroke="black"/>
<g clip-path="url(#clip2)">
<path d="M518 -6.46929e-06L592 0L592 73.9808L518 73.9808L518 -6.46929e-06Z" fill="#F6331C"/>
<path d="M542.182 31.8123C542.182 30.9197 542.49 30.166 543.108 29.5512C543.726 28.9363 544.479 28.628 545.369 28.6262C545.786 28.6212 546.2 28.7006 546.586 28.8595C546.971 29.0185 547.321 29.2538 547.613 29.5512C547.919 29.8421 548.161 30.1932 548.323 30.5825C548.486 30.9717 548.566 31.3905 548.559 31.8123C548.559 32.6802 548.244 33.4282 547.613 34.0563C546.983 34.6844 546.235 34.9995 545.369 35.0018C544.947 35.0093 544.529 34.9291 544.139 34.7664C543.75 34.6036 543.399 34.3618 543.108 34.0563C542.811 33.7637 542.575 33.4142 542.416 33.0287C542.257 32.6431 542.177 32.2294 542.182 31.8123ZM566.558 45.0857C565.245 47.5789 563.631 49.4814 561.715 50.7933C559.799 52.1052 557.554 52.7607 554.98 52.7598C552.435 52.7598 550.196 52.1038 548.265 50.7919C546.335 49.48 544.713 47.5766 543.401 45.0816L545.881 43.6639C547.93 47.4439 550.963 49.3338 554.98 49.3339C558.997 49.3339 562.042 47.4443 564.113 43.6653L566.558 45.0857ZM561.441 31.8123C561.441 30.9197 561.749 30.166 562.366 29.5512C562.983 28.9363 563.736 28.628 564.627 28.6262C565.044 28.6212 565.458 28.7006 565.844 28.8595C566.23 29.0185 566.58 29.2537 566.872 29.5512C567.178 29.8422 567.419 30.1935 567.582 30.5827C567.744 30.9719 567.824 31.3906 567.817 31.8123C567.817 32.6802 567.502 33.4282 566.872 34.0563C566.243 34.6844 565.494 34.9995 564.627 35.0018C564.205 35.0093 563.786 34.9292 563.397 34.7664C563.008 34.6037 562.657 34.3618 562.366 34.0563C562.068 33.7639 561.833 33.4144 561.674 33.0287C561.515 32.6431 561.436 32.2294 561.441 31.8123V31.8123ZM529.897 37.0101C529.897 43.9414 532.345 49.8548 537.241 54.7502C542.138 59.6457 548.051 62.0938 554.98 62.0947C561.912 62.0947 567.832 59.6466 572.741 54.7502C577.65 49.8539 580.105 43.9405 580.105 37.0101C580.105 30.0537 577.65 24.127 572.741 19.2302C567.832 14.3335 561.912 11.8853 554.98 11.8857C548.049 11.8857 542.136 14.3339 537.24 19.2302C532.344 24.1266 529.896 30.0532 529.896 37.0101" fill="white"/>
</g>
<rect x="-0.5" y="0.5" width="73" height="73" transform="matrix(-1 -8.74228e-08 -8.74228e-08 1 591 -4.37114e-08)" stroke="black"/>
<g clip-path="url(#clip3)">
<path d="M592.051 0.0507748L666 0.0507812L666 74.0001L592.051 74.0001L592.051 0.0507748Z" fill="#EE93B5"/>
<path d="M608.215 19.6485C613.241 14.622 621.394 14.622 626.422 19.6485C626.665 19.8911 626.885 20.1473 627.107 20.4022L628.98 22.2748L630.947 20.3076C631.167 20.0514 631.388 19.7951 631.633 19.5539C636.656 14.5261 644.807 14.5261 649.835 19.5553C654.864 24.5846 654.863 32.7335 649.835 37.7621L629.411 58.0798C629.292 58.199 629.13 58.2659 628.962 58.2659C628.793 58.2659 628.631 58.199 628.512 58.0798C628.512 58.0798 608.458 38.0964 608.215 37.8552C603.188 32.828 603.188 24.6771 608.215 19.6485Z" fill="white"/>
</g>
<rect x="-0.5" y="0.5" width="73" height="73" transform="matrix(-1 -8.74228e-08 -8.74228e-08 1 665 -4.37114e-08)" stroke="black"/>
<g clip-path="url(#clip4)">
<path d="M443.886 0.112541L443.886 73.8857L370.113 73.8857L370.113 0.11254L443.886 0.112541Z" fill="black"/>
<path d="M384.296 32.7903L390.405 38.8994L406.966 22.3385L423.526 38.8994L429.635 32.7903L406.966 10.1203L384.296 32.7903Z" fill="white"/>
<path d="M384.296 57.9983L390.405 64.1074L406.966 47.5465L423.526 64.1074L429.635 57.9983L406.966 35.3283L384.296 57.9983Z" fill="white"/>
</g>
<rect x="-0.5" y="-0.5" width="73" height="73" transform="matrix(1.19249e-08 -1 -1 -1.19249e-08 443 73)" stroke="black"/>
<g clip-path="url(#clip5)">
<path d="M222 -6.46929e-06L296 0L296 74L222 74L222 -6.46929e-06Z" fill="#0063E2"/>
<path d="M234.312 28.5244L281.974 28.5244L281.974 62.4671L234.312 62.4671L234.312 28.5244Z" fill="white"/>
<path d="M234.313 28.5247L281.974 28.5247L258.144 10.4111L234.313 28.5247Z" fill="white"/>
</g>
<rect x="-0.5" y="0.5" width="73" height="73" transform="matrix(-1 -8.74228e-08 -8.74228e-08 1 295 -4.37114e-08)" stroke="black"/>
<g clip-path="url(#clip6)">
<path d="M148 74.0192L148 0L222 -3.23464e-06L222 74.0192L148 74.0192Z" fill="#F6331C"/>
<path d="M186.114 42.7871C186.114 89.0042 238.11 37.0103 191.891 37.0103C238.11 37.0103 186.114 -14.9857 186.114 31.2321C186.114 -14.9857 134.12 37.0103 180.337 37.0103C134.12 37.0103 186.114 89.0042 186.114 42.7871Z" fill="white"/>
</g>
<rect x="0.5" y="0.5" width="73" height="73" transform="matrix(4.37114e-08 1 1 -4.37114e-08 148 -2.18557e-08)" stroke="black"/>
<g clip-path="url(#clip7)">
<path d="M74 74L74 0L147.886 -3.22967e-06L147.886 74L74 74Z" fill="black"/>
<path d="M121.544 27.6281L121.544 9.1123L140.059 9.1123L140.059 27.6281L121.544 27.6281Z" fill="white"/>
<path d="M103.028 46.1446L103.028 27.6289L121.544 27.6289L121.544 46.1446L103.028 46.1446Z" fill="white"/>
<path d="M84.5109 64.6613L84.5109 46.1455L103.027 46.1455L103.027 64.6613L84.5109 64.6613Z" fill="white"/>
</g>
<rect x="0.5" y="0.5" width="73" height="73" transform="matrix(4.37114e-08 1 1 -4.37114e-08 74 -2.18557e-08)" stroke="black"/>
<rect x="0.498918" y="0.501075" width="72.8408" height="72.8409" transform="matrix(0.999998 0.00215221 -0.0021615 0.999998 0.160752 -0.00107261)" fill="#EE93B5" stroke="black"/>
<path d="M51.8513 32.0631L20.1765 68.2245L11.5791 57.6235L42.9567 21.4331L43.6742 20.6056L42.5789 20.6056L9.5 20.6056L9.5 5.6377L65.3774 5.6377L65.3774 68.5001L52.7275 68.5001L52.7275 32.3926L52.7275 31.0629L51.8513 32.0631Z" fill="white" stroke="black"/>
<path d="M1110 0L1036 0V74L1110 74V0Z" fill="#D7FB03"/>
<path d="M1080.39 38.1617V37.1935C1080.39 30.0902 1077 25.7317 1071.76 25.7317C1066.52 25.7317 1063.28 30.0902 1063.28 37.1935V38.1617C1063.28 45.2643 1066.51 49.6255 1071.76 49.6255C1077 49.6255 1080.39 45.267 1080.39 38.1644L1080.39 38.1617ZM1036 38.0006V36.0629C1036 13.9472 1049.72 0.223633 1072 0.223633L1073.77 0.223633C1094.03 0.223633 1107.51 13.7862 1107.51 33.9649V39.9377C1107.51 51.237 1102.91 57.8559 1093.63 57.8559H1088.95C1083.86 57.8559 1081.12 55.6764 1081.12 52.2066V52.0442H1079.67C1078.3 55.5153 1075.55 58.3404 1069.66 58.3404C1059.49 58.3404 1053.27 49.4617 1053.27 38.3234V37.0325C1053.27 25.7317 1059.33 17.0148 1068.85 17.0148C1074.82 17.0148 1077.24 19.5164 1078.94 22.3428H1080.39V17.4985H1090.24V46.0707C1090.24 47.9276 1090.88 48.8163 1092.74 48.8163H1093.06C1096.21 48.8163 1097.5 45.8296 1097.5 39.937V34.1259C1097.5 18.7908 1089.67 9.42773 1073.45 9.42773H1072.32C1056.02 9.42773 1046.01 18.7908 1046.01 36.3863V37.6772C1046.01 55.2735 1056.18 64.7969 1073.61 64.7969L1090.4 64.7969V73.9989L1072.97 73.9989C1049.88 73.9989 1036 60.1164 1036 38.0006" fill="black"/>
<rect x="1036.5" y="0.5" width="73" height="73" stroke="black"/>
<g clip-path="url(#clip8)">
<path d="M1184 74L1184 0L1258 -3.23464e-06L1258 74L1184 74Z" fill="#0063E2"/>
<path d="M1211.66 18.1771C1211.66 16.3178 1212.21 14.5003 1213.25 12.9543C1214.28 11.4084 1215.75 10.2035 1217.47 9.49196C1219.18 8.78044 1221.07 8.59427 1222.9 8.957C1224.72 9.31973 1226.4 10.2151 1227.71 11.5298C1229.03 12.8445 1229.92 14.5196 1230.28 16.3431C1230.65 18.1667 1230.46 20.0569 1229.75 21.7746C1229.04 23.4924 1227.83 24.9606 1226.29 25.9935C1224.74 27.0265 1222.92 27.5779 1221.06 27.5779C1218.57 27.5777 1216.18 26.5872 1214.42 24.8242C1212.65 23.0613 1211.66 20.6703 1211.66 18.1771" fill="white"/>
<path d="M1192.77 37.0638C1192.77 35.2045 1193.32 33.387 1194.35 31.8411C1195.39 30.2951 1196.86 29.0902 1198.57 28.3787C1200.29 27.6672 1202.18 27.481 1204 27.8437C1205.83 28.2065 1207.5 29.1018 1208.82 30.4165C1210.13 31.7312 1211.03 33.4063 1211.39 35.2298C1211.75 37.0534 1211.57 38.9436 1210.86 40.6613C1210.14 42.3791 1208.94 43.8473 1207.39 44.8802C1205.85 45.9132 1204.03 46.4645 1202.17 46.4645C1199.68 46.4645 1197.29 45.4741 1195.52 43.7111C1193.76 41.9482 1192.77 39.557 1192.77 37.0638Z" fill="white"/>
<path d="M1230.42 36.9369C1230.42 35.0776 1230.98 33.2601 1232.01 31.7141C1233.04 30.1682 1234.51 28.9632 1236.23 28.2517C1237.94 27.5402 1239.84 27.354 1241.66 27.7168C1243.48 28.0795 1245.16 28.9748 1246.47 30.2895C1247.79 31.6043 1248.68 33.2793 1249.04 35.1029C1249.41 36.9264 1249.22 38.8166 1248.51 40.5344C1247.8 42.2521 1246.59 43.7203 1245.05 44.7533C1243.5 45.7863 1241.68 46.3376 1239.82 46.3376C1237.33 46.3374 1234.94 45.3469 1233.18 43.584C1231.41 41.8211 1230.42 39.4301 1230.42 36.9369" fill="white"/>
<path d="M1211.53 55.8236C1211.53 53.9643 1212.09 52.1468 1213.12 50.6008C1214.15 49.0549 1215.62 47.85 1217.34 47.1384C1219.05 46.4269 1220.95 46.2408 1222.77 46.6035C1224.59 46.9662 1226.27 47.8616 1227.58 49.1763C1228.9 50.491 1229.79 52.166 1230.15 53.9896C1230.52 55.8132 1230.33 57.7034 1229.62 59.4211C1228.91 61.1389 1227.7 62.6071 1226.16 63.6401C1224.61 64.673 1222.79 65.2244 1220.93 65.2244C1218.44 65.2244 1216.05 64.2339 1214.29 62.4709C1212.52 60.708 1211.53 58.3168 1211.53 55.8236" fill="white"/>
</g>
<rect x="0.5" y="0.5" width="73" height="73" transform="matrix(4.37114e-08 1 1 -4.37114e-08 1184 -2.18557e-08)" stroke="black"/>
<g clip-path="url(#clip9)">
<path d="M1460.98 -37.2639C1460.98 -45.3895 1454.39 -51.9762 1446.26 -51.9762C1438.14 -51.9762 1431.55 -45.3895 1431.55 -37.2639C1431.55 -29.1383 1438.14 -22.5516 1446.26 -22.5516C1454.39 -22.5516 1460.98 -29.139 1460.98 -37.2639ZM1435.15 -10.5198C1420.38 -25.2903 1420.38 -49.2375 1435.15 -64.0088L1446.26 -75.1211L1457.38 -64.0088C1472.15 -49.2375 1472.15 -25.2903 1457.38 -10.5198L1446.26 0.591861L1435.15 -10.5198Z" fill="black"/>
<path d="M1406 74L1406 0L1479.89 -3.22967e-06L1479.89 74L1406 74Z" fill="#D7FB03"/>
<path d="M1421.34 36.9996C1421.33 34.1535 1421.89 31.3342 1422.97 28.7048C1424.06 26.0754 1425.66 23.688 1427.68 21.6809C1436.13 13.2353 1449.87 13.2353 1458.32 21.6809C1462.38 25.7438 1464.66 31.254 1464.66 36.9996C1464.66 42.7451 1462.38 48.2554 1458.32 52.3183C1449.87 60.7639 1436.13 60.7639 1427.68 52.3183C1425.66 50.3112 1424.06 47.9238 1422.97 45.2944C1421.89 42.6649 1421.33 39.8456 1421.34 36.9996V36.9996ZM1472.5 36.9996C1472.5 29.12 1469.43 21.7117 1463.86 16.1398C1452.36 4.63829 1433.64 4.63829 1422.14 16.1398C1416.57 21.7117 1413.5 29.12 1413.5 36.9996C1413.5 44.8792 1416.57 52.2874 1422.14 57.8594C1433.64 69.3609 1452.36 69.3609 1463.86 57.8594C1469.43 52.2874 1472.5 44.8792 1472.5 36.9996" fill="black"/>
<path d="M1433.26 36.9993C1433.26 35.0718 1433.83 33.1875 1434.9 31.5846C1435.97 29.9817 1437.49 28.7324 1439.27 27.9946C1441.05 27.2568 1443.01 27.0638 1444.9 27.44C1446.79 27.8161 1448.53 28.7445 1449.89 30.1077C1453.69 33.9071 1453.69 40.0916 1449.89 43.8923C1448.99 44.8 1447.91 45.5196 1446.73 46.0094C1445.55 46.4993 1444.28 46.7497 1443 46.7461C1440.4 46.7461 1437.78 45.558 1435.94 43.7176C1434.04 41.8162 1433.26 39.4955 1433.26 37.0028L1433.26 36.9993ZM1459.42 37.0028C1459.42 33.754 1458.46 30.5775 1456.66 27.8754C1454.85 25.1733 1452.29 23.067 1449.29 21.8232C1446.29 20.5794 1442.98 20.2539 1439.8 20.8881C1436.61 21.5222 1433.68 23.0873 1431.39 25.3854C1424.98 31.7919 1424.98 42.2067 1431.39 48.6132C1433.68 50.9112 1436.61 52.4763 1439.79 53.1106C1442.98 53.7448 1446.28 53.4197 1449.28 52.1762C1452.28 50.9328 1454.85 48.827 1456.65 46.1254C1458.46 43.4237 1459.42 40.2477 1459.42 36.9993" fill="black"/>
<path d="M1441.45 36.9997C1441.45 36.6415 1441.58 36.2946 1441.8 36.018C1442.03 35.7415 1442.35 35.5525 1442.7 35.4831C1443.05 35.4138 1443.42 35.4685 1443.73 35.6378C1444.05 35.8072 1444.29 36.0807 1444.43 36.4119C1444.57 36.743 1444.59 37.1113 1444.48 37.4539C1444.38 37.7966 1444.16 38.0924 1443.86 38.2911C1443.56 38.4897 1443.2 38.5788 1442.85 38.5432C1442.49 38.5077 1442.16 38.3496 1441.9 38.096C1441.76 37.9522 1441.65 37.7813 1441.57 37.5932C1441.49 37.405 1441.45 37.2033 1441.45 36.9997L1441.45 36.9997ZM1448.76 36.9997C1448.76 35.667 1448.3 34.3758 1447.45 33.3459C1446.6 32.316 1445.43 31.6112 1444.12 31.3516C1442.81 31.092 1441.46 31.2936 1440.28 31.9222C1439.11 32.5507 1438.19 33.5673 1437.68 34.7986C1437.17 36.03 1437.1 37.4 1437.49 38.6752C1437.87 39.9503 1438.69 41.0518 1439.8 41.7919C1440.91 42.532 1442.24 42.865 1443.56 42.734C1444.89 42.6031 1446.13 42.0164 1447.07 41.0738C1447.61 40.5394 1448.03 39.9044 1448.32 39.2052C1448.61 38.506 1448.76 37.7565 1448.76 36.9997" fill="black"/>
</g>
<rect x="0.5" y="0.5" width="73" height="73" transform="matrix(4.37114e-08 1 1 -4.37114e-08 1406 -2.18557e-08)" stroke="black"/>
<g clip-path="url(#clip10)">
<path d="M1258 -6.46929e-06L1332 0L1332 73.9808L1258 73.9808L1258 -6.46929e-06Z" fill="#F6331C"/>
<path d="M1282.18 31.8123C1282.18 30.9197 1282.49 30.166 1283.11 29.5512C1283.73 28.9363 1284.48 28.628 1285.37 28.6262C1285.79 28.6212 1286.2 28.7006 1286.59 28.8595C1286.97 29.0185 1287.32 29.2538 1287.61 29.5512C1287.92 29.8421 1288.16 30.1932 1288.32 30.5825C1288.49 30.9717 1288.57 31.3905 1288.56 31.8123C1288.56 32.6802 1288.24 33.4282 1287.61 34.0563C1286.98 34.6844 1286.23 34.9995 1285.37 35.0018C1284.95 35.0093 1284.53 34.9291 1284.14 34.7664C1283.75 34.6036 1283.4 34.3618 1283.11 34.0563C1282.81 33.7637 1282.58 33.4142 1282.42 33.0287C1282.26 32.6431 1282.18 32.2294 1282.18 31.8123ZM1306.56 45.0857C1305.24 47.5789 1303.63 49.4814 1301.71 50.7933C1299.8 52.1052 1297.55 52.7607 1294.98 52.7598C1292.43 52.7598 1290.2 52.1038 1288.27 50.7919C1286.33 49.48 1284.71 47.5766 1283.4 45.0816L1285.88 43.6639C1287.93 47.4439 1290.96 49.3338 1294.98 49.3339C1299 49.3339 1302.04 47.4443 1304.11 43.6653L1306.56 45.0857ZM1301.44 31.8123C1301.44 30.9197 1301.75 30.166 1302.37 29.5512C1302.98 28.9363 1303.74 28.628 1304.63 28.6262C1305.04 28.6212 1305.46 28.7006 1305.84 28.8595C1306.23 29.0185 1306.58 29.2537 1306.87 29.5512C1307.18 29.8422 1307.42 30.1935 1307.58 30.5827C1307.74 30.9719 1307.82 31.3906 1307.82 31.8123C1307.82 32.6802 1307.5 33.4282 1306.87 34.0563C1306.24 34.6844 1305.49 34.9995 1304.63 35.0018C1304.21 35.0093 1303.79 34.9292 1303.4 34.7664C1303.01 34.6037 1302.66 34.3618 1302.37 34.0563C1302.07 33.7639 1301.83 33.4144 1301.67 33.0287C1301.52 32.6431 1301.44 32.2294 1301.44 31.8123V31.8123ZM1269.9 37.0101C1269.9 43.9414 1272.35 49.8548 1277.24 54.7502C1282.14 59.6457 1288.05 62.0938 1294.98 62.0947C1301.91 62.0947 1307.83 59.6466 1312.74 54.7502C1317.65 49.8539 1320.1 43.9405 1320.1 37.0101C1320.1 30.0537 1317.65 24.127 1312.74 19.2302C1307.83 14.3335 1301.91 11.8853 1294.98 11.8857C1288.05 11.8857 1282.14 14.3339 1277.24 19.2302C1272.34 24.1266 1269.9 30.0532 1269.9 37.0101" fill="white"/>
</g>
<rect x="-0.5" y="0.5" width="73" height="73" transform="matrix(-1 -8.74228e-08 -8.74228e-08 1 1331 -4.37114e-08)" stroke="black"/>
<g clip-path="url(#clip11)">
<path d="M1332.05 0.0507748L1406 0.0507812L1406 74.0001L1332.05 74.0001L1332.05 0.0507748Z" fill="#EE93B5"/>
<path d="M1348.22 19.6485C1353.24 14.622 1361.39 14.622 1366.42 19.6485C1366.67 19.8911 1366.88 20.1473 1367.11 20.4022L1368.98 22.2748L1370.95 20.3076C1371.17 20.0514 1371.39 19.7951 1371.63 19.5539C1376.66 14.5261 1384.81 14.5261 1389.84 19.5553C1394.86 24.5846 1394.86 32.7335 1389.84 37.7621L1369.41 58.0798C1369.29 58.199 1369.13 58.2659 1368.96 58.2659C1368.79 58.2659 1368.63 58.199 1368.51 58.0798C1368.51 58.0798 1348.46 38.0964 1348.22 37.8552C1343.19 32.828 1343.19 24.6771 1348.22 19.6485Z" fill="white"/>
</g>
<rect x="-0.5" y="0.5" width="73" height="73" transform="matrix(-1 -8.74228e-08 -8.74228e-08 1 1405 -4.37114e-08)" stroke="black"/>
<g clip-path="url(#clip12)">
<path d="M1183.89 0.112541L1183.89 73.8857L1110.11 73.8857L1110.11 0.11254L1183.89 0.112541Z" fill="black"/>
<path d="M1124.3 32.7903L1130.41 38.8994L1146.97 22.3385L1163.53 38.8994L1169.64 32.7903L1146.97 10.1203L1124.3 32.7903Z" fill="white"/>
<path d="M1124.3 57.9983L1130.41 64.1074L1146.97 47.5465L1163.53 64.1074L1169.64 57.9983L1146.97 35.3283L1124.3 57.9983Z" fill="white"/>
</g>
<rect x="-0.5" y="-0.5" width="73" height="73" transform="matrix(1.19249e-08 -1 -1 -1.19249e-08 1183 73)" stroke="black"/>
<g clip-path="url(#clip13)">
<path d="M962 -6.46929e-06L1036 0L1036 74L962 74L962 -6.46929e-06Z" fill="#0063E2"/>
<path d="M974.312 28.5244L1021.97 28.5244L1021.97 62.4671L974.312 62.4671L974.312 28.5244Z" fill="white"/>
<path d="M974.313 28.5247L1021.97 28.5247L998.143 10.4111L974.313 28.5247Z" fill="white"/>
</g>
<rect x="-0.5" y="0.5" width="73" height="73" transform="matrix(-1 -8.74228e-08 -8.74228e-08 1 1035 -4.37114e-08)" stroke="black"/>
<g clip-path="url(#clip14)">
<path d="M888 74.0192L888 0L962 -3.23464e-06L962 74.0192L888 74.0192Z" fill="#F6331C"/>
<path d="M926.114 42.7871C926.114 89.0042 978.11 37.0103 931.891 37.0103C978.11 37.0103 926.114 -14.9857 926.114 31.2321C926.114 -14.9857 874.12 37.0103 920.337 37.0103C874.12 37.0103 926.114 89.0042 926.114 42.7871Z" fill="white"/>
</g>
<rect x="0.5" y="0.5" width="73" height="73" transform="matrix(4.37114e-08 1 1 -4.37114e-08 888 -2.18557e-08)" stroke="black"/>
<g clip-path="url(#clip15)">
<path d="M814 74L814 0L887.886 -3.22967e-06L887.886 74L814 74Z" fill="black"/>
<path d="M861.544 27.6281L861.544 9.1123L880.059 9.1123L880.059 27.6281L861.544 27.6281Z" fill="white"/>
<path d="M843.028 46.1446L843.028 27.6289L861.544 27.6289L861.544 46.1446L843.028 46.1446Z" fill="white"/>
<path d="M824.511 64.6613L824.511 46.1455L843.027 46.1455L843.027 64.6613L824.511 64.6613Z" fill="white"/>
</g>
<rect x="0.5" y="0.5" width="73" height="73" transform="matrix(4.37114e-08 1 1 -4.37114e-08 814 -2.18557e-08)" stroke="black"/>
<rect x="0.498918" y="0.501075" width="72.8408" height="72.8409" transform="matrix(0.999998 0.00215221 -0.0021615 0.999998 740.161 -0.00107261)" fill="#EE93B5" stroke="black"/>
<path d="M791.851 32.0631L760.176 68.2245L751.579 57.6235L782.957 21.4331L783.674 20.6056L782.579 20.6056L749.5 20.6056L749.5 5.6377L805.377 5.6377L805.377 68.5001L792.727 68.5001L792.727 32.3926L792.727 31.0629L791.851 32.0631Z" fill="white" stroke="black"/>
<path d="M1846 0L1772 0V74L1846 74V0Z" fill="#D7FB03"/>
<path d="M1816.39 38.1617V37.1935C1816.39 30.0902 1813 25.7317 1807.76 25.7317C1802.52 25.7317 1799.28 30.0902 1799.28 37.1935V38.1617C1799.28 45.2643 1802.51 49.6255 1807.76 49.6255C1813 49.6255 1816.39 45.267 1816.39 38.1644L1816.39 38.1617ZM1772 38.0006V36.0629C1772 13.9472 1785.72 0.223633 1808 0.223633L1809.77 0.223633C1830.03 0.223633 1843.51 13.7862 1843.51 33.9649V39.9377C1843.51 51.237 1838.91 57.8559 1829.63 57.8559H1824.95C1819.86 57.8559 1817.12 55.6764 1817.12 52.2066V52.0442H1815.67C1814.3 55.5153 1811.55 58.3404 1805.66 58.3404C1795.49 58.3404 1789.27 49.4617 1789.27 38.3234V37.0325C1789.27 25.7317 1795.33 17.0148 1804.85 17.0148C1810.82 17.0148 1813.24 19.5164 1814.94 22.3428H1816.39V17.4985H1826.24V46.0707C1826.24 47.9276 1826.88 48.8163 1828.74 48.8163H1829.06C1832.21 48.8163 1833.5 45.8296 1833.5 39.937V34.1259C1833.5 18.7908 1825.67 9.42773 1809.45 9.42773H1808.32C1792.02 9.42773 1782.01 18.7908 1782.01 36.3863V37.6772C1782.01 55.2735 1792.18 64.7969 1809.61 64.7969L1826.4 64.7969V73.9989L1808.97 73.9989C1785.88 73.9989 1772 60.1164 1772 38.0006" fill="black"/>
<rect x="1772.5" y="0.5" width="73" height="73" stroke="black"/>
<g clip-path="url(#clip16)">
<path d="M1920 74L1920 0L1994 -3.23464e-06L1994 74L1920 74Z" fill="#0063E2"/>
<path d="M1947.66 18.1771C1947.66 16.3178 1948.21 14.5003 1949.25 12.9543C1950.28 11.4084 1951.75 10.2035 1953.47 9.49196C1955.18 8.78044 1957.07 8.59427 1958.9 8.957C1960.72 9.31973 1962.4 10.2151 1963.71 11.5298C1965.03 12.8445 1965.92 14.5196 1966.28 16.3431C1966.65 18.1667 1966.46 20.0569 1965.75 21.7746C1965.04 23.4924 1963.83 24.9606 1962.29 25.9935C1960.74 27.0265 1958.92 27.5779 1957.06 27.5779C1954.57 27.5777 1952.18 26.5872 1950.42 24.8242C1948.65 23.0613 1947.66 20.6703 1947.66 18.1771" fill="white"/>
<path d="M1928.77 37.0638C1928.77 35.2045 1929.32 33.387 1930.35 31.8411C1931.39 30.2951 1932.86 29.0902 1934.57 28.3787C1936.29 27.6672 1938.18 27.481 1940 27.8437C1941.83 28.2065 1943.5 29.1018 1944.82 30.4165C1946.13 31.7312 1947.03 33.4063 1947.39 35.2298C1947.75 37.0534 1947.57 38.9436 1946.86 40.6613C1946.14 42.3791 1944.94 43.8473 1943.39 44.8802C1941.85 45.9132 1940.03 46.4645 1938.17 46.4645C1935.68 46.4645 1933.29 45.4741 1931.52 43.7111C1929.76 41.9482 1928.77 39.557 1928.77 37.0638Z" fill="white"/>
<path d="M1966.42 36.9369C1966.42 35.0776 1966.98 33.2601 1968.01 31.7141C1969.04 30.1682 1970.51 28.9632 1972.23 28.2517C1973.94 27.5402 1975.84 27.354 1977.66 27.7168C1979.48 28.0795 1981.16 28.9748 1982.47 30.2895C1983.79 31.6043 1984.68 33.2793 1985.04 35.1029C1985.41 36.9264 1985.22 38.8166 1984.51 40.5344C1983.8 42.2521 1982.59 43.7203 1981.05 44.7533C1979.5 45.7863 1977.68 46.3376 1975.82 46.3376C1973.33 46.3374 1970.94 45.3469 1969.18 43.584C1967.41 41.8211 1966.42 39.4301 1966.42 36.9369" fill="white"/>
<path d="M1947.53 55.8236C1947.53 53.9643 1948.09 52.1468 1949.12 50.6008C1950.15 49.0549 1951.62 47.85 1953.34 47.1384C1955.05 46.4269 1956.95 46.2408 1958.77 46.6035C1960.59 46.9662 1962.27 47.8616 1963.58 49.1763C1964.9 50.491 1965.79 52.166 1966.15 53.9896C1966.52 55.8132 1966.33 57.7034 1965.62 59.4211C1964.91 61.1389 1963.7 62.6071 1962.16 63.6401C1960.61 64.673 1958.79 65.2244 1956.93 65.2244C1954.44 65.2244 1952.05 64.2339 1950.29 62.4709C1948.52 60.708 1947.53 58.3168 1947.53 55.8236" fill="white"/>
</g>
<rect x="0.5" y="0.5" width="73" height="73" transform="matrix(4.37114e-08 1 1 -4.37114e-08 1920 -2.18557e-08)" stroke="black"/>
<g clip-path="url(#clip17)">
<path d="M2196.98 -37.2639C2196.98 -45.3895 2190.39 -51.9762 2182.26 -51.9762C2174.14 -51.9762 2167.55 -45.3895 2167.55 -37.2639C2167.55 -29.1383 2174.14 -22.5516 2182.26 -22.5516C2190.39 -22.5516 2196.98 -29.139 2196.98 -37.2639ZM2171.15 -10.5198C2156.38 -25.2903 2156.38 -49.2375 2171.15 -64.0088L2182.26 -75.1211L2193.38 -64.0088C2208.15 -49.2375 2208.15 -25.2903 2193.38 -10.5198L2182.26 0.591861L2171.15 -10.5198Z" fill="black"/>
<path d="M2142 74L2142 0L2215.89 -3.22967e-06L2215.89 74L2142 74Z" fill="#D7FB03"/>
<path d="M2157.34 36.9996C2157.33 34.1535 2157.89 31.3342 2158.97 28.7048C2160.06 26.0754 2161.66 23.688 2163.68 21.6809C2172.13 13.2353 2185.87 13.2353 2194.32 21.6809C2198.38 25.7438 2200.66 31.254 2200.66 36.9996C2200.66 42.7451 2198.38 48.2554 2194.32 52.3183C2185.87 60.7639 2172.13 60.7639 2163.68 52.3183C2161.66 50.3112 2160.06 47.9238 2158.97 45.2944C2157.89 42.6649 2157.33 39.8456 2157.34 36.9996V36.9996ZM2208.5 36.9996C2208.5 29.12 2205.43 21.7117 2199.86 16.1398C2188.36 4.63829 2169.64 4.63829 2158.14 16.1398C2152.57 21.7117 2149.5 29.12 2149.5 36.9996C2149.5 44.8792 2152.57 52.2874 2158.14 57.8594C2169.64 69.3609 2188.36 69.3609 2199.86 57.8594C2205.43 52.2874 2208.5 44.8792 2208.5 36.9996" fill="black"/>
<path d="M2169.26 36.9993C2169.26 35.0718 2169.83 33.1875 2170.9 31.5846C2171.97 29.9817 2173.49 28.7324 2175.27 27.9946C2177.05 27.2568 2179.01 27.0638 2180.9 27.44C2182.79 27.8161 2184.53 28.7445 2185.89 30.1077C2189.69 33.9071 2189.69 40.0916 2185.89 43.8923C2184.99 44.8 2183.91 45.5196 2182.73 46.0094C2181.55 46.4993 2180.28 46.7497 2179 46.7461C2176.4 46.7461 2173.78 45.558 2171.94 43.7176C2170.04 41.8162 2169.26 39.4955 2169.26 37.0028L2169.26 36.9993ZM2195.42 37.0028C2195.42 33.754 2194.46 30.5775 2192.66 27.8754C2190.85 25.1733 2188.29 23.067 2185.29 21.8232C2182.29 20.5794 2178.98 20.2539 2175.8 20.8881C2172.61 21.5222 2169.68 23.0873 2167.39 25.3854C2160.98 31.7919 2160.98 42.2067 2167.39 48.6132C2169.68 50.9112 2172.61 52.4763 2175.79 53.1106C2178.98 53.7448 2182.28 53.4197 2185.28 52.1762C2188.28 50.9328 2190.85 48.827 2192.65 46.1254C2194.46 43.4237 2195.42 40.2477 2195.42 36.9993" fill="black"/>
<path d="M2177.45 36.9997C2177.45 36.6415 2177.58 36.2946 2177.8 36.018C2178.03 35.7415 2178.35 35.5525 2178.7 35.4831C2179.05 35.4138 2179.42 35.4685 2179.73 35.6378C2180.05 35.8072 2180.29 36.0807 2180.43 36.4119C2180.57 36.743 2180.59 37.1113 2180.48 37.4539C2180.38 37.7966 2180.16 38.0924 2179.86 38.2911C2179.56 38.4897 2179.2 38.5788 2178.85 38.5432C2178.49 38.5077 2178.16 38.3496 2177.9 38.096C2177.76 37.9522 2177.65 37.7813 2177.57 37.5932C2177.49 37.405 2177.45 37.2033 2177.45 36.9997L2177.45 36.9997ZM2184.76 36.9997C2184.76 35.667 2184.3 34.3758 2183.45 33.3459C2182.6 32.316 2181.43 31.6112 2180.12 31.3516C2178.81 31.092 2177.46 31.2936 2176.28 31.9222C2175.11 32.5507 2174.19 33.5673 2173.68 34.7986C2173.17 36.03 2173.1 37.4 2173.49 38.6752C2173.87 39.9503 2174.69 41.0518 2175.8 41.7919C2176.91 42.532 2178.24 42.865 2179.56 42.734C2180.89 42.6031 2182.13 42.0164 2183.07 41.0738C2183.61 40.5394 2184.03 39.9044 2184.32 39.2052C2184.61 38.506 2184.76 37.7565 2184.76 36.9997" fill="black"/>
</g>
<rect x="0.5" y="0.5" width="73" height="73" transform="matrix(4.37114e-08 1 1 -4.37114e-08 2142 -2.18557e-08)" stroke="black"/>
<g clip-path="url(#clip18)">
<path d="M1994 -6.46929e-06L2068 0L2068 73.9808L1994 73.9808L1994 -6.46929e-06Z" fill="#F6331C"/>
<path d="M2018.18 31.8123C2018.18 30.9197 2018.49 30.166 2019.11 29.5512C2019.73 28.9363 2020.48 28.628 2021.37 28.6262C2021.79 28.6212 2022.2 28.7006 2022.59 28.8595C2022.97 29.0185 2023.32 29.2538 2023.61 29.5512C2023.92 29.8421 2024.16 30.1932 2024.32 30.5825C2024.49 30.9717 2024.57 31.3905 2024.56 31.8123C2024.56 32.6802 2024.24 33.4282 2023.61 34.0563C2022.98 34.6844 2022.23 34.9995 2021.37 35.0018C2020.95 35.0093 2020.53 34.9291 2020.14 34.7664C2019.75 34.6036 2019.4 34.3618 2019.11 34.0563C2018.81 33.7637 2018.58 33.4142 2018.42 33.0287C2018.26 32.6431 2018.18 32.2294 2018.18 31.8123ZM2042.56 45.0857C2041.24 47.5789 2039.63 49.4814 2037.71 50.7933C2035.8 52.1052 2033.55 52.7607 2030.98 52.7598C2028.43 52.7598 2026.2 52.1038 2024.27 50.7919C2022.33 49.48 2020.71 47.5766 2019.4 45.0816L2021.88 43.6639C2023.93 47.4439 2026.96 49.3338 2030.98 49.3339C2035 49.3339 2038.04 47.4443 2040.11 43.6653L2042.56 45.0857ZM2037.44 31.8123C2037.44 30.9197 2037.75 30.166 2038.37 29.5512C2038.98 28.9363 2039.74 28.628 2040.63 28.6262C2041.04 28.6212 2041.46 28.7006 2041.84 28.8595C2042.23 29.0185 2042.58 29.2537 2042.87 29.5512C2043.18 29.8422 2043.42 30.1935 2043.58 30.5827C2043.74 30.9719 2043.82 31.3906 2043.82 31.8123C2043.82 32.6802 2043.5 33.4282 2042.87 34.0563C2042.24 34.6844 2041.49 34.9995 2040.63 35.0018C2040.21 35.0093 2039.79 34.9292 2039.4 34.7664C2039.01 34.6037 2038.66 34.3618 2038.37 34.0563C2038.07 33.7639 2037.83 33.4144 2037.67 33.0287C2037.52 32.6431 2037.44 32.2294 2037.44 31.8123V31.8123ZM2005.9 37.0101C2005.9 43.9414 2008.35 49.8548 2013.24 54.7502C2018.14 59.6457 2024.05 62.0938 2030.98 62.0947C2037.91 62.0947 2043.83 59.6466 2048.74 54.7502C2053.65 49.8539 2056.1 43.9405 2056.1 37.0101C2056.1 30.0537 2053.65 24.127 2048.74 19.2302C2043.83 14.3335 2037.91 11.8853 2030.98 11.8857C2024.05 11.8857 2018.14 14.3339 2013.24 19.2302C2008.34 24.1266 2005.9 30.0532 2005.9 37.0101" fill="white"/>
</g>
<rect x="-0.5" y="0.5" width="73" height="73" transform="matrix(-1 -8.74228e-08 -8.74228e-08 1 2067 -4.37114e-08)" stroke="black"/>
<g clip-path="url(#clip19)">
<path d="M2068.05 0.0507748L2142 0.0507812L2142 74.0001L2068.05 74.0001L2068.05 0.0507748Z" fill="#EE93B5"/>
<path d="M2084.22 19.6485C2089.24 14.622 2097.39 14.622 2102.42 19.6485C2102.67 19.8911 2102.88 20.1473 2103.11 20.4022L2104.98 22.2748L2106.95 20.3076C2107.17 20.0514 2107.39 19.7951 2107.63 19.5539C2112.66 14.5261 2120.81 14.5261 2125.84 19.5553C2130.86 24.5846 2130.86 32.7335 2125.84 37.7621L2105.41 58.0798C2105.29 58.199 2105.13 58.2659 2104.96 58.2659C2104.79 58.2659 2104.63 58.199 2104.51 58.0798C2104.51 58.0798 2084.46 38.0964 2084.22 37.8552C2079.19 32.828 2079.19 24.6771 2084.22 19.6485Z" fill="white"/>
</g>
<rect x="-0.5" y="0.5" width="73" height="73" transform="matrix(-1 -8.74228e-08 -8.74228e-08 1 2141 -4.37114e-08)" stroke="black"/>
<g clip-path="url(#clip20)">
<path d="M1919.89 0.112541L1919.89 73.8857L1846.11 73.8857L1846.11 0.11254L1919.89 0.112541Z" fill="black"/>
<path d="M1860.3 32.7903L1866.41 38.8994L1882.97 22.3385L1899.53 38.8994L1905.64 32.7903L1882.97 10.1203L1860.3 32.7903Z" fill="white"/>
<path d="M1860.3 57.9983L1866.41 64.1074L1882.97 47.5465L1899.53 64.1074L1905.64 57.9983L1882.97 35.3283L1860.3 57.9983Z" fill="white"/>
</g>
<rect x="-0.5" y="-0.5" width="73" height="73" transform="matrix(1.19249e-08 -1 -1 -1.19249e-08 1919 73)" stroke="black"/>
<g clip-path="url(#clip21)">
<path d="M1698 -6.46929e-06L1772 0L1772 74L1698 74L1698 -6.46929e-06Z" fill="#0063E2"/>
<path d="M1710.31 28.5244L1757.97 28.5244L1757.97 62.4671L1710.31 62.4671L1710.31 28.5244Z" fill="white"/>
<path d="M1710.31 28.5247L1757.97 28.5247L1734.14 10.4111L1710.31 28.5247Z" fill="white"/>
</g>
<rect x="-0.5" y="0.5" width="73" height="73" transform="matrix(-1 -8.74228e-08 -8.74228e-08 1 1771 -4.37114e-08)" stroke="black"/>
<g clip-path="url(#clip22)">
<path d="M1624 74.0192L1624 0L1698 -3.23464e-06L1698 74.0192L1624 74.0192Z" fill="#F6331C"/>
<path d="M1662.11 42.7871C1662.11 89.0042 1714.11 37.0103 1667.89 37.0103C1714.11 37.0103 1662.11 -14.9857 1662.11 31.2321C1662.11 -14.9857 1610.12 37.0103 1656.34 37.0103C1610.12 37.0103 1662.11 89.0042 1662.11 42.7871Z" fill="white"/>
</g>
<rect x="0.5" y="0.5" width="73" height="73" transform="matrix(4.37114e-08 1 1 -4.37114e-08 1624 -2.18557e-08)" stroke="black"/>
<g clip-path="url(#clip23)">
<path d="M1550 74L1550 0L1623.89 -3.22967e-06L1623.89 74L1550 74Z" fill="black"/>
<path d="M1597.54 27.6281L1597.54 9.1123L1616.06 9.1123L1616.06 27.6281L1597.54 27.6281Z" fill="white"/>
<path d="M1579.03 46.1446L1579.03 27.6289L1597.54 27.6289L1597.54 46.1446L1579.03 46.1446Z" fill="white"/>
<path d="M1560.51 64.6613L1560.51 46.1455L1579.03 46.1455L1579.03 64.6613L1560.51 64.6613Z" fill="white"/>
</g>
<rect x="0.5" y="0.5" width="73" height="73" transform="matrix(4.37114e-08 1 1 -4.37114e-08 1550 -2.18557e-08)" stroke="black"/>
<rect x="0.498918" y="0.501075" width="72.8408" height="72.8409" transform="matrix(0.999998 0.00215221 -0.0021615 0.999998 1476.16 -0.00107261)" fill="#EE93B5" stroke="black"/>
<path d="M1527.85 32.0631L1496.18 68.2245L1487.58 57.6235L1518.96 21.4331L1519.67 20.6056L1518.58 20.6056L1485.5 20.6056L1485.5 5.6377L1541.38 5.6377L1541.38 68.5001L1528.73 68.5001L1528.73 32.3926L1528.73 31.0629L1527.85 32.0631Z" fill="white" stroke="black"/>
<path d="M2586 0L2512 0V74L2586 74V0Z" fill="#D7FB03"/>
<path d="M2556.39 38.1617V37.1935C2556.39 30.0902 2553 25.7317 2547.76 25.7317C2542.52 25.7317 2539.28 30.0902 2539.28 37.1935V38.1617C2539.28 45.2643 2542.51 49.6255 2547.76 49.6255C2553 49.6255 2556.39 45.267 2556.39 38.1644L2556.39 38.1617ZM2512 38.0006V36.0629C2512 13.9472 2525.72 0.223633 2548 0.223633L2549.77 0.223633C2570.03 0.223633 2583.51 13.7862 2583.51 33.9649V39.9377C2583.51 51.237 2578.91 57.8559 2569.63 57.8559H2564.95C2559.86 57.8559 2557.12 55.6764 2557.12 52.2066V52.0442H2555.67C2554.3 55.5153 2551.55 58.3404 2545.66 58.3404C2535.49 58.3404 2529.27 49.4617 2529.27 38.3234V37.0325C2529.27 25.7317 2535.33 17.0148 2544.85 17.0148C2550.82 17.0148 2553.24 19.5164 2554.94 22.3428H2556.39V17.4985H2566.24V46.0707C2566.24 47.9276 2566.88 48.8163 2568.74 48.8163H2569.06C2572.21 48.8163 2573.5 45.8296 2573.5 39.937V34.1259C2573.5 18.7908 2565.67 9.42773 2549.45 9.42773H2548.32C2532.02 9.42773 2522.01 18.7908 2522.01 36.3863V37.6772C2522.01 55.2735 2532.18 64.7969 2549.61 64.7969L2566.4 64.7969V73.9989L2548.97 73.9989C2525.88 73.9989 2512 60.1164 2512 38.0006" fill="black"/>
<rect x="2512.5" y="0.5" width="73" height="73" stroke="black"/>
<g clip-path="url(#clip24)">
<path d="M2660 74L2660 0L2734 -3.23464e-06L2734 74L2660 74Z" fill="#0063E2"/>
<path d="M2687.66 18.1771C2687.66 16.3178 2688.21 14.5003 2689.25 12.9543C2690.28 11.4084 2691.75 10.2035 2693.47 9.49196C2695.18 8.78044 2697.07 8.59427 2698.9 8.957C2700.72 9.31973 2702.4 10.2151 2703.71 11.5298C2705.03 12.8445 2705.92 14.5196 2706.28 16.3431C2706.65 18.1667 2706.46 20.0569 2705.75 21.7746C2705.04 23.4924 2703.83 24.9606 2702.29 25.9935C2700.74 27.0265 2698.92 27.5779 2697.06 27.5779C2694.57 27.5777 2692.18 26.5872 2690.42 24.8242C2688.65 23.0613 2687.66 20.6703 2687.66 18.1771" fill="white"/>
<path d="M2668.77 37.0638C2668.77 35.2045 2669.32 33.387 2670.35 31.8411C2671.39 30.2951 2672.86 29.0902 2674.57 28.3787C2676.29 27.6672 2678.18 27.481 2680 27.8437C2681.83 28.2065 2683.5 29.1018 2684.82 30.4165C2686.13 31.7312 2687.03 33.4063 2687.39 35.2298C2687.75 37.0534 2687.57 38.9436 2686.86 40.6613C2686.14 42.3791 2684.94 43.8473 2683.39 44.8802C2681.85 45.9132 2680.03 46.4645 2678.17 46.4645C2675.68 46.4645 2673.29 45.4741 2671.52 43.7111C2669.76 41.9482 2668.77 39.557 2668.77 37.0638Z" fill="white"/>
<path d="M2706.42 36.9369C2706.42 35.0776 2706.98 33.2601 2708.01 31.7141C2709.04 30.1682 2710.51 28.9632 2712.23 28.2517C2713.94 27.5402 2715.84 27.354 2717.66 27.7168C2719.48 28.0795 2721.16 28.9748 2722.47 30.2895C2723.79 31.6043 2724.68 33.2793 2725.04 35.1029C2725.41 36.9264 2725.22 38.8166 2724.51 40.5344C2723.8 42.2521 2722.59 43.7203 2721.05 44.7533C2719.5 45.7863 2717.68 46.3376 2715.82 46.3376C2713.33 46.3374 2710.94 45.3469 2709.18 43.584C2707.41 41.8211 2706.42 39.4301 2706.42 36.9369" fill="white"/>
<path d="M2687.53 55.8236C2687.53 53.9643 2688.09 52.1468 2689.12 50.6008C2690.15 49.0549 2691.62 47.85 2693.34 47.1384C2695.05 46.4269 2696.95 46.2408 2698.77 46.6035C2700.59 46.9662 2702.27 47.8616 2703.58 49.1763C2704.9 50.491 2705.79 52.166 2706.15 53.9896C2706.52 55.8132 2706.33 57.7034 2705.62 59.4211C2704.91 61.1389 2703.7 62.6071 2702.16 63.6401C2700.61 64.673 2698.79 65.2244 2696.93 65.2244C2694.44 65.2244 2692.05 64.2339 2690.29 62.4709C2688.52 60.708 2687.53 58.3168 2687.53 55.8236" fill="white"/>
</g>
<rect x="0.5" y="0.5" width="73" height="73" transform="matrix(4.37114e-08 1 1 -4.37114e-08 2660 -2.18557e-08)" stroke="black"/>
<g clip-path="url(#clip25)">
<path d="M2936.98 -37.2639C2936.98 -45.3895 2930.39 -51.9762 2922.26 -51.9762C2914.14 -51.9762 2907.55 -45.3895 2907.55 -37.2639C2907.55 -29.1383 2914.14 -22.5516 2922.26 -22.5516C2930.39 -22.5516 2936.98 -29.139 2936.98 -37.2639ZM2911.15 -10.5198C2896.38 -25.2903 2896.38 -49.2375 2911.15 -64.0088L2922.26 -75.1211L2933.38 -64.0088C2948.15 -49.2375 2948.15 -25.2903 2933.38 -10.5198L2922.26 0.591861L2911.15 -10.5198Z" fill="black"/>
<path d="M2882 74L2882 0L2955.89 -3.22967e-06L2955.89 74L2882 74Z" fill="#D7FB03"/>
<path d="M2897.34 36.9996C2897.33 34.1535 2897.89 31.3342 2898.97 28.7048C2900.06 26.0754 2901.66 23.688 2903.68 21.6809C2912.13 13.2353 2925.87 13.2353 2934.32 21.6809C2938.38 25.7438 2940.66 31.254 2940.66 36.9996C2940.66 42.7451 2938.38 48.2554 2934.32 52.3183C2925.87 60.7639 2912.13 60.7639 2903.68 52.3183C2901.66 50.3112 2900.06 47.9238 2898.97 45.2944C2897.89 42.6649 2897.33 39.8456 2897.34 36.9996V36.9996ZM2948.5 36.9996C2948.5 29.12 2945.43 21.7117 2939.86 16.1398C2928.36 4.63829 2909.64 4.63829 2898.14 16.1398C2892.57 21.7117 2889.5 29.12 2889.5 36.9996C2889.5 44.8792 2892.57 52.2874 2898.14 57.8594C2909.64 69.3609 2928.36 69.3609 2939.86 57.8594C2945.43 52.2874 2948.5 44.8792 2948.5 36.9996" fill="black"/>
<path d="M2909.26 36.9993C2909.26 35.0718 2909.83 33.1875 2910.9 31.5846C2911.97 29.9817 2913.49 28.7324 2915.27 27.9946C2917.05 27.2568 2919.01 27.0638 2920.9 27.44C2922.79 27.8161 2924.53 28.7445 2925.89 30.1077C2929.69 33.9071 2929.69 40.0916 2925.89 43.8923C2924.99 44.8 2923.91 45.5196 2922.73 46.0094C2921.55 46.4993 2920.28 46.7497 2919 46.7461C2916.4 46.7461 2913.78 45.558 2911.94 43.7176C2910.04 41.8162 2909.26 39.4955 2909.26 37.0028L2909.26 36.9993ZM2935.42 37.0028C2935.42 33.754 2934.46 30.5775 2932.66 27.8754C2930.85 25.1733 2928.29 23.067 2925.29 21.8232C2922.29 20.5794 2918.98 20.2539 2915.8 20.8881C2912.61 21.5222 2909.68 23.0873 2907.39 25.3854C2900.98 31.7919 2900.98 42.2067 2907.39 48.6132C2909.68 50.9112 2912.61 52.4763 2915.79 53.1106C2918.98 53.7448 2922.28 53.4197 2925.28 52.1762C2928.28 50.9328 2930.85 48.827 2932.65 46.1254C2934.46 43.4237 2935.42 40.2477 2935.42 36.9993" fill="black"/>
<path d="M2917.45 36.9997C2917.45 36.6415 2917.58 36.2946 2917.8 36.018C2918.03 35.7415 2918.35 35.5525 2918.7 35.4831C2919.05 35.4138 2919.42 35.4685 2919.73 35.6378C2920.05 35.8072 2920.29 36.0807 2920.43 36.4119C2920.57 36.743 2920.59 37.1113 2920.48 37.4539C2920.38 37.7966 2920.16 38.0924 2919.86 38.2911C2919.56 38.4897 2919.2 38.5788 2918.85 38.5432C2918.49 38.5077 2918.16 38.3496 2917.9 38.096C2917.76 37.9522 2917.65 37.7813 2917.57 37.5932C2917.49 37.405 2917.45 37.2033 2917.45 36.9997L2917.45 36.9997ZM2924.76 36.9997C2924.76 35.667 2924.3 34.3758 2923.45 33.3459C2922.6 32.316 2921.43 31.6112 2920.12 31.3516C2918.81 31.092 2917.46 31.2936 2916.28 31.9222C2915.11 32.5507 2914.19 33.5673 2913.68 34.7986C2913.17 36.03 2913.1 37.4 2913.49 38.6752C2913.87 39.9503 2914.69 41.0518 2915.8 41.7919C2916.91 42.532 2918.24 42.865 2919.56 42.734C2920.89 42.6031 2922.13 42.0164 2923.07 41.0738C2923.61 40.5394 2924.03 39.9044 2924.32 39.2052C2924.61 38.506 2924.76 37.7565 2924.76 36.9997" fill="black"/>
</g>
<rect x="0.5" y="0.5" width="73" height="73" transform="matrix(4.37114e-08 1 1 -4.37114e-08 2882 -2.18557e-08)" stroke="black"/>
<g clip-path="url(#clip26)">
<path d="M2734 -6.46929e-06L2808 0L2808 73.9808L2734 73.9808L2734 -6.46929e-06Z" fill="#F6331C"/>
<path d="M2758.18 31.8123C2758.18 30.9197 2758.49 30.166 2759.11 29.5512C2759.73 28.9363 2760.48 28.628 2761.37 28.6262C2761.79 28.6212 2762.2 28.7006 2762.59 28.8595C2762.97 29.0185 2763.32 29.2538 2763.61 29.5512C2763.92 29.8421 2764.16 30.1932 2764.32 30.5825C2764.49 30.9717 2764.57 31.3905 2764.56 31.8123C2764.56 32.6802 2764.24 33.4282 2763.61 34.0563C2762.98 34.6844 2762.23 34.9995 2761.37 35.0018C2760.95 35.0093 2760.53 34.9291 2760.14 34.7664C2759.75 34.6036 2759.4 34.3618 2759.11 34.0563C2758.81 33.7637 2758.58 33.4142 2758.42 33.0287C2758.26 32.6431 2758.18 32.2294 2758.18 31.8123ZM2782.56 45.0857C2781.24 47.5789 2779.63 49.4814 2777.71 50.7933C2775.8 52.1052 2773.55 52.7607 2770.98 52.7598C2768.43 52.7598 2766.2 52.1038 2764.27 50.7919C2762.33 49.48 2760.71 47.5766 2759.4 45.0816L2761.88 43.6639C2763.93 47.4439 2766.96 49.3338 2770.98 49.3339C2775 49.3339 2778.04 47.4443 2780.11 43.6653L2782.56 45.0857ZM2777.44 31.8123C2777.44 30.9197 2777.75 30.166 2778.37 29.5512C2778.98 28.9363 2779.74 28.628 2780.63 28.6262C2781.04 28.6212 2781.46 28.7006 2781.84 28.8595C2782.23 29.0185 2782.58 29.2537 2782.87 29.5512C2783.18 29.8422 2783.42 30.1935 2783.58 30.5827C2783.74 30.9719 2783.82 31.3906 2783.82 31.8123C2783.82 32.6802 2783.5 33.4282 2782.87 34.0563C2782.24 34.6844 2781.49 34.9995 2780.63 35.0018C2780.21 35.0093 2779.79 34.9292 2779.4 34.7664C2779.01 34.6037 2778.66 34.3618 2778.37 34.0563C2778.07 33.7639 2777.83 33.4144 2777.67 33.0287C2777.52 32.6431 2777.44 32.2294 2777.44 31.8123V31.8123ZM2745.9 37.0101C2745.9 43.9414 2748.35 49.8548 2753.24 54.7502C2758.14 59.6457 2764.05 62.0938 2770.98 62.0947C2777.91 62.0947 2783.83 59.6466 2788.74 54.7502C2793.65 49.8539 2796.1 43.9405 2796.1 37.0101C2796.1 30.0537 2793.65 24.127 2788.74 19.2302C2783.83 14.3335 2777.91 11.8853 2770.98 11.8857C2764.05 11.8857 2758.14 14.3339 2753.24 19.2302C2748.34 24.1266 2745.9 30.0532 2745.9 37.0101" fill="white"/>
</g>
<rect x="-0.5" y="0.5" width="73" height="73" transform="matrix(-1 -8.74228e-08 -8.74228e-08 1 2807 -4.37114e-08)" stroke="black"/>
<g clip-path="url(#clip27)">
<path d="M2808.05 0.0507748L2882 0.0507812L2882 74.0001L2808.05 74.0001L2808.05 0.0507748Z" fill="#EE93B5"/>
<path d="M2824.22 19.6485C2829.24 14.622 2837.39 14.622 2842.42 19.6485C2842.67 19.8911 2842.88 20.1473 2843.11 20.4022L2844.98 22.2748L2846.95 20.3076C2847.17 20.0514 2847.39 19.7951 2847.63 19.5539C2852.66 14.5261 2860.81 14.5261 2865.84 19.5553C2870.86 24.5846 2870.86 32.7335 2865.84 37.7621L2845.41 58.0798C2845.29 58.199 2845.13 58.2659 2844.96 58.2659C2844.79 58.2659 2844.63 58.199 2844.51 58.0798C2844.51 58.0798 2824.46 38.0964 2824.22 37.8552C2819.19 32.828 2819.19 24.6771 2824.22 19.6485Z" fill="white"/>
</g>
<rect x="-0.5" y="0.5" width="73" height="73" transform="matrix(-1 -8.74228e-08 -8.74228e-08 1 2881 -4.37114e-08)" stroke="black"/>
<g clip-path="url(#clip28)">
<path d="M2659.89 0.112541L2659.89 73.8857L2586.11 73.8857L2586.11 0.11254L2659.89 0.112541Z" fill="black"/>
<path d="M2600.3 32.7903L2606.41 38.8994L2622.97 22.3385L2639.53 38.8994L2645.64 32.7903L2622.97 10.1203L2600.3 32.7903Z" fill="white"/>
<path d="M2600.3 57.9983L2606.41 64.1074L2622.97 47.5465L2639.53 64.1074L2645.64 57.9983L2622.97 35.3283L2600.3 57.9983Z" fill="white"/>
</g>
<rect x="-0.5" y="-0.5" width="73" height="73" transform="matrix(1.19249e-08 -1 -1 -1.19249e-08 2659 73)" stroke="black"/>
<g clip-path="url(#clip29)">
<path d="M2438 -6.46929e-06L2512 0L2512 74L2438 74L2438 -6.46929e-06Z" fill="#0063E2"/>
<path d="M2450.31 28.5244L2497.97 28.5244L2497.97 62.4671L2450.31 62.4671L2450.31 28.5244Z" fill="white"/>
<path d="M2450.31 28.5247L2497.97 28.5247L2474.14 10.4111L2450.31 28.5247Z" fill="white"/>
</g>
<rect x="-0.5" y="0.5" width="73" height="73" transform="matrix(-1 -8.74228e-08 -8.74228e-08 1 2511 -4.37114e-08)" stroke="black"/>
<g clip-path="url(#clip30)">
<path d="M2364 74.0192L2364 0L2438 -3.23464e-06L2438 74.0192L2364 74.0192Z" fill="#F6331C"/>
<path d="M2402.11 42.7871C2402.11 89.0042 2454.11 37.0103 2407.89 37.0103C2454.11 37.0103 2402.11 -14.9857 2402.11 31.2321C2402.11 -14.9857 2350.12 37.0103 2396.34 37.0103C2350.12 37.0103 2402.11 89.0042 2402.11 42.7871Z" fill="white"/>
</g>
<rect x="0.5" y="0.5" width="73" height="73" transform="matrix(4.37114e-08 1 1 -4.37114e-08 2364 -2.18557e-08)" stroke="black"/>
<g clip-path="url(#clip31)">
<path d="M2290 74L2290 0L2363.89 -3.22967e-06L2363.89 74L2290 74Z" fill="black"/>
<path d="M2337.54 27.6281L2337.54 9.1123L2356.06 9.1123L2356.06 27.6281L2337.54 27.6281Z" fill="white"/>
<path d="M2319.03 46.1446L2319.03 27.6289L2337.54 27.6289L2337.54 46.1446L2319.03 46.1446Z" fill="white"/>
<path d="M2300.51 64.6613L2300.51 46.1455L2319.03 46.1455L2319.03 64.6613L2300.51 64.6613Z" fill="white"/>
</g>
<rect x="0.5" y="0.5" width="73" height="73" transform="matrix(4.37114e-08 1 1 -4.37114e-08 2290 -2.18557e-08)" stroke="black"/>
<rect x="0.498918" y="0.501075" width="72.8408" height="72.8409" transform="matrix(0.999998 0.00215221 -0.0021615 0.999998 2216.16 -0.00107261)" fill="#EE93B5" stroke="black"/>
<path d="M2267.85 32.0631L2236.18 68.2245L2227.58 57.6235L2258.96 21.4331L2259.67 20.6056L2258.58 20.6056L2225.5 20.6056L2225.5 5.6377L2281.38 5.6377L2281.38 68.5001L2268.73 68.5001L2268.73 32.3926L2268.73 31.0629L2267.85 32.0631Z" fill="white" stroke="black"/>
<defs>
<clipPath id="clip0">
</clipPath>
<clipPath id="clip1">
</clipPath>
<clipPath id="clip2">
</clipPath>
<clipPath id="clip3">
</clipPath>
<clipPath id="clip4">
</clipPath>
<clipPath id="clip5">
</clipPath>
<clipPath id="clip6">
</clipPath>
<clipPath id="clip7">
</clipPath>
<clipPath id="clip8">
</clipPath>
<clipPath id="clip9">
</clipPath>
<clipPath id="clip10">
</clipPath>
<clipPath id="clip11">
</clipPath>
<clipPath id="clip12">
</clipPath>
<clipPath id="clip13">
</clipPath>
<clipPath id="clip14">
</clipPath>
<clipPath id="clip15">
</clipPath>
<clipPath id="clip16">
</clipPath>
<clipPath id="clip17">
</clipPath>
<clipPath id="clip18">
</clipPath>
<clipPath id="clip19">
</clipPath>
<clipPath id="clip20">
</clipPath>
<clipPath id="clip21">
</clipPath>
<clipPath id="clip22">
</clipPath>
<clipPath id="clip23">
</clipPath>
<clipPath id="clip24">
</clipPath>
<clipPath id="clip25">
</clipPath>
<clipPath id="clip26">
</clipPath>
<clipPath id="clip27">
</clipPath>
<clipPath id="clip28">
</clipPath>
<clipPath id="clip29">
</clipPath>
<clipPath id="clip30">
</clipPath>
<clipPath id="clip31">
</clipPath>
</defs>
</svg>
