<svg width="74" height="1480" viewBox="0 0 74 1480" fill="none" xmlns="http://www.w3.org/2000/svg">
<path d="M74 1036H0V1110H74V1036Z" fill="#D7FB03"/>
<path d="M44.3925 1074.16V1073.19C44.3925 1066.09 41.0022 1061.73 35.7591 1061.73C30.5161 1061.73 27.2813 1066.09 27.2813 1073.19V1074.16C27.2813 1081.26 30.5099 1085.63 35.7557 1085.63C41.0015 1085.63 44.389 1081.27 44.389 1074.16L44.3925 1074.16ZM0 1074V1072.06C0 1049.95 13.7215 1036.22 35.9983 1036.22H37.7736C58.0331 1036.22 71.5135 1049.79 71.5135 1069.96V1075.94C71.5135 1087.24 66.9131 1093.86 57.6309 1093.86H52.9491C47.8636 1093.86 45.1194 1091.68 45.1194 1088.21V1088.04H43.6662C42.2958 1091.52 39.5503 1094.34 33.6577 1094.34C23.4875 1094.34 17.2721 1085.46 17.2721 1074.32V1073.03C17.2721 1061.73 23.3264 1053.01 32.8505 1053.01C38.8233 1053.01 41.2447 1055.52 42.9392 1058.34H44.3925V1053.5H54.2399V1082.07C54.2399 1083.93 54.8847 1084.82 56.7416 1084.82H57.065C60.2127 1084.82 61.5036 1081.83 61.5036 1075.94V1070.13C61.5036 1054.79 53.674 1045.43 37.4536 1045.43H36.3203C20.0163 1045.43 10.0092 1054.79 10.0092 1072.39V1073.68C10.0092 1091.27 20.1794 1100.8 37.6132 1100.8H54.4003V1110H36.9664C13.8825 1110 0 1096.12 0 1074" fill="black"/>
<path d="M0 1184H74V1258H0V1184Z" fill="#0063E2"/>
<path d="M55.8226 1211.66C57.6819 1211.66 59.4995 1212.22 61.0454 1213.25C62.5914 1214.28 63.7963 1215.75 64.5078 1217.47C65.2193 1219.19 65.4055 1221.08 65.0428 1222.9C64.68 1224.72 63.7847 1226.4 62.47 1227.71C61.1553 1229.03 59.4802 1229.92 57.6566 1230.28C55.8331 1230.65 53.9429 1230.46 52.2251 1229.75C50.5074 1229.04 49.0392 1227.83 48.0062 1226.29C46.9732 1224.74 46.4219 1222.92 46.4219 1221.06C46.4221 1218.57 47.4126 1216.18 49.1755 1214.42C50.9385 1212.65 53.3295 1211.66 55.8226 1211.66" fill="white"/>
<path d="M36.9362 1192.77C38.7955 1192.77 40.613 1193.32 42.1589 1194.35C43.7049 1195.39 44.9098 1196.86 45.6213 1198.57C46.3328 1200.29 46.519 1202.18 46.1563 1204.01C45.7935 1205.83 44.8982 1207.5 43.5835 1208.82C42.2688 1210.13 40.5937 1211.03 38.7702 1211.39C36.9466 1211.75 35.0564 1211.57 33.3387 1210.86C31.6209 1210.14 30.1527 1208.94 29.1198 1207.39C28.0868 1205.85 27.5355 1204.03 27.5355 1202.17C27.5355 1199.68 28.5259 1197.29 30.2889 1195.52C32.0518 1193.76 34.443 1192.77 36.9362 1192.77Z" fill="white"/>
<path d="M37.063 1230.42C38.9223 1230.42 40.7398 1230.98 42.2858 1232.01C43.8317 1233.04 45.0366 1234.51 45.7482 1236.23C46.4597 1237.94 46.6458 1239.84 46.2831 1241.66C45.9204 1243.48 45.025 1245.16 43.7103 1246.47C42.3956 1247.79 40.7206 1248.68 38.897 1249.04C37.0734 1249.41 35.1833 1249.22 33.4655 1248.51C31.7477 1247.8 30.2795 1246.59 29.2466 1245.05C28.2136 1243.5 27.6623 1241.68 27.6623 1239.82C27.6624 1237.33 28.6529 1234.94 30.4159 1233.18C32.1788 1231.41 34.5698 1230.42 37.063 1230.42" fill="white"/>
<path d="M18.1758 1211.53C20.0351 1211.53 21.8526 1212.09 23.3986 1213.12C24.9445 1214.15 26.1494 1215.62 26.8609 1217.34C27.5725 1219.06 27.7586 1220.95 27.3959 1222.77C27.0332 1224.59 26.1378 1226.27 24.8231 1227.58C23.5084 1228.9 21.8333 1229.79 20.0098 1230.16C18.1862 1230.52 16.296 1230.33 14.5783 1229.62C12.8605 1228.91 11.3923 1227.7 10.3593 1226.16C9.32637 1224.61 8.77502 1222.79 8.77502 1220.93C8.77502 1218.44 9.76546 1216.05 11.5284 1214.29C13.2914 1212.52 15.6825 1211.53 18.1758 1211.53" fill="white"/>
<g clip-path="url(#clip0)">
<path d="M111.264 1460.98C119.39 1460.98 125.977 1454.39 125.977 1446.26C125.977 1438.14 119.39 1431.55 111.264 1431.55C103.139 1431.55 96.5521 1438.14 96.5521 1446.26C96.5521 1454.39 103.139 1460.98 111.264 1460.98ZM84.5202 1435.15C99.2907 1420.38 123.238 1420.38 138.009 1435.15L149.122 1446.26L138.009 1457.38C123.238 1472.15 99.2907 1472.15 84.5202 1457.38L73.4086 1446.26L84.5202 1435.15Z" fill="black"/>
<path d="M0 1406H74V1479.89H0V1406Z" fill="#D7FB03"/>
<path d="M37 1421.34C39.8461 1421.33 42.6654 1421.89 45.2948 1422.97C47.9243 1424.06 50.3116 1425.66 52.3187 1427.68C60.7643 1436.13 60.7643 1449.87 52.3187 1458.32C48.2558 1462.38 42.7456 1464.66 37 1464.66C31.2545 1464.66 25.7443 1462.38 21.6814 1458.32C13.2358 1449.87 13.2358 1436.13 21.6814 1427.68C23.6885 1425.66 26.0758 1424.06 28.7053 1422.97C31.3347 1421.89 34.154 1421.33 37 1421.34V1421.34ZM37 1472.5C44.8797 1472.5 52.2879 1469.43 57.8598 1463.86C69.3613 1452.36 69.3613 1433.64 57.8598 1422.14C52.2879 1416.57 44.8797 1413.5 37 1413.5C29.1204 1413.5 21.7122 1416.57 16.1403 1422.14C4.63875 1433.64 4.63875 1452.36 16.1403 1463.86C21.7122 1469.43 29.1204 1472.5 37 1472.5" fill="black"/>
<path d="M37.0001 1433.26C38.9276 1433.26 40.8119 1433.83 42.4148 1434.9C44.0177 1435.97 45.267 1437.49 46.0048 1439.27C46.7425 1441.05 46.9356 1443.01 46.5594 1444.9C46.1833 1446.79 45.2549 1448.53 43.8917 1449.89C40.0923 1453.69 33.9078 1453.69 30.1071 1449.89C29.1994 1448.99 28.4798 1447.91 27.9899 1446.73C27.5001 1445.55 27.2497 1444.28 27.2533 1443C27.2533 1440.4 28.4414 1437.78 30.2818 1435.94C32.1832 1434.04 34.5039 1433.26 36.9966 1433.26L37.0001 1433.26ZM36.9966 1459.42C40.2454 1459.42 43.4219 1458.46 46.124 1456.66C48.8261 1454.85 50.9324 1452.29 52.1762 1449.29C53.42 1446.28 53.7455 1442.98 53.1113 1439.8C52.4772 1436.61 50.9121 1433.68 48.6139 1431.39C42.2075 1424.98 31.7927 1424.98 25.3862 1431.39C23.0882 1433.68 21.523 1436.61 20.8888 1439.79C20.2545 1442.98 20.5797 1446.28 21.8232 1449.28C23.0666 1452.28 25.1724 1454.85 27.874 1456.65C30.5757 1458.46 33.7517 1459.42 37.0001 1459.42" fill="black"/>
<path d="M37.0001 1441.45C37.3583 1441.45 37.7053 1441.58 37.9818 1441.8C38.2583 1442.03 38.4474 1442.35 38.5167 1442.7C38.586 1443.05 38.5314 1443.42 38.362 1443.73C38.1927 1444.05 37.9191 1444.29 37.5879 1444.43C37.2568 1444.57 36.8885 1444.59 36.5459 1444.48C36.2032 1444.38 35.9074 1444.16 35.7088 1443.86C35.5101 1443.56 35.421 1443.2 35.4566 1442.85C35.4922 1442.49 35.6502 1442.16 35.9038 1441.9C36.0476 1441.76 36.2185 1441.64 36.4066 1441.57C36.5948 1441.49 36.7965 1441.45 37.0001 1441.45V1441.45ZM37.0001 1448.76C38.3328 1448.76 39.6241 1448.3 40.654 1447.45C41.6839 1446.6 42.3886 1445.43 42.6482 1444.12C42.9078 1442.81 42.7062 1441.46 42.0776 1440.28C41.4491 1439.11 40.4325 1438.18 39.2012 1437.68C37.9698 1437.17 36.5998 1437.1 35.3247 1437.49C34.0495 1437.87 32.948 1438.69 32.2079 1439.8C31.4678 1440.91 31.1348 1442.24 31.2658 1443.56C31.3967 1444.89 31.9834 1446.13 32.926 1447.07C33.4604 1447.61 34.0955 1448.03 34.7946 1448.32C35.4938 1448.61 36.2433 1448.76 37.0001 1448.76" fill="black"/>
</g>
<path d="M0 1258H74V1331.98H0V1258Z" fill="#F6331C"/>
<path d="M24.1817 1289.81C24.1817 1288.92 24.4905 1288.17 25.108 1287.55C25.7256 1286.94 26.4793 1286.63 27.3692 1286.63C27.7862 1286.62 28.2 1286.7 28.5856 1286.86C28.9712 1287.02 29.3207 1287.25 29.6131 1287.55C29.9187 1287.84 30.1606 1288.19 30.3233 1288.58C30.4861 1288.97 30.5662 1289.39 30.5587 1289.81C30.5587 1290.68 30.2435 1291.43 29.6131 1292.06C28.9828 1292.68 28.2348 1293 27.3692 1293C26.9473 1293.01 26.5286 1292.93 26.1394 1292.77C25.7501 1292.6 25.399 1292.36 25.108 1292.06C24.8107 1291.76 24.5754 1291.41 24.4162 1291.03C24.257 1290.64 24.1773 1290.23 24.1817 1289.81ZM48.5578 1303.09C47.245 1305.58 45.6307 1307.48 43.7149 1308.79C41.7992 1310.11 39.5543 1310.76 36.9802 1310.76C34.4346 1310.76 32.1963 1310.1 30.2654 1308.79C28.3346 1307.48 26.713 1305.58 25.4006 1303.08L27.881 1301.66C29.9301 1305.44 32.9632 1307.33 36.9802 1307.33C40.9973 1307.33 44.0415 1305.44 46.1131 1301.67L48.5578 1303.09ZM43.4409 1289.81C43.4409 1288.92 43.7492 1288.17 44.3659 1287.55C44.9825 1286.94 45.7362 1286.63 46.627 1286.63C47.0442 1286.62 47.4582 1286.7 47.844 1286.86C48.2299 1287.02 48.5796 1287.25 48.8723 1287.55C49.1776 1287.84 49.4191 1288.19 49.5817 1288.58C49.7442 1288.97 49.8241 1289.39 49.8165 1289.81C49.8165 1290.68 49.5018 1291.43 48.8723 1292.06C48.2429 1292.68 47.4944 1293 46.627 1293C46.2052 1293.01 45.7864 1292.93 45.3971 1292.77C45.0079 1292.6 44.6568 1292.36 44.3659 1292.06C44.0684 1291.76 43.8332 1291.41 43.6742 1291.03C43.5153 1290.64 43.4359 1290.23 43.4409 1289.81V1289.81ZM11.897 1295.01C11.897 1301.94 14.3452 1307.85 19.2415 1312.75C24.1378 1317.65 30.0507 1320.09 36.9802 1320.09C43.9116 1320.09 49.8318 1317.65 54.7409 1312.75C59.6501 1307.85 62.1046 1301.94 62.1046 1295.01C62.1046 1288.05 59.6501 1282.13 54.7409 1277.23C49.8318 1272.33 43.9116 1269.89 36.9802 1269.89C30.0494 1269.89 24.136 1272.33 19.2401 1277.23C14.3442 1282.13 11.8961 1288.05 11.8956 1295.01" fill="white"/>
<path d="M0.050705 1332.05H74V1406H0.050705V1332.05Z" fill="#EE93B5"/>
<path d="M16.215 1351.65C21.2408 1346.62 29.3945 1346.62 34.4217 1351.65C34.665 1351.89 34.8849 1352.15 35.1069 1352.4L36.9802 1354.27L38.9474 1352.31C39.1673 1352.05 39.388 1351.8 39.6326 1351.55C44.6564 1346.53 52.8066 1346.53 57.8352 1351.56C62.8638 1356.58 62.8631 1364.73 57.8352 1369.76L37.4112 1390.08C37.292 1390.2 37.1303 1390.27 36.9617 1390.27C36.7932 1390.27 36.6315 1390.2 36.5122 1390.08C36.5122 1390.08 16.4582 1370.1 16.215 1369.86C11.1878 1364.83 11.1878 1356.68 16.215 1351.65Z" fill="white"/>
<path d="M0.112968 1110.11H73.8862V1183.89H0.112968V1110.11Z" fill="black"/>
<path d="M32.7902 1169.7L38.8994 1163.59L22.3384 1147.03L38.8994 1130.47L32.7902 1124.37L10.1202 1147.03L32.7902 1169.7Z" fill="white"/>
<path d="M57.9981 1169.7L64.1072 1163.59L47.5463 1147.03L64.1072 1130.47L57.9981 1124.37L35.328 1147.03L57.9981 1169.7Z" fill="white"/>
<path d="M0 962H74V1036H0V962Z" fill="#0063E2"/>
<path d="M12.312 990.524H59.9735V1024.47H12.312V990.524Z" fill="white"/>
<path d="M12.3128 990.525H59.9742L36.1435 972.411L12.3128 990.525Z" fill="white"/>
<g clip-path="url(#clip1)">
<path d="M-0.0191879 888H74V962H-0.0191879V888Z" fill="#F6331C"/>
<path d="M31.2129 926.114C-15.0042 926.114 36.9897 978.11 36.9897 931.891C36.9897 978.11 88.9857 926.114 42.7679 926.114C88.9857 926.114 36.9897 874.12 36.9897 920.338C36.9897 874.12 -15.0042 926.114 31.2129 926.114Z" fill="white"/>
</g>
<path d="M0 814H74V887.886H0V814Z" fill="black"/>
<path d="M46.3719 861.544H64.8877V880.06H46.3719V861.544Z" fill="white"/>
<path d="M27.8555 843.028H46.3713V861.544H27.8555V843.028Z" fill="white"/>
<path d="M9.3391 824.511H27.8549V843.027H9.3391V824.511Z" fill="white"/>
<rect width="73.8408" height="73.8409" transform="matrix(-0.00215226 0.999998 -0.999998 -0.00216154 73.9996 740.159)" fill="#EE93B5"/>
<path d="M52.8942 749L52.8942 782.579L16.3871 750.927L4.99972 760.162L41.6072 792.227L4.99972 792.227L4.99972 805.877L68.8621 805.877L68.8621 749L52.8942 749Z" fill="white"/>
<path d="M74 296H0V370H74V296Z" fill="#D7FB03"/>
<path d="M44.3925 334.162V333.193C44.3925 326.09 41.0022 321.732 35.7591 321.732C30.5161 321.732 27.2813 326.09 27.2813 333.193V334.162C27.2813 341.264 30.5099 345.625 35.7557 345.625C41.0015 345.625 44.389 341.267 44.389 334.164L44.3925 334.162ZM0 334.001V332.063C0 309.947 13.7215 296.224 35.9983 296.224H37.7736C58.0331 296.224 71.5135 309.786 71.5135 329.965V335.938C71.5135 347.237 66.9131 353.856 57.6309 353.856H52.9491C47.8636 353.856 45.1194 351.676 45.1194 348.207V348.044H43.6662C42.2958 351.515 39.5503 354.34 33.6577 354.34C23.4875 354.34 17.2721 345.462 17.2721 334.323V333.032C17.2721 321.732 23.3264 313.015 32.8505 313.015C38.8233 313.015 41.2447 315.516 42.9392 318.343H44.3925V313.499H54.2399V342.071C54.2399 343.928 54.8847 344.816 56.7416 344.816H57.065C60.2127 344.816 61.5036 341.83 61.5036 335.937V330.126C61.5036 314.791 53.674 305.428 37.4536 305.428H36.3203C20.0163 305.428 10.0092 314.791 10.0092 332.386V333.677C10.0092 351.273 20.1794 360.797 37.6132 360.797H54.4003V369.999H36.9664C13.8825 369.999 0 356.116 0 334.001" fill="black"/>
<path d="M0 444H74V518H0V444Z" fill="#0063E2"/>
<path d="M55.8226 471.664C57.6819 471.664 59.4995 472.215 61.0454 473.248C62.5914 474.281 63.7963 475.75 64.5078 477.467C65.2193 479.185 65.4055 481.075 65.0428 482.899C64.68 484.722 63.7847 486.397 62.47 487.712C61.1553 489.027 59.4802 489.922 57.6566 490.285C55.8331 490.648 53.9429 490.461 52.2251 489.75C50.5074 489.038 49.0392 487.834 48.0062 486.288C46.9732 484.742 46.4219 482.924 46.4219 481.065C46.4221 478.572 47.4126 476.181 49.1755 474.418C50.9385 472.655 53.3295 471.664 55.8226 471.664" fill="white"/>
<path d="M36.9362 452.771C38.7955 452.771 40.613 453.322 42.1589 454.355C43.7049 455.388 44.9098 456.856 45.6213 458.574C46.3328 460.291 46.519 462.182 46.1563 464.005C45.7935 465.829 44.8982 467.504 43.5835 468.819C42.2688 470.133 40.5937 471.029 38.7702 471.391C36.9466 471.754 35.0564 471.568 33.3387 470.856C31.6209 470.145 30.1527 468.94 29.1198 467.394C28.0868 465.848 27.5355 464.031 27.5355 462.171C27.5355 459.678 28.5259 457.287 30.2889 455.524C32.0518 453.761 34.443 452.771 36.9362 452.771Z" fill="white"/>
<path d="M37.063 490.424C38.9223 490.424 40.7398 490.975 42.2858 492.008C43.8317 493.041 45.0366 494.509 45.7482 496.227C46.4597 497.945 46.6458 499.835 46.2831 501.659C45.9204 503.482 45.025 505.157 43.7103 506.472C42.3956 507.787 40.7206 508.682 38.897 509.045C37.0734 509.407 35.1833 509.221 33.4655 508.51C31.7477 507.798 30.2795 506.593 29.2466 505.047C28.2136 503.501 27.6623 501.684 27.6623 499.825C27.6624 497.331 28.6529 494.94 30.4159 493.177C32.1788 491.415 34.5698 490.424 37.063 490.424" fill="white"/>
<path d="M18.1758 471.534C20.0351 471.534 21.8526 472.086 23.3986 473.118C24.9445 474.151 26.1494 475.62 26.8609 477.337C27.5725 479.055 27.7586 480.945 27.3959 482.769C27.0332 484.593 26.1378 486.268 24.8231 487.582C23.5084 488.897 21.8333 489.792 20.0098 490.155C18.1862 490.518 16.296 490.332 14.5783 489.62C12.8605 488.909 11.3923 487.704 10.3593 486.158C9.32637 484.612 8.77502 482.794 8.77502 480.935C8.77502 478.442 9.76546 476.051 11.5284 474.288C13.2914 472.525 15.6825 471.534 18.1758 471.534" fill="white"/>
<g clip-path="url(#clip2)">
<path d="M111.264 720.976C119.39 720.976 125.977 714.389 125.977 706.264C125.977 698.138 119.39 691.551 111.264 691.551C103.139 691.551 96.5521 698.135 96.5521 706.264C96.5521 714.392 103.139 720.976 111.264 720.976ZM84.5202 695.152C99.2907 680.382 123.238 680.382 138.009 695.152L149.122 706.264L138.009 717.377C123.238 732.146 99.2907 732.146 84.5202 717.377L73.4086 706.264L84.5202 695.152Z" fill="black"/>
<path d="M0 666H74V739.886H0V666Z" fill="#D7FB03"/>
<path d="M37 681.336C39.8461 681.329 42.6654 681.886 45.2948 682.975C47.9243 684.064 50.3116 685.663 52.3187 687.681C60.7643 696.128 60.7643 709.872 52.3187 718.319C48.2558 722.381 42.7456 724.663 37 724.663C31.2545 724.663 25.7443 722.381 21.6814 718.319C13.2358 709.872 13.2358 696.128 21.6814 687.681C23.6885 685.663 26.0758 684.064 28.7053 682.975C31.3347 681.886 34.154 681.329 37 681.336V681.336ZM37 732.5C44.8797 732.5 52.2879 729.43 57.8598 723.858C69.3613 712.357 69.3613 693.642 57.8598 682.142C52.2879 676.57 44.8797 673.5 37 673.5C29.1204 673.5 21.7122 676.57 16.1403 682.142C4.63875 693.643 4.63875 712.358 16.1403 723.858C21.7122 729.43 29.1204 732.5 37 732.5" fill="black"/>
<path d="M37.0001 693.258C38.9276 693.257 40.8119 693.828 42.4148 694.899C44.0177 695.969 45.267 697.491 46.0048 699.272C46.7425 701.052 46.9356 703.012 46.5594 704.902C46.1833 706.793 45.2549 708.529 43.8917 709.892C40.0923 713.691 33.9078 713.693 30.1071 709.892C29.1994 708.989 28.4798 707.915 27.9899 706.732C27.5001 705.549 27.2497 704.28 27.2533 703C27.2533 700.396 28.4414 697.781 30.2818 695.942C32.1832 694.043 34.5039 693.26 36.9966 693.26L37.0001 693.258ZM36.9966 719.419C40.2454 719.421 43.4219 718.46 46.124 716.656C48.8261 714.852 50.9324 712.287 52.1762 709.286C53.42 706.285 53.7455 702.982 53.1113 699.796C52.4772 696.609 50.9121 693.683 48.6139 691.386C42.2075 684.979 31.7927 684.979 25.3862 691.386C23.0882 693.682 21.523 696.608 20.8888 699.794C20.2545 702.98 20.5797 706.283 21.8232 709.284C23.0666 712.285 25.1724 714.849 27.874 716.653C30.5757 718.457 33.7517 719.418 37.0001 719.416" fill="black"/>
<path d="M37.0001 701.451C37.3583 701.452 37.7053 701.577 37.9818 701.804C38.2583 702.032 38.4474 702.349 38.5167 702.7C38.586 703.051 38.5314 703.416 38.362 703.732C38.1927 704.047 37.9191 704.295 37.5879 704.431C37.2568 704.568 36.8885 704.585 36.5459 704.481C36.2032 704.376 35.9074 704.156 35.7088 703.858C35.5101 703.56 35.421 703.202 35.4566 702.846C35.4922 702.49 35.6502 702.156 35.9038 701.903C36.0476 701.759 36.2185 701.645 36.4066 701.567C36.5948 701.489 36.7965 701.449 37.0001 701.45V701.451ZM37.0001 708.758C38.3328 708.758 39.6241 708.295 40.654 707.449C41.6839 706.604 42.3886 705.427 42.6482 704.12C42.9078 702.813 42.7062 701.456 42.0776 700.281C41.4491 699.106 40.4325 698.185 39.2012 697.675C37.9698 697.166 36.5998 697.099 35.3247 697.486C34.0495 697.873 32.948 698.69 32.2079 699.799C31.4678 700.907 31.1348 702.237 31.2658 703.564C31.3967 704.89 31.9834 706.13 32.926 707.072C33.4604 707.608 34.0955 708.033 34.7946 708.322C35.4938 708.612 36.2433 708.76 37.0001 708.759" fill="black"/>
</g>
<path d="M0 518H74V591.981H0V518Z" fill="#F6331C"/>
<path d="M24.1817 549.812C24.1817 548.92 24.4905 548.166 25.108 547.551C25.7256 546.936 26.4793 546.628 27.3692 546.626C27.7862 546.621 28.2 546.701 28.5856 546.86C28.9712 547.018 29.3207 547.254 29.6131 547.551C29.9187 547.842 30.1606 548.193 30.3233 548.582C30.4861 548.972 30.5662 549.39 30.5587 549.812C30.5587 550.68 30.2435 551.428 29.6131 552.056C28.9828 552.684 28.2348 553 27.3692 553.002C26.9473 553.009 26.5286 552.929 26.1394 552.766C25.7501 552.604 25.399 552.362 25.108 552.056C24.8107 551.764 24.5754 551.414 24.4162 551.029C24.257 550.643 24.1773 550.229 24.1817 549.812ZM48.5578 563.086C47.245 565.579 45.6307 567.481 43.7149 568.793C41.7992 570.105 39.5543 570.761 36.9802 570.76C34.4346 570.76 32.1963 570.104 30.2654 568.792C28.3346 567.48 26.713 565.577 25.4006 563.082L27.881 561.664C29.9301 565.444 32.9632 567.334 36.9802 567.334C40.9973 567.334 44.0415 565.444 46.1131 561.665L48.5578 563.086ZM43.4409 549.812C43.4409 548.92 43.7492 548.166 44.3659 547.551C44.9825 546.936 45.7362 546.628 46.627 546.626C47.0442 546.621 47.4582 546.701 47.844 546.86C48.2299 547.018 48.5796 547.254 48.8723 547.551C49.1776 547.842 49.4191 548.193 49.5817 548.583C49.7442 548.972 49.8241 549.391 49.8165 549.812C49.8165 550.68 49.5018 551.428 48.8723 552.056C48.2429 552.684 47.4944 553 46.627 553.002C46.2052 553.009 45.7864 552.929 45.3971 552.766C45.0079 552.604 44.6568 552.362 44.3659 552.056C44.0684 551.764 43.8332 551.414 43.6742 551.029C43.5153 550.643 43.4359 550.229 43.4409 549.812V549.812ZM11.897 555.01C11.897 561.941 14.3452 567.855 19.2415 572.75C24.1378 577.646 30.0507 580.094 36.9802 580.095C43.9116 580.095 49.8318 577.647 54.7409 572.75C59.6501 567.854 62.1046 561.941 62.1046 555.01C62.1046 548.054 59.6501 542.127 54.7409 537.23C49.8318 532.333 43.9116 529.885 36.9802 529.886C30.0494 529.886 24.136 532.334 19.2401 537.23C14.3442 542.127 11.8961 548.053 11.8956 555.01" fill="white"/>
<path d="M0.050705 592.051H74V666H0.050705V592.051Z" fill="#EE93B5"/>
<path d="M16.215 611.649C21.2408 606.622 29.3945 606.622 34.4217 611.649C34.665 611.891 34.8849 612.147 35.1069 612.402L36.9802 614.275L38.9474 612.308C39.1673 612.051 39.388 611.795 39.6326 611.554C44.6564 606.526 52.8066 606.526 57.8352 611.555C62.8638 616.585 62.8631 624.733 57.8352 629.762L37.4112 650.08C37.292 650.199 37.1303 650.266 36.9617 650.266C36.7932 650.266 36.6315 650.199 36.5122 650.08C36.5122 650.08 16.4582 630.096 16.215 629.855C11.1878 624.828 11.1878 616.677 16.215 611.649Z" fill="white"/>
<path d="M0.112968 370.113H73.8862V443.886H0.112968V370.113Z" fill="black"/>
<path d="M32.7902 429.704L38.8994 423.595L22.3384 407.035L38.8994 390.474L32.7902 384.365L10.1202 407.035L32.7902 429.704Z" fill="white"/>
<path d="M57.9981 429.704L64.1072 423.595L47.5463 407.035L64.1072 390.474L57.9981 384.365L35.328 407.035L57.9981 429.704Z" fill="white"/>
<path d="M0 222H74V296H0V222Z" fill="#0063E2"/>
<path d="M12.312 250.524H59.9735V284.467H12.312V250.524Z" fill="white"/>
<path d="M12.3128 250.525H59.9742L36.1435 232.411L12.3128 250.525Z" fill="white"/>
<g clip-path="url(#clip3)">
<path d="M-0.0191879 148H74V222H-0.0191879V148Z" fill="#F6331C"/>
<path d="M31.2129 186.114C-15.0042 186.114 36.9897 238.11 36.9897 191.891C36.9897 238.11 88.9857 186.114 42.7679 186.114C88.9857 186.114 36.9897 134.12 36.9897 180.338C36.9897 134.12 -15.0042 186.114 31.2129 186.114Z" fill="white"/>
</g>
<path d="M0 74H74V147.886H0V74Z" fill="black"/>
<path d="M46.3719 121.544H64.8877V140.06H46.3719V121.544Z" fill="white"/>
<path d="M27.8555 103.028H46.3713V121.544H27.8555V103.028Z" fill="white"/>
<path d="M9.3391 84.5107H27.8549V103.027H9.3391V84.5107Z" fill="white"/>
<rect width="73.8408" height="73.8409" transform="matrix(-0.00215226 0.999998 -0.999998 -0.00216154 73.9996 0.15918)" fill="#EE93B5"/>
<path d="M52.8942 9L52.8942 42.5789L16.3871 10.9266L4.99972 20.1618L41.6072 52.2275L4.99972 52.2274L4.99972 65.8774L68.8621 65.8774L68.8621 9L52.8942 9Z" fill="white"/>
<defs>
<clipPath id="clip0">
<rect width="74" height="74" fill="white" transform="matrix(-1 0 0 1 74 1406)"/>
</clipPath>
<clipPath id="clip1">
<rect width="74" height="74" fill="white" transform="matrix(-1 0 0 1 74 888)"/>
</clipPath>
<clipPath id="clip2">
<rect width="74" height="74" fill="white" transform="matrix(-1 0 0 1 74 666)"/>
</clipPath>
<clipPath id="clip3">
<rect width="74" height="74" fill="white" transform="matrix(-1 0 0 1 74 148)"/>
</clipPath>
</defs>
</svg>
