<svg width="627" height="159" viewBox="0 0 627 159" fill="none" xmlns="http://www.w3.org/2000/svg">
<path d="M0 1.00488H75.32V22.4049H23.32V29.2149H64.03V49.8149H23.31V71.3149H0V1.00488Z" fill="white"/>
<path d="M123.33 0.00401528C128.947 -0.0420835 134.561 0.308808 140.13 1.05403C144.757 1.68803 149.29 2.88003 153.63 4.60402C157.432 6.05706 160.889 8.28801 163.78 11.154C166.548 14.0653 168.647 17.5465 169.93 21.354C171.49 26.0117 172.237 30.903 172.14 35.814C172.229 40.6198 171.571 45.4102 170.19 50.014C169.033 53.7453 167.124 57.1998 164.58 60.1641C161.925 63.0913 158.643 65.3815 154.98 66.864C150.674 68.6583 146.152 69.8853 141.53 70.514C135.731 71.3027 129.882 71.6703 124.03 71.614C107.49 71.614 95.4697 68.5973 87.9697 62.564C80.4697 56.5307 76.7197 47.1974 76.7197 34.564C76.7197 22.824 80.5531 14.1373 88.2197 8.50401C95.8864 2.87068 107.59 0.0373486 123.33 0.00401528ZM124.23 53.214C131.29 53.214 136.756 51.7807 140.63 48.914C144.503 46.0474 146.436 41.6807 146.43 35.814C146.43 30.1407 144.396 25.8074 140.33 22.814C136.263 19.8207 130.796 18.3374 123.93 18.364C120.722 18.3184 117.524 18.7052 114.42 19.514C111.943 20.153 109.638 21.3311 107.67 22.964C105.936 24.4622 104.582 26.3507 103.72 28.474C102.82 30.8009 102.379 33.2797 102.42 35.774C102.328 38.1602 102.775 40.5362 103.728 42.7261C104.68 44.9159 106.112 46.8634 107.92 48.424C111.593 51.624 117.023 53.2207 124.21 53.214H124.23Z" fill="white"/>
<path d="M222.04 71.3145C211.58 71.3145 202.847 70.2812 195.84 68.2145C188.833 66.1478 184 62.5812 181.34 57.5145C179.217 53.0644 177.896 48.2741 177.44 43.3645C176.648 34.9021 176.314 26.403 176.44 17.9045L176.54 1.10449H201.14V32.5145C201.128 34.3024 201.228 36.0892 201.44 37.8645C201.707 39.6467 202.229 41.3811 202.99 43.0145C203.765 44.8104 204.946 46.4021 206.44 47.6645C208.285 49.0917 210.391 50.1448 212.64 50.7645C215.71 51.6506 218.895 52.072 222.09 52.0145C225.272 52.0756 228.444 51.6541 231.5 50.7645C233.686 50.1643 235.727 49.1267 237.5 47.7145C238.922 46.4313 240.034 44.8411 240.75 43.0645C241.476 41.4256 241.964 39.6914 242.2 37.9145C242.376 36.1199 242.459 34.3176 242.45 32.5145V1.10449H267.05V17.9045C267.234 26.4014 266.933 34.9018 266.15 43.3645C265.694 48.2741 264.373 53.0644 262.25 57.5145C260.832 60.2062 258.793 62.5204 256.3 64.2645C253.49 66.2133 250.359 67.6519 247.05 68.5145C243.315 69.5417 239.502 70.2608 235.65 70.6645C231.128 71.1268 226.585 71.3438 222.04 71.3145Z" fill="white"/>
<path d="M361.97 71.3145H330.21L295.81 29.0145V71.3145H272.45V1.10449H304.96L338.76 42.7145V1.10449H361.97V71.3145Z" fill="white"/>
<path d="M416.68 71.3141H368.37V1.31412H416.37C420.416 1.28291 424.459 1.53351 428.47 2.06412C432.15 2.60535 435.745 3.61347 439.17 5.06412C442.554 6.41737 445.619 8.46078 448.17 11.0641C450.82 13.993 452.814 17.4533 454.02 21.2141C455.614 26.0885 456.375 31.1968 456.27 36.3241C456.345 41.0992 455.531 45.8465 453.87 50.3241C452.508 54.0837 450.36 57.5098 447.57 60.3741C444.879 63.0063 441.766 65.1695 438.36 66.7741C434.984 68.4263 431.402 69.6202 427.71 70.3241C424.072 70.9952 420.38 71.3267 416.68 71.3141V71.3141ZM415.08 52.2141C418.345 52.3074 421.58 51.5675 424.48 50.0641C426.909 48.8022 428.897 46.8317 430.18 44.4141C431.414 41.9307 432.032 39.1866 431.98 36.4141C431.98 31.6141 430.647 27.7608 427.98 24.8541C425.313 21.9474 421.03 20.4974 415.13 20.5041H391.73V52.2141H415.08Z" fill="white"/>
<path d="M460.39 1.10449H537.9V20.6445H483.69V26.8445H534.5V45.5545H483.69V51.8545H537.9V71.3545H460.39V1.10449Z" fill="white"/>
<path d="M543.1 1.10449H594.71C596.04 1.10449 597.31 1.1045 598.51 1.2045C600.203 1.33236 601.889 1.54932 603.56 1.85449C605.569 2.18349 607.546 2.68535 609.47 3.35449C611.458 4.1007 613.354 5.07379 615.12 6.25449C617.048 7.49444 618.756 9.04939 620.17 10.8545C621.673 12.8983 622.822 15.18 623.57 17.6045C624.51 20.6166 624.966 23.7592 624.92 26.9145C624.92 37.9745 620.616 45.8745 612.01 50.6145L626.42 71.3145L599.51 71.2145L587.51 54.7145H566.41V71.3145H543.1V1.10449ZM592.51 34.2145C598.31 34.2145 601.21 32.0145 601.21 27.6145C601.21 23.6145 598.176 21.6145 592.11 21.6145H566.41V34.2245L592.51 34.2145Z" fill="white"/>
<path d="M284.05 135.644H334.97V158.944H260.75V88.7744H284.05V135.644Z" fill="white"/>
<path d="M406.48 88.9746L437.98 158.975H410.98L405.68 147.175H370.97L365.67 158.975H338.86L370.27 88.9746H406.48ZM379.27 126.975H397.37L388.27 108.575L379.27 126.975Z" fill="white"/>
<path d="M531.999 158.984H500.209L465.789 116.644V158.954H442.479V88.7744H474.99L508.789 130.384V88.7744H531.999V158.984Z" fill="white"/>
<path d="M586.81 158.985H538.5V88.985H586.5C590.546 88.9538 594.589 89.2044 598.6 89.735C602.283 90.2762 605.882 91.2843 609.31 92.735C612.692 94.0922 615.756 96.1351 618.31 98.735C620.976 101.656 622.988 105.113 624.21 108.875C625.803 113.746 626.564 118.851 626.46 123.975C626.533 128.75 625.72 133.497 624.06 137.975C622.689 141.716 620.542 145.124 617.76 147.975C615.069 150.607 611.956 152.77 608.55 154.375C605.174 156.027 601.592 157.221 597.9 157.925C594.244 158.623 590.532 158.978 586.81 158.985V158.985ZM585.21 139.885C588.475 139.978 591.71 139.238 594.61 137.735C597.037 136.47 599.024 134.5 600.31 132.085C601.543 129.601 602.161 126.857 602.11 124.085C602.11 119.285 600.777 115.435 598.11 112.535C595.443 109.635 591.143 108.182 585.21 108.175H561.81V139.885H585.21Z" fill="white"/>
<path d="M176.76 106.475H219.81L179.23 146.485L191.07 158.965L232.18 118.845V158.965H249.68V88.9746H176.76V106.475Z" fill="white"/>
</svg>
