<svg 
width="500"
height="300"
viewBox="160 300 1000 500"
class="fill-current"
id="Layer_1" data-name="Layer 1"
    xmlns="http://www.w3.org/2000/svg" >
    <path d="M360.79,461.43h75.32v21.4h-52v6.8h40.71v20.6H384.1v21.51H360.79Z"/>
    <path d="M484.12,460.43a119.27,119.27,0,0,1,16.8,1.05,57.84,57.84,0,0,1,13.5,3.55,29.09,29.09,0,0,1,10.15,6.55,27.57,27.57,0,0,1,6.15,10.2,42.83,42.83,0,0,1,2.21,14.45,46.41,46.41,0,0,1-1.95,14.2,28.53,28.53,0,0,1-5.61,10.16,26.26,26.26,0,0,1-9.6,6.7,53.83,53.83,0,0,1-13.45,3.65,122.65,122.65,0,0,1-17.5,1.1q-24.81,0-36.06-9t-11.25-28.06q0-17.6,11.5-26.05T484.12,460.43Zm.9,53.2q10.59,0,16.4-4.3t5.8-13.1q0-8.49-6.1-13t-16.4-4.45a35.29,35.29,0,0,0-9.51,1.15,17.37,17.37,0,0,0-6.75,3.45,14.45,14.45,0,0,0-3.95,5.5,19.43,19.43,0,0,0-1.3,7.3,15.89,15.89,0,0,0,5.5,12.65Q474.22,513.64,485,513.63Z"/>
    <path d="M582.83,531.74q-15.69,0-26.2-3.1t-14.5-10.7a41.84,41.84,0,0,1-3.9-14.16,235.37,235.37,0,0,1-1-25.45l.1-16.8h24.6v31.4a42.56,42.56,0,0,0,.3,5.35,18.57,18.57,0,0,0,1.55,5.15,12.65,12.65,0,0,0,3.45,4.65,17.74,17.74,0,0,0,6.2,3.1,31.62,31.62,0,0,0,9.45,1.26,31.16,31.16,0,0,0,9.41-1.26,16.75,16.75,0,0,0,6-3.05,12.62,12.62,0,0,0,3.25-4.65,18.75,18.75,0,0,0,1.45-5.15,52.46,52.46,0,0,0,.25-5.4v-31.4h24.6v16.8a223.4,223.4,0,0,1-.9,25.45,41.84,41.84,0,0,1-3.9,14.16,19.27,19.27,0,0,1-5.95,6.75,29.34,29.34,0,0,1-9.25,4.25,70.82,70.82,0,0,1-11.4,2.15A128.44,128.44,0,0,1,582.83,531.74Z"/>
    <path d="M722.76,531.74H691l-34.4-42.31v42.31H633.24V461.53h32.51l33.8,41.6v-41.6h23.21Z"/>
    <path d="M777.47,531.74H729.16v-70h48a87.14,87.14,0,0,1,12.1.75,43.76,43.76,0,0,1,10.7,3,26.24,26.24,0,0,1,9,6,27.68,27.68,0,0,1,5.85,10.15,45.6,45.6,0,0,1,2.25,15.1,38.62,38.62,0,0,1-2.4,14,28.23,28.23,0,0,1-6.3,10,33.74,33.74,0,0,1-9.21,6.4,42.61,42.61,0,0,1-10.65,3.55A59.68,59.68,0,0,1,777.47,531.74Zm-1.6-19.1a19.12,19.12,0,0,0,9.4-2.16,13.45,13.45,0,0,0,5.7-5.65,17.23,17.23,0,0,0,1.8-8q0-7.2-4-11.55t-12.85-4.35h-23.4v31.71Z"/>
    <path d="M821.18,461.53h77.51V481H844.48v6.2h50.81v18.7H844.48v6.3h54.21v19.51H821.18Z"/>
    <path d="M903.89,461.53H955.5c1.33,0,2.6,0,3.8.1a45.77,45.77,0,0,1,5.05.65,33.53,33.53,0,0,1,5.91,1.5,27.62,27.62,0,0,1,5.65,2.9,20.29,20.29,0,0,1,5.05,4.6,22.54,22.54,0,0,1,3.4,6.75,29.65,29.65,0,0,1,1.35,9.3q0,16.6-12.91,23.71l14.41,20.7-26.91-.1-12-16.5H927.2v16.6H903.89Zm49.41,33.1q8.7,0,8.7-6.6,0-6-9.1-6H927.2v12.6Z"/>
    <path d="M384.1,596.4H435v23.31H360.79V549.49H384.1Z"/>
    <path d="M506.52,549.69l31.51,70H511l-5.3-11.81H471l-5.3,11.81h-26.8l31.4-70Zm-27.21,38h18.11l-9.1-18.4Z"/>
    <path d="M632,619.71h-31.8L565.83,577.4v42.31h-23.3V549.49H575l33.81,41.61V549.49H632Z"/>
    <path d="M686.85,619.71H638.54v-70h48a87.29,87.29,0,0,1,12.11.75,43.76,43.76,0,0,1,10.7,3,26.3,26.3,0,0,1,9,6,27.73,27.73,0,0,1,5.85,10.16,45.56,45.56,0,0,1,2.25,15.1,38.53,38.53,0,0,1-2.4,14,28.05,28.05,0,0,1-6.3,10,33.63,33.63,0,0,1-9.2,6.4,42.44,42.44,0,0,1-10.66,3.56A60.56,60.56,0,0,1,686.85,619.71Zm-1.6-19.11a19.12,19.12,0,0,0,9.4-2.15,13.53,13.53,0,0,0,5.71-5.65,17.23,17.23,0,0,0,1.8-8c0-4.8-1.36-8.65-4-11.55s-7-4.35-12.86-4.35h-23.4v31.7Z"/>
    <polygon points="731.22 567.19 774.26 567.19 733.68 607.2 745.53 619.69 786.63 579.56 786.63 619.69 804.13 619.69 804.13 549.69 731.22 549.69 731.22 567.19"/>
</svg>