<svg width="70" height="75" viewBox="0 0 70 75" fill="none" xmlns="http://www.w3.org/2000/svg">
<path d="M70 0H0V75H70V0Z" fill="black"/>
<path d="M70 0H0V75H70V0Z" fill="#F6331C"/>
<path d="M27.0692 51.8755C23.5071 51.8755 20.0909 50.3594 17.5721 47.6607C15.0533 44.962 13.6383 41.3018 13.6383 37.4853C13.6383 33.6687 15.0533 30.0085 17.5721 27.3098C20.0909 24.6111 23.5071 23.095 27.0692 23.095C28.1027 23.0963 29.1327 23.2246 30.1388 23.4776C31.5613 21.9812 33.2035 20.7453 35 19.8193C28.1944 16.32 19.7685 17.5874 14.1335 23.6255C11.1459 26.8347 9.28799 31.0536 8.87581 35.5647C8.46363 40.0758 9.52259 44.6007 11.8726 48.3697C14.2226 52.1387 17.7186 54.9192 21.766 56.2384C25.8134 57.5575 30.1623 57.3339 34.0731 55.6054C34.3868 55.4665 34.6958 55.3181 35 55.1603C33.2061 54.2296 31.5654 52.9926 30.1421 51.4978C29.1348 51.7504 28.1037 51.8772 27.0692 51.8755" fill="white"/>
<path d="M40.4975 37.4847C40.4999 34.24 39.4775 31.0898 37.5968 28.5466C35.7161 26.0033 33.0876 24.2166 30.1388 23.4771C30.0935 23.5264 30.0429 23.5764 29.9969 23.625C26.5676 27.3015 24.6412 32.2866 24.6412 37.4844C24.6412 42.6822 26.5676 47.6672 29.9969 51.3438C30.0474 51.3986 30.0935 51.4472 30.144 51.4965C33.0921 50.7549 35.7194 48.967 37.599 46.4232C39.4787 43.8793 40.5002 40.7292 40.4975 37.4847ZM55.8703 23.625C50.2314 17.5868 41.8055 16.3174 34.9999 19.8181C36.8564 20.7757 38.5484 22.0629 40.0043 23.625C47.1385 31.2681 47.1385 43.7 40.0043 51.3438C38.5481 52.9079 36.8563 54.1979 34.9999 55.1597C38.8941 57.1641 43.3244 57.6278 47.507 56.4689C51.6896 55.3099 55.3546 52.603 57.8535 48.8272C60.3524 45.0514 61.5241 40.4501 61.1611 35.8377C60.7982 31.2253 58.924 26.8992 55.8703 23.625Z" fill="white"/>
</svg>
