<svg width="70" height="75" viewBox="0 0 70 75" fill="none" xmlns="http://www.w3.org/2000/svg">
<path d="M70 0H0V75H70V0Z" fill="black"/>
<path d="M70 0H0V75H70V0Z" fill="white"/>
<path d="M27.2805 51.9844C23.7184 51.9844 20.3022 50.4683 17.7834 47.7696C15.2646 45.0709 13.8496 41.4106 13.8496 37.5941C13.8496 33.7776 15.2646 30.1173 17.7834 27.4186C20.3022 24.7199 23.7184 23.2038 27.2805 23.2038C28.314 23.2051 29.344 23.3335 30.3501 23.5865C31.7726 22.09 33.4148 20.8541 35.2113 19.9281C28.4057 16.4288 19.9798 17.6962 14.3448 23.7344C11.3572 26.9435 9.49929 31.1624 9.08711 35.6735C8.67494 40.1847 9.7339 44.7095 12.0839 48.4785C14.4339 52.2475 17.9299 55.0281 21.9773 56.3472C26.0247 57.6664 30.3736 57.4427 34.2844 55.7142C34.5981 55.5753 34.9071 55.427 35.2113 55.2691C33.4174 54.3384 31.7767 53.1014 30.3534 51.6066C29.3461 51.8592 28.315 51.986 27.2805 51.9844" fill="#F6331C"/>
<path d="M40.7088 37.5936C40.7112 34.3488 39.6888 31.1986 37.8081 28.6554C35.9274 26.1121 33.2989 24.3255 30.3501 23.5859C30.3048 23.6352 30.2542 23.6852 30.2082 23.7338C26.7789 27.4104 24.8525 32.3954 24.8525 37.5932C24.8525 42.791 26.7789 47.776 30.2082 51.4526C30.2588 51.5074 30.3048 51.5561 30.3553 51.6054C33.3034 50.8638 35.9307 49.0758 37.8103 46.532C39.69 43.9882 40.7115 40.8381 40.7088 37.5936ZM56.0816 23.7338C50.4427 17.6956 42.0168 16.4262 35.2113 19.9269C37.0677 20.8846 38.7597 22.1717 40.2156 23.7338C47.3498 31.3769 47.3498 43.8088 40.2156 51.4526C38.7594 53.0167 37.0676 54.3068 35.2113 55.2686C39.1054 57.2729 43.5357 57.7366 47.7183 56.5777C51.9009 55.4187 55.5659 52.7118 58.0648 48.936C60.5637 45.1602 61.7354 40.5589 61.3724 35.9465C61.0095 31.3342 59.1353 27.008 56.0816 23.7338Z" fill="#F6331C"/>
</svg>
