<svg width="87" height="93" viewBox="0 0 87 93" fill="none" xmlns="http://www.w3.org/2000/svg">
<g clip-path="url(#clip0_515:506)">
<path d="M86.1609 0H0V93H86.1609V0Z" fill="black"/>
<path d="M86.1609 0H0V93H86.1609V0Z" fill="white"/>
<path d="M33.5009 65.1403C29.1165 65.1403 24.9115 63.2603 21.8112 59.9139C18.7109 56.5675 16.9692 52.0289 16.9692 47.2963C16.9692 42.5638 18.7109 38.0252 21.8112 34.6788C24.9115 31.3324 29.1165 29.4524 33.5009 29.4524C34.7731 29.454 36.0408 29.6132 37.2793 29.9269C39.0301 28.0713 41.0515 26.5388 43.2627 25.3905C34.8859 21.0514 24.5147 22.6229 17.5787 30.1103C13.9014 34.0897 11.6146 39.3211 11.1072 44.9149C10.5999 50.5087 11.9033 56.1194 14.7959 60.793C17.6885 65.4666 21.9915 68.9145 26.9733 70.5502C31.9551 72.1859 37.3081 71.9086 42.1218 69.7653C42.508 69.5931 42.8882 69.4091 43.2627 69.2133C41.0547 68.0593 39.0352 66.5255 37.2832 64.6718C36.0435 64.9851 34.7742 65.1423 33.5009 65.1403" fill="#F6331C"/>
<path d="M50.0294 47.296C50.0323 43.2725 48.7739 39.3663 46.459 36.2127C44.1441 33.0591 40.9087 30.8436 37.2792 29.9265C37.2234 29.9877 37.1612 30.0497 37.1045 30.1099C32.8835 34.6688 30.5124 40.8503 30.5124 47.2956C30.5124 53.7408 32.8835 59.9223 37.1045 64.4812C37.1667 64.5492 37.2234 64.6095 37.2856 64.6707C40.9143 63.7511 44.1482 61.534 46.4618 58.3797C48.7754 55.2253 50.0327 51.3192 50.0294 47.296ZM68.9514 30.1099C62.0106 22.6226 51.6394 21.0485 43.2626 25.3893C45.5477 26.5769 47.6303 28.1729 49.4223 30.1099C58.2036 39.5873 58.2036 55.003 49.4223 64.4812C47.6299 66.4207 45.5475 68.0204 43.2626 69.213C48.0558 71.6984 53.509 72.2734 58.6572 70.8363C63.8054 69.3992 68.3166 66.0427 71.3924 61.3606C74.4683 56.6786 75.9104 50.9731 75.4637 45.2537C75.0169 39.5344 72.7101 34.17 68.9514 30.1099Z" fill="#F6331C"/>
</g>
<defs>
<clipPath id="clip0_515:506">
<rect width="86.1609" height="93" fill="white"/>
</clipPath>
</defs>
</svg>
