<svg width="87" height="93" viewBox="0 0 87 93" fill="none" xmlns="http://www.w3.org/2000/svg">
<g clip-path="url(#clip0_494:657)">
<path d="M86.1609 0H0V93H86.1609V0Z" fill="black"/>
<path d="M86.1609 0H0V93H86.1609V0Z" fill="white"/>
<path d="M33.3187 64.3253C28.9342 64.3253 24.7293 62.4454 21.629 59.099C18.5287 55.7526 16.7869 51.2139 16.7869 46.4814C16.7869 41.7489 18.5287 37.2102 21.629 33.8638C24.7293 30.5174 28.9342 28.6375 33.3187 28.6375C34.5908 28.639 35.8585 28.7982 37.097 29.1119C38.8479 27.2564 40.8693 25.7238 43.0804 24.5756C34.7036 20.2365 24.3324 21.808 17.3965 29.2953C13.7191 33.2747 11.4323 38.5061 10.925 44.0999C10.4176 49.6937 11.7211 55.3045 14.6136 59.9781C17.5062 64.6517 21.8093 68.0995 26.7911 69.7353C31.7729 71.371 37.1258 71.0937 41.9396 68.9504C42.3257 68.7782 42.706 68.5942 43.0804 68.3984C40.8724 67.2444 38.8529 65.7105 37.101 63.8569C35.8612 64.1702 34.592 64.3274 33.3187 64.3253Z" fill="#F6331C"/>
<path d="M49.8473 46.4811C49.8501 42.4576 48.5917 38.5513 46.2768 35.3977C43.9619 32.2441 40.7266 30.0286 37.097 29.1116C37.0412 29.1727 36.979 29.2347 36.9223 29.295C32.7013 33.8539 30.3302 40.0354 30.3302 46.4806C30.3302 52.9259 32.7013 59.1074 36.9223 63.6663C36.9845 63.7343 37.0412 63.7946 37.1034 63.8557C40.7321 62.9361 43.966 60.719 46.2796 57.5647C48.5932 54.4104 49.8505 50.5043 49.8473 46.4811ZM68.7692 29.295C61.8284 21.8076 51.4572 20.2335 43.0804 24.5744C45.3655 25.7619 47.4481 27.358 49.2401 29.295C58.0214 38.7724 58.0214 54.188 49.2401 63.6663C47.4477 65.6058 45.3653 67.2054 43.0804 68.3981C47.8736 70.8835 53.3268 71.4585 58.475 70.0214C63.6232 68.5843 68.1344 65.2277 71.2102 60.5457C74.2861 55.8637 75.7282 50.1581 75.2815 44.4388C74.8347 38.7194 72.5279 33.355 68.7692 29.295Z" fill="#F6331C"/>
</g>
<rect x="0.5" y="0.5" width="85.1609" height="92" stroke="#F6331C"/>
<defs>
<clipPath id="clip0_494:657">
</clipPath>
</defs>
</svg>
