<svg width="420" height="310" xmlns="http://www.w3.org/2000/svg" xmlns:svg="http://www.w3.org/2000/svg">
  <path d="m31.62,31.73l75.31,0l0,21.4l-52,0l0,6.8l40.7,0l0,20.61l-40.7,0l0,21.46l-23.31,0l0,-70.27z" id="svg_1"/>
  <path d="m154.94,30.73a119.32,119.32 0 0 1 16.81,1a58.11,58.11 0 0 1 13.5,3.55a29.24,29.24 0 0 1 10.15,6.55a27.7,27.7 0 0 1 6.15,10.2a42.84,42.84 0 0 1 2.2,14.45a46.17,46.17 0 0 1 -2,14.21a28.4,28.4 0 0 1 -5.6,10.15a26.26,26.26 0 0 1 -9.6,6.7a53.83,53.83 0 0 1 -13.45,3.65a121.25,121.25 0 0 1 -17.51,1.1q-24.79,0 -36,-9t-11.25,-28.06q0,-17.6 11.5,-26.05t35.1,-8.45zm0.9,53.21q10.6,0 16.41,-4.3t5.8,-13.11q0,-8.49 -6.1,-12.95t-16.4,-4.45a35.24,35.24 0 0 0 -9.51,1.15a17.37,17.37 0 0 0 -6.75,3.45a14.42,14.42 0 0 0 -3.95,5.5a19.24,19.24 0 0 0 -1.3,7.3a15.89,15.89 0 0 0 5.5,12.66q5.46,4.74 16.3,4.75z" id="svg_2"/>
  <path d="m253.66,102q-15.7,0 -26.2,-3.1t-14.46,-10.66a42.31,42.31 0 0 1 -3.9,-14.15a238.37,238.37 0 0 1 -1,-25.46l0.11,-16.8l24.6,0l0,31.4a42.56,42.56 0 0 0 0.3,5.35a18.57,18.57 0 0 0 1.55,5.15a12.77,12.77 0 0 0 3.45,4.66a18.09,18.09 0 0 0 6.2,3.1a32,32 0 0 0 9.45,1.25a31.38,31.38 0 0 0 9.4,-1.25a16.88,16.88 0 0 0 6,-3.05a12.58,12.58 0 0 0 3.25,-4.66a18.75,18.75 0 0 0 1.45,-5.15a52.46,52.46 0 0 0 0.25,-5.4l0,-31.4l24.6,0l0,16.8a223.71,223.71 0 0 1 -0.9,25.46a42.31,42.31 0 0 1 -3.9,14.15a19.1,19.1 0 0 1 -6,6.75a29.34,29.34 0 0 1 -9.25,4.25a70.74,70.74 0 0 1 -11.41,2.15a125.5,125.5 0 0 1 -13.59,0.61z" id="svg_3"/>
  <path d="m393.59,102l-31.81,0l-34.4,-42.31l0,42.31l-23.31,0l0,-70.17l32.51,0l33.8,41.6l0,-41.6l23.21,0l0,70.17z" id="svg_4"/>
  <path d="m79.93,190.11l-48.31,0l0,-70l48,0a87.14,87.14 0 0 1 12.1,0.75a43.64,43.64 0 0 1 10.7,3a26.39,26.39 0 0 1 9,6a27.81,27.81 0 0 1 5.87,10.14a45.56,45.56 0 0 1 2.25,15.1a38.53,38.53 0 0 1 -2.4,14a28.05,28.05 0 0 1 -6.3,10a33.77,33.77 0 0 1 -9.21,6.41a42.61,42.61 0 0 1 -10.63,3.6a60.56,60.56 0 0 1 -11.07,1zm-1.6,-19.11a19.12,19.12 0 0 0 9.4,-2.15a13.45,13.45 0 0 0 5.7,-5.65a17.23,17.23 0 0 0 1.8,-8q0,-7.2 -4.05,-11.55t-12.85,-4.35l-23.4,0l0,31.7l23.4,0z" id="svg_5"/>
  <path d="m123.64,119.89l77.51,0l0,19.51l-54.21,0l0,6.2l50.81,0l0,18.7l-50.81,0l0,6.3l54.21,0l0,19.51l-77.51,0l0,-70.22z" id="svg_6"/>
  <path d="m219.26,119.89l51.61,0c1.33,0 2.6,0 3.8,0.1s2.88,0.29 5.05,0.65a35.5,35.5 0 0 1 5.9,1.5a28.14,28.14 0 0 1 5.65,2.9a20.33,20.33 0 0 1 5.05,4.61a22.19,22.19 0 0 1 3.4,6.75a29.65,29.65 0 0 1 1.35,9.3q0,16.6 -12.9,23.7l14.4,20.71l-26.9,-0.1l-12,-16.51l-21.11,0l0,16.61l-23.3,0l0,-70.22zm49.41,33.11q8.7,0 8.7,-6.6q0,-6 -9.1,-6l-25.71,0l0,12.6l26.11,0z" id="svg_7"/>
  <path d="m54.78,256.53l50.91,0l0,23.31l-74.21,0l0,-70.21l23.3,0l0,46.9z" id="svg_8"/>
  <path d="m177.21,209.83l31.5,70l-27,0l-5.31,-11.83l-34.7,0l-5.3,11.8l-26.81,0l31.41,-70l36.21,0.03zm-27.21,38l18.1,0l-9.1,-18.4l-9,18.4z" id="svg_9"/>
  <path d="m302.73,279.84l-31.81,0l-34.4,-42.31l0,42.31l-23.31,0l0,-70.21l32.51,0l33.8,41.6l0,-41.6l23.21,0l0,70.21z" id="svg_10"/>
  <path d="m357.54,279.84l-48.31,0l0,-70l48,0a87.24,87.24 0 0 1 12.1,0.75a43.76,43.76 0 0 1 10.7,3a26.3,26.3 0 0 1 9,6a27.68,27.68 0 0 1 5.85,10.15a45.58,45.58 0 0 1 2.26,15.1a38.62,38.62 0 0 1 -2.41,14a28.23,28.23 0 0 1 -6.3,10a33.84,33.84 0 0 1 -9.2,6.4a42.61,42.61 0 0 1 -10.65,3.55a59.76,59.76 0 0 1 -11.04,1.05zm-1.6,-19.1a19.26,19.26 0 0 0 9.4,-2.15a13.53,13.53 0 0 0 5.7,-5.66a17.23,17.23 0 0 0 1.8,-8q0,-7.2 -4.05,-11.55t-12.85,-4.38l-23.41,0l0,31.71l23.41,0.03z" id="svg_11"/>
  <polygon id="svg_12" points="320.66998291015625,137.59002685546875 363.719970703125,137.59002685546875 323.1400146484375,177.5999755859375 334.97998046875,190.09002685546875 376.09002685546875,149.96002197265625 376.09002685546875,190.09002685546875 393.59002685546875,190.09002685546875 393.59002685546875,120.08999633789062 320.66998291015625,120.08999633789062 320.66998291015625,137.59002685546875 "/>
</svg>