<svg id="Layer_1" data-name="Layer 1"
    xmlns="http://www.w3.org/2000/svg" viewBox="0 0 1354.82 1080">
    <path d="M493.62,416.73h75.31v21.4h-52v6.8h40.7v20.61h-40.7V487H493.62Z"/>
    <path d="M616.94,415.73a119.32,119.32,0,0,1,16.81,1,58.11,58.11,0,0,1,13.5,3.55,29.24,29.24,0,0,1,10.15,6.55,27.7,27.7,0,0,1,6.15,10.2,42.84,42.84,0,0,1,2.2,14.45,46.17,46.17,0,0,1-2,14.21,28.4,28.4,0,0,1-5.6,10.15,26.26,26.26,0,0,1-9.6,6.7,53.83,53.83,0,0,1-13.45,3.65,121.25,121.25,0,0,1-17.51,1.1q-24.79,0-36-9t-11.25-28.06q0-17.6,11.5-26.05T616.94,415.73Zm.9,53.21q10.6,0,16.41-4.3t5.8-13.11q0-8.49-6.1-12.95t-16.4-4.45a35.24,35.24,0,0,0-9.51,1.15,17.37,17.37,0,0,0-6.75,3.45,14.42,14.42,0,0,0-3.95,5.5,19.24,19.24,0,0,0-1.3,7.3,15.89,15.89,0,0,0,5.5,12.66Q607,468.93,617.84,468.94Z"/>
    <path d="M715.66,487q-15.7,0-26.2-3.1T675,473.24a42.31,42.31,0,0,1-3.9-14.15,238.37,238.37,0,0,1-1-25.46l.11-16.8h24.6v31.4a42.56,42.56,0,0,0,.3,5.35,18.57,18.57,0,0,0,1.55,5.15,12.77,12.77,0,0,0,3.45,4.66,18.09,18.09,0,0,0,6.2,3.1,32,32,0,0,0,9.45,1.25,31.38,31.38,0,0,0,9.4-1.25,16.88,16.88,0,0,0,6-3.05,12.58,12.58,0,0,0,3.25-4.66,18.75,18.75,0,0,0,1.45-5.15,52.46,52.46,0,0,0,.25-5.4v-31.4h24.6v16.8a223.71,223.71,0,0,1-.9,25.46,42.31,42.31,0,0,1-3.9,14.15,19.1,19.1,0,0,1-6,6.75,29.34,29.34,0,0,1-9.25,4.25,70.74,70.74,0,0,1-11.41,2.15A125.5,125.5,0,0,1,715.66,487Z"/>
    <path d="M855.59,487H823.78l-34.4-42.31V487H766.07V416.83h32.51l33.8,41.6v-41.6h23.21Z"/>
    <path d="M541.93,575.11H493.62v-70h48a87.14,87.14,0,0,1,12.1.75,43.64,43.64,0,0,1,10.7,3,26.39,26.39,0,0,1,9,6A27.81,27.81,0,0,1,579.29,525a45.56,45.56,0,0,1,2.25,15.1,38.53,38.53,0,0,1-2.4,14,28.05,28.05,0,0,1-6.3,10,33.77,33.77,0,0,1-9.21,6.41A42.61,42.61,0,0,1,553,574.11,60.56,60.56,0,0,1,541.93,575.11ZM540.33,556a19.12,19.12,0,0,0,9.4-2.15,13.45,13.45,0,0,0,5.7-5.65,17.23,17.23,0,0,0,1.8-8q0-7.2-4.05-11.55t-12.85-4.35h-23.4V556Z"/>
    <path d="M585.64,504.89h77.51V524.4H608.94v6.2h50.81v18.7H608.94v6.3h54.21v19.51H585.64Z"/>
    <path d="M681.26,504.89h51.61c1.33,0,2.6,0,3.8.1s2.88.29,5.05.65a35.5,35.5,0,0,1,5.9,1.5,28.14,28.14,0,0,1,5.65,2.9,20.33,20.33,0,0,1,5.05,4.61,22.19,22.19,0,0,1,3.4,6.75,29.65,29.65,0,0,1,1.35,9.3q0,16.6-12.9,23.7l14.4,20.71-26.9-.1-12-16.51H704.56v16.61h-23.3ZM730.67,538q8.7,0,8.7-6.6,0-6-9.1-6H704.56V538Z"/>
    <path d="M516.78,641.53h50.91v23.31H493.48V594.63h23.3Z"/>
    <path d="M639.21,594.83l31.5,70h-27L638.4,653H603.7l-5.3,11.8H571.59l31.41-70Zm-27.21,38h18.1l-9.1-18.4Z"/>
    <path d="M764.73,664.84H732.92l-34.4-42.31v42.31H675.21V594.63h32.51l33.8,41.6v-41.6h23.21Z"/>
    <path d="M819.54,664.84H771.23v-70h48a87.24,87.24,0,0,1,12.1.75,43.76,43.76,0,0,1,10.7,3,26.3,26.3,0,0,1,9,6,27.68,27.68,0,0,1,5.85,10.15,45.58,45.58,0,0,1,2.26,15.1,38.62,38.62,0,0,1-2.41,14,28.23,28.23,0,0,1-6.3,10,33.84,33.84,0,0,1-9.2,6.4,42.61,42.61,0,0,1-10.65,3.55A59.76,59.76,0,0,1,819.54,664.84Zm-1.6-19.1a19.26,19.26,0,0,0,9.4-2.15,13.53,13.53,0,0,0,5.7-5.66,17.23,17.23,0,0,0,1.8-8q0-7.2-4.05-11.55T817.94,614H794.53v31.71Z"/>
    <polygon points="782.67 522.59 825.72 522.59 785.14 562.6 796.98 575.09 838.09 534.96 838.09 575.09 855.59 575.09 855.59 505.09 782.67 505.09 782.67 522.59"/>
</svg>