<svg id="Layer_1" data-name="Layer 1" xmlns="http://www.w3.org/2000/svg" viewBox="0 0 1080 1080"><defs><style>.cls-1{fill:#0063e2;}.cls-2{fill:#fff;}</style></defs><path class="cls-1" d="M533.21,1052.52a17.36,17.36,0,0,1-17.36-17.36v-356A264.83,264.83,0,0,1,290.44,804.94,264.94,264.94,0,0,1,25.5,540a17.36,17.36,0,0,1,17.36-17.36H401.94A266.23,266.23,0,0,1,343.15,477,264.94,264.94,0,0,1,533.21,27.48a17.36,17.36,0,0,1,17.36,17.36V408.71a266.12,266.12,0,0,1,45.06-58.19A264.93,264.93,0,0,1,1045.73,540a17.36,17.36,0,0,1-17.36,17.36H664.46A265.51,265.51,0,0,1,798.15,787.58a264.94,264.94,0,0,1-264.94,264.94Z"/><path class="cls-2" d="M533.21,44.84v489h.1C536.57,400,646.1,292.42,780.79,292.42c136.73,0,247.58,110.85,247.58,247.58H540.77v.15c133.23,4,240,113.23,240,247.43,0,136.73-110.85,247.58-247.58,247.58V588.71C510.58,702.11,410.5,787.58,290.44,787.58,153.71,787.58,42.86,676.73,42.86,540H525.41v-.15c-133.11-4.12-239.78-113.3-239.78-247.43,0-136.73,110.85-247.58,247.58-247.58m0-34.72a282.2,282.2,0,0,0-202.51,479q8.25,8.49,17.09,16.2H42.86A34.72,34.72,0,0,0,8.14,540,282.2,282.2,0,0,0,470.52,757.4a283.85,283.85,0,0,0,28-26.6v304.36a34.73,34.73,0,0,0,34.72,34.72,282.19,282.19,0,0,0,202.42-479q-8.21-8.45-17-16.12h309.75A34.73,34.73,0,0,0,1063.09,540a282.2,282.2,0,0,0-479.6-201.89q-8.13,8-15.56,16.46V44.84a34.72,34.72,0,0,0-34.72-34.72Z"/></svg>