<svg width="1150" height="140" xmlns="http://www.w3.org/2000/svg" xmlns:svg="http://www.w3.org/2000/svg" xmlns:se="http://svg-edit.googlecode.com" data-name="Layer 1">
 <g class="layer">
  <title>Layer 1</title>
  <path d="m37.69,35.19l75.31,0l0,21.41l-52,0l0,6.8l40.7,0l0,20.6l-40.7,0l0,21.51l-23.3,0l-0.01,-70.32z" id="svg_1"/>
  <path d="m161,34.19a119.07,119.07 0 0 1 16.8,1.05a58.06,58.06 0 0 1 13.51,3.56a29.19,29.19 0 0 1 10.15,6.55a27.84,27.84 0 0 1 6.15,10.2a42.84,42.84 0 0 1 2.2,14.45a46.1,46.1 0 0 1 -1.95,14.2a28.46,28.46 0 0 1 -5.6,10.15a26.45,26.45 0 0 1 -9.6,6.71a54.22,54.22 0 0 1 -13.46,3.65a122.55,122.55 0 0 1 -17.5,1.1q-24.81,0 -36.06,-9t-11.24,-28.11q0,-17.61 11.51,-26.05t35.09,-8.46zm0.9,53.21q10.61,0 16.4,-4.3t5.81,-13.1q0,-8.5 -6.11,-13t-16.4,-4.45a35.16,35.16 0 0 0 -9.5,1.15a17.16,17.16 0 0 0 -6.75,3.45a14.24,14.24 0 0 0 -4,5.5a19.2,19.2 0 0 0 -1.3,7.3a15.86,15.86 0 0 0 5.5,12.65q5.57,4.81 16.36,4.8l-0.01,0z" id="svg_2"/>
  <path d="m259.73,105.51q-15.71,0 -26.21,-3.1t-14.52,-10.71a42.25,42.25 0 0 1 -3.9,-14.15a235.5,235.5 0 0 1 -1,-25.45l0.1,-16.81l24.61,0l0,31.41a42.67,42.67 0 0 0 0.3,5.35a18.24,18.24 0 0 0 1.55,5.15a12.65,12.65 0 0 0 3.45,4.65a17.65,17.65 0 0 0 6.2,3.1a31.55,31.55 0 0 0 9.45,1.25a31.11,31.11 0 0 0 9.4,-1.25a16.66,16.66 0 0 0 6,-3.05a12.51,12.51 0 0 0 3.25,-4.65a18.4,18.4 0 0 0 1.45,-5.15a49.77,49.77 0 0 0 0.25,-5.4l0,-31.41l24.61,0l0,16.81a228.35,228.35 0 0 1 -0.9,25.45a42.25,42.25 0 0 1 -3.9,14.15a19.31,19.31 0 0 1 -5.95,6.76a29.39,29.39 0 0 1 -9.26,4.25a71.93,71.93 0 0 1 -11.4,2.15a128.24,128.24 0 0 1 -13.58,0.65z" id="svg_3"/>
  <path d="m399.65,105.51l-31.8,0l-34.41,-42.31l0,42.31l-23.3,0l0,-70.22l32.5,0l33.81,41.61l0,-41.61l23.2,0l0,70.22z" id="svg_4"/>
  <path d="m454.37,105.51l-48.31,0l0,-70l48,0a87.24,87.24 0 0 1 12.1,0.75a43.76,43.76 0 0 1 10.7,3a26.32,26.32 0 0 1 9,6a27.68,27.68 0 0 1 5.85,10.15a45.6,45.6 0 0 1 2.29,15.09a38.53,38.53 0 0 1 -2.4,14a28.05,28.05 0 0 1 -6.3,10a33.87,33.87 0 0 1 -9.2,6.41a42.88,42.88 0 0 1 -10.65,3.55a59.84,59.84 0 0 1 -11.08,1.05zm-1.6,-19.11a19.15,19.15 0 0 0 9.4,-2.15a13.45,13.45 0 0 0 5.7,-5.65a17.23,17.23 0 0 0 1.8,-8q0,-7.2 -4,-11.55t-12.85,-4.35l-23.46,0l0,31.7l23.41,0z" id="svg_5"/>
  <path d="m498.07,35.29l77.52,0l0,19.51l-54.21,0l0,6.2l50.81,0l0,18.7l-50.81,0l0,6.3l54.21,0l0,19.51l-77.52,0l0,-70.22z" id="svg_6"/>
  <path d="m580.79,35.29l51.61,0c1.33,0 2.6,0 3.8,0.1s2.88,0.29 5,0.65a34.29,34.29 0 0 1 5.9,1.51a27.8,27.8 0 0 1 5.65,2.89a20.35,20.35 0 0 1 5.05,4.61a22.19,22.19 0 0 1 3.4,6.75a29.65,29.65 0 0 1 1.35,9.3q0,16.6 -12.9,23.7l14.4,20.71l-26.9,-0.1l-12,-16.51l-21.06,0l0,16.61l-23.3,0l0,-70.22zm49.41,33.11q8.7,0 8.7,-6.6q0,-6 -9.1,-6l-25.71,0l0,12.6l26.11,0z" id="svg_7"/>
  <path d="m777.77,82.2l50.91,0l0,23.31l-74.21,0l0,-70.22l23.3,0l0,46.91z" id="svg_8"/>
  <path d="m900.2,35.49l31.5,70l-27,0l-5.31,-11.81l-34.7,0l-5.3,11.81l-26.81,0l31.41,-70l36.21,0zm-27.2,38.01l18.1,0l-9.1,-18.4l-9,18.4z" id="svg_9"/>
  <path d="m1025.72,105.51l-31.81,0l-34.4,-42.31l0,42.31l-23.31,0l0,-70.22l32.51,0l33.8,41.61l0,-41.61l23.21,0l0,70.22z" id="svg_10"/>
  <path d="m1080.53,105.51l-48.31,0l0,-70l48,0a87.14,87.14 0 0 1 12.1,0.75a43.76,43.76 0 0 1 10.7,3a26.32,26.32 0 0 1 9,6a27.54,27.54 0 0 1 5.85,10.15a45.33,45.33 0 0 1 2.26,15.1a38.31,38.31 0 0 1 -2.41,14a28.05,28.05 0 0 1 -6.3,10a33.87,33.87 0 0 1 -9.2,6.41a42.61,42.61 0 0 1 -10.65,3.55a59.76,59.76 0 0 1 -11.04,1.04zm-1.6,-19.11a19.15,19.15 0 0 0 9.4,-2.15a13.45,13.45 0 0 0 5.7,-5.65a17.23,17.23 0 0 0 1.8,-8q0,-7.2 -4,-11.55t-12.85,-4.35l-23.41,0l0,31.7l23.36,0z" id="svg_11"/>
  <polygon id="svg_12" points="670.47998046875,52.989990234375 713.52001953125,52.989990234375 672.9500122070312,93 684.7899780273438,105.489990234375 725.9000244140625,65.3699951171875 725.9000244140625,105.489990234375 743.3900146484375,105.489990234375 743.3900146484375,35.489990234375 670.47998046875,35.489990234375 670.47998046875,52.989990234375 "/>
 </g>
</svg>