<svg id="Layer_1" data-name="Layer 1"
    xmlns="http://www.w3.org/2000/svg" viewBox="0 0 1354.82 1080">
    <path d="M668.94,460.35v21.41H617v6.83h40.67v20.56H617v21.5H593.73v-70.3Z"/>
    <path d="M593.73,619.65v-70h48c20.37,0,39.88,5.08,39.88,35,0,27.05-21.56,35-39.65,35Zm63.54-34.93c0-8.76-4.39-15.86-16.89-15.86H617v31.73h23.4C651.71,600.59,657.27,593.49,657.27,584.72Z"/>
    <path d="M761.1,596.4v23.25H686.93V549.4h23.25v47Z"/>
    <polygon points="688.18 477.85 731.23 477.85 690.65 517.86 702.49 530.35 743.6 490.22 743.6 530.35 761.1 530.35 761.1 460.35 688.18 460.35 688.18 477.85"/>
</svg>