<svg id="Layer_1" data-name="Layer 1" xmlns="http://www.w3.org/2000/svg" xmlns:xlink="http://www.w3.org/1999/xlink" viewBox="0 0 1080 1080"><defs><style>.cls-1{fill:none;}.cls-2{clip-path:url(#clip-path);}.cls-3{fill:#fff;}</style><clipPath id="clip-path"><rect class="cls-1" width="1080" height="1047.43"/></clipPath></defs><rect width="1080" height="1080"/><g class="cls-2"><path class="cls-3" d="M254.64,662.46h0ZM853.89,789.52c-49.53,0-87.08-34.3-111.6-101.93-13.85-38.18-24.32-86.32-34.45-132.88-3.09-14.19-6.82-31.38-10.91-48.8-4.1,17.42-7.84,34.61-10.92,48.8-10.14,46.56-20.6,94.7-34.44,132.88C627,755.22,589.49,789.52,540,789.52s-87.06-34.3-111.6-101.93c-13.82-38.18-24.3-86.32-34.44-132.88-3.08-14.18-6.8-31.36-10.9-48.78-4.09,17.42-7.83,34.6-10.91,48.78-10.14,46.56-20.6,94.7-34.44,132.88-24.52,67.63-62.06,101.93-111.6,101.93S139,755.22,114.48,687.57C100.64,649.39,90.18,601.25,80,554.69c-8.31-38.24-21.39-98.38-33.3-125.92H0V290.48H69.15c49.53,0,87.07,34.3,111.58,101.95,13.84,38.16,24.31,86.3,34.44,132.86,3.09,14.18,6.82,31.36,10.91,48.77,4.09-17.41,7.82-34.58,10.91-48.75,10.13-46.56,20.6-94.7,34.44-132.88C296,324.78,333.5,290.48,383,290.48s87.07,34.3,111.59,101.95c13.84,38.18,24.32,86.32,34.44,132.88,3.09,14.17,6.82,31.34,10.91,48.75,4.09-17.41,7.82-34.59,10.91-48.75,10.13-46.56,20.6-94.72,34.44-132.88,24.53-67.65,62.07-101.95,111.59-101.95s87.08,34.3,111.6,101.95c13.86,38.16,24.32,86.32,34.46,132.88,3.08,14.17,6.83,31.39,10.92,48.81,4.08-17.42,7.84-34.64,10.92-48.81,10.13-46.56,20.6-94.72,34.44-132.88,24.53-67.65,62.09-101.95,111.61-101.95H1080V428.77h-46.74c-11.91,27.54-25,87.7-33.32,125.94-10.13,46.56-20.6,94.7-34.45,132.88C941,755.22,903.41,789.52,853.89,789.52"/></g></svg>