<svg id="Layer_1" data-name="Layer 1" xmlns="http://www.w3.org/2000/svg" xmlns:xlink="http://www.w3.org/1999/xlink" viewBox="0 0 1080 1080"><defs><style>.cls-1{fill:none;}.cls-2{clip-path:url(#clip-path);}.cls-3{fill:#fff;}</style><clipPath id="clip-path"><rect class="cls-1" x="-6.9" width="1080" height="1080"/></clipPath></defs><rect x="-6.9" width="1080" height="1080"/><g class="cls-2"><path class="cls-3" d="M767.07,462.4V441.16c0-120.36-62.84-201.8-176.14-220.37V126.08H484.73v94.71C365.24,241.13,298,333.19,298,469.48V607.56c0,145.16,70.81,230.12,186.76,248.71V951h106.2V857.15c118.61-18.59,176.14-100.89,176.14-221.27V614.64H650.24v15.93c0,54.87-15.94,96.48-59.31,114.18V333.19c39.83,18.58,59.31,59.31,59.31,113.28V462.4Zm-352.26,154V460.63c0-57.51,23-107.09,69.92-128.33V745.64c-48.68-18.59-69.92-65.51-69.92-129.23"/></g></svg>