<svg id="Layer_1" data-name="Layer 1" xmlns="http://www.w3.org/2000/svg" xmlns:xlink="http://www.w3.org/1999/xlink" viewBox="0 0 1080 1080"><defs><style>.cls-1{fill:none;}.cls-2{clip-path:url(#clip-path);}.cls-3{fill:#fff;}</style><clipPath id="clip-path"><rect class="cls-1" width="1080" height="1080"/></clipPath></defs><rect width="1080" height="1080"/><g class="cls-2"><path class="cls-3" d="M265.29,403.74a137.2,137.2,0,1,0,137.2,137.2,137.21,137.21,0,0,0-137.2-137.2"/><path class="cls-3" d="M540.93,128a137.2,137.2,0,1,0,137.2,137.2A137.2,137.2,0,0,0,540.93,128"/><path class="cls-3" d="M539.08,677.54a137.2,137.2,0,1,0,137.2,137.2,137.21,137.21,0,0,0-137.2-137.2"/><path class="cls-3" d="M814.73,401.85a137.2,137.2,0,1,0,137.2,137.2,137.2,137.2,0,0,0-137.2-137.2"/></g></svg>