<svg id="Layer_1" data-name="Layer 1" xmlns="http://www.w3.org/2000/svg" xmlns:xlink="http://www.w3.org/1999/xlink" viewBox="0 0 1080 1080"><defs><style>.cls-1{fill:none;}.cls-2{clip-path:url(#clip-path);}.cls-3{fill:#fff;}</style><clipPath id="clip-path"><rect class="cls-1" width="1080" height="1079.72"/></clipPath></defs><rect width="1080" height="1079.72"/><g class="cls-2"><path class="cls-3" d="M727.08,464.28q0-19.54-13.52-33t-33-13.5a45.17,45.17,0,0,0-32.75,13.5,44.46,44.46,0,0,0-13.8,33q0,19,13.8,32.75t32.75,13.8a44.48,44.48,0,0,0,33-13.8,45.27,45.27,0,0,0,13.52-32.75M371.32,658Q400.06,712.58,442,741.3T540.29,770q55.73,0,98-28.72t71-83.34l-36.2-20.69Q628.23,720,540.29,720T407,637.27ZM446,464.28q0-19.54-13.5-33t-33-13.5a45.22,45.22,0,0,0-32.77,13.5,44.48,44.48,0,0,0-13.78,33q0,19,13.78,32.75t32.77,13.8a44.47,44.47,0,0,0,33-13.8A45.17,45.17,0,0,0,446,464.28m460.37,75.86q0,151.74-107.19,258.91T540.29,906.24q-151.74,0-259.21-107.19T173.61,540.14q0-152.29,107.47-259.49T540.29,173.46q151.73,0,258.91,107.19T906.39,540.14"/></g></svg>