<svg id="Layer_1" data-name="Layer 1" xmlns="http://www.w3.org/2000/svg" viewBox="0 0 1080 1080"><defs><style>.cls-1{fill:#fff;}</style></defs><rect y="0.74" width="1079.26" height="1079.26"/><polygon class="cls-1" points="540.91 523.13 422.73 107.48 659.09 107.48 540.91 523.13"/><polygon class="cls-1" points="528.35 527.28 150.86 316.93 318 149.79 528.35 527.28"/><polygon class="cls-1" points="522.4 539.09 106.75 657.28 106.75 420.91 522.4 539.09"/><polygon class="cls-1" points="526.55 551.65 316.2 929.14 149.06 762 526.55 551.65"/><polygon class="cls-1" points="538.36 557.6 656.55 973.25 420.18 973.25 538.36 557.6"/><polygon class="cls-1" points="550.92 553.45 928.41 763.8 761.27 930.95 550.92 553.45"/><polygon class="cls-1" points="556.87 541.64 972.52 423.46 972.52 659.82 556.87 541.64"/><polygon class="cls-1" points="552.72 529.08 763.07 151.59 930.2 318.73 552.72 529.08"/></svg>