<svg id="Layer_1" data-name="Layer 1" xmlns="http://www.w3.org/2000/svg" xmlns:xlink="http://www.w3.org/1999/xlink" viewBox="0 0 1080 1080"><defs><style>.cls-1{fill:none;}.cls-2{clip-path:url(#clip-path);}.cls-3{fill:#fff;}</style><clipPath id="clip-path"><rect class="cls-1" width="1080" height="1080"/></clipPath></defs><rect width="1080" height="1080"/><g class="cls-2"><path class="cls-3" d="M802,464.13V443c0-137.61-82-224.07-229.37-224.07-134.08,0-217.9,77.63-234.66,202.91H278v91.74h56.46v44.11H278v91.75h58.23c14.11,138.5,102.33,211.73,236.41,211.73C727,861.12,802,773.78,802,637V615.87H685.56v15.88c0,73.21-29.12,123.49-112.92,123.49-74.1,0-111.15-40.56-120-105.85h120V557.64H450.9V513.53H572.64V421.79H455.32c11.47-56.47,50.28-97,117.32-97,75.88,0,112.92,49.39,112.92,123.5v15.88Z"/></g></svg>