<svg id="Layer_1" data-name="Layer 1" xmlns="http://www.w3.org/2000/svg" xmlns:xlink="http://www.w3.org/1999/xlink" viewBox="0 0 1080 1080"><defs><style>.cls-1{fill:none;}.cls-2{clip-path:url(#clip-path);}.cls-3{fill:#fff;}</style><clipPath id="clip-path"><rect class="cls-1" width="1080" height="1080"/></clipPath></defs><rect width="1080" height="1080"/><rect width="1080" height="1080"/><g class="cls-2"><path class="cls-3" d="M417.64,747a207.22,207.22,0,1,1,0-414.44A208.33,208.33,0,0,1,465,338.07a280.83,280.83,0,0,1,75-52.68C435,235,305,253.25,218.06,340.2A282.41,282.41,0,0,0,525.7,800.71q7.26-3,14.3-6.41a283.69,283.69,0,0,1-74.95-52.74A206.68,206.68,0,0,1,417.64,747"/><path class="cls-3" d="M624.82,539.78A207,207,0,0,0,465,338.07c-.7.71-1.48,1.43-2.19,2.13a282.33,282.33,0,0,0,0,399.15c.78.79,1.49,1.49,2.27,2.2A207.07,207.07,0,0,0,624.82,539.78M862,340.2c-87-86.95-217-105.23-322-54.82a282,282,0,0,1,77.21,54.82c110.07,110.06,110.07,289.08,0,399.15A283.2,283.2,0,0,1,540,794.3,282.36,282.36,0,0,0,862,340.2"/></g></svg>