<svg id="Layer_1" data-name="Layer 1" xmlns="http://www.w3.org/2000/svg" xmlns:xlink="http://www.w3.org/1999/xlink" viewBox="0 0 1080 1080"><defs><style>.cls-1{fill:none;}.cls-2{clip-path:url(#clip-path);}.cls-3{fill:#fff;}</style><clipPath id="clip-path"><rect class="cls-1" width="1105" height="1104.71"/></clipPath></defs><rect width="1080" height="1078.34"/><g class="cls-2"><path class="cls-3" d="M552.5,236.18a314.16,314.16,0,0,0-223.57,92.6c-123.26,123.28-123.26,323.87,0,447.14a316.19,316.19,0,0,0,447.14,0c123.26-123.27,123.26-323.86,0-447.14a314.18,314.18,0,0,0-223.57-92.6m0,746.71c-115,0-223.13-44.79-304.44-126.11-167.87-167.87-167.87-441,0-608.85,81.31-81.32,189.43-126.12,304.44-126.12s223.12,44.8,304.44,126.12c167.86,167.86,167.86,441,0,608.85C775.62,938.1,667.5,982.89,552.5,982.89"/><path class="cls-3" d="M552.5,410.17A142.2,142.2,0,0,0,451.91,652.94c55.46,55.46,145.72,55.47,201.19,0A142.18,142.18,0,0,0,552.5,410.17m0,381.77A239.62,239.62,0,0,1,383,382.86c93.47-93.46,245.53-93.46,339,0A239.59,239.59,0,0,1,552.5,791.94"/><path class="cls-3" d="M552.52,529.76a22.59,22.59,0,1,0,16,6.61,22.54,22.54,0,0,0-16-6.61m0,106.65A84.06,84.06,0,1,1,612,611.81a83.79,83.79,0,0,1-59.45,24.6"/></g></svg>