<svg id="Layer_1" data-name="Layer 1" xmlns="http://www.w3.org/2000/svg" xmlns:xlink="http://www.w3.org/1999/xlink" viewBox="0 0 1080 1080"><defs><style>.cls-1{fill:none;}.cls-2{clip-path:url(#clip-path);}.cls-3{fill:#fff;}</style><clipPath id="clip-path"><rect class="cls-1" width="1080" height="1080"/></clipPath></defs><rect width="1080" height="1080"/><g class="cls-2"><path class="cls-3" d="M582.58,218.9q50.56,0,91.37,10.65a449.94,449.94,0,0,1,75.39,24.83l-39.91,99.34a609.82,609.82,0,0,0-62.09-19.5,215,215,0,0,0-58.56-8q-31,0-49.67,16.85-17.73,16-17.73,57.66v48.78H676.6V525.8H521.38v49.67H676.6v77.18H520.49q0,23.05-14.19,50.56t-50.57,45.24H767.07V861.09H312.93V753.76q42.57-15.06,60.32-41.68A107.6,107.6,0,0,0,391,652.65H313.82V575.47H391V525.8H313.82V449.52H391V399.85q0-65.66,24.84-104.67a141.61,141.61,0,0,1,68.3-57.66q43.47-18.63,98.46-18.62"/></g></svg>