<svg id="Layer_1" data-name="Layer 1" xmlns="http://www.w3.org/2000/svg" xmlns:xlink="http://www.w3.org/1999/xlink" viewBox="0 0 1080 1080"><defs><style>.cls-1{fill:none;}.cls-2{clip-path:url(#clip-path);}.cls-3{fill:#fff;}</style><clipPath id="clip-path"><rect class="cls-1" width="1080" height="1080"/></clipPath></defs><rect width="1080" height="1080"/><g class="cls-2"><path class="cls-3" d="M417.46,207.3a148.15,148.15,0,0,0-105-43.56c-81.92,0-148.56,66.65-148.56,148.57A148.52,148.52,0,0,0,312.45,460.87H461V312.31a148.12,148.12,0,0,0-43.56-105M97.68,527.08A303.72,303.72,0,0,1,312.45,8.59c167.48,0,303.73,136.23,303.74,303.72V616H312.45a301.78,301.78,0,0,1-214.77-89"/><path class="cls-3" d="M619,618.83V767.4a148.57,148.57,0,0,0,297.13,0c0-81.92-66.65-148.57-148.57-148.57ZM552.77,982.17a301.76,301.76,0,0,1-89-214.77V463.68l303.73,0c167.48,0,303.72,136.26,303.74,303.74h0A303.72,303.72,0,0,1,552.77,982.17"/></g></svg>