<svg id="Layer_1" data-name="Layer 1" xmlns="http://www.w3.org/2000/svg" xmlns:xlink="http://www.w3.org/1999/xlink" viewBox="0 0 1080 1080"><defs><style>.cls-1{fill:none;}.cls-2{clip-path:url(#clip-path);}.cls-3{fill:#fff;}</style><clipPath id="clip-path"><rect class="cls-1" width="1080" height="1080"/></clipPath></defs><rect width="1080" height="1080"/><g class="cls-2"><path class="cls-3" d="M666,556.69V542.56c0-103.67-49.48-167.28-126-167.28S416.31,438.89,416.31,542.56v14.13C416.31,660.35,463.43,724,540,724s126-63.61,126-167.27M18.15,554.34V526.06C18.15,203.29,218.42,3,543.54,3h25.91c295.67,0,492.39,197.9,492.39,492.4v87.17c0,164.91-67.13,261.51-202.61,261.51H790.92c-74.22,0-114.27-31.81-114.27-82.45V759.3H655.44c-20,50.66-60.07,91.89-146.07,91.89-148.43,0-239.14-129.58-239.14-292.14V540.21c0-164.93,88.36-292.15,227.36-292.15,87.17,0,122.51,36.51,147.25,77.76H666v-70.7H809.76v417c0,27.1,9.42,40.07,36.51,40.07H851c45.94,0,64.79-43.59,64.79-129.59V497.79c0-223.81-114.27-360.46-351-360.46H548.24c-238,0-384,136.65-384,393.45v18.84c0,256.81,148.43,395.8,402.88,395.8h245v134.3H557.67c-336.91,0-539.52-202.61-539.52-525.38"/></g></svg>