<svg id="Layer_1" data-name="Layer 1" xmlns="http://www.w3.org/2000/svg" viewBox="0 0 1080 1080"><defs><style>.cls-1{fill:#fff;}</style></defs><rect width="1080" height="1080"/><path class="cls-1" d="M485,594.87l-4.54,88.74,59.56-66,59.52,66L595,594.87l88.75,4.53-66-59.54,66-59.54L595,484.85l4.53-88.74L540,462.06l-59.56-65.95L485,484.85l-88.73-4.53,65.94,59.54-66,59.54ZM728.91,996,540,786.69,351.08,996,365.46,714.4,83.92,728.78,293.16,539.86,83.9,350.94l281.56,14.38L351.08,83.77,540,293,728.91,83.77,714.53,365.32l281.55-14.38L786.82,539.86,996.08,728.78,714.53,714.4Z"/></svg>