<svg width="80" height="80" viewBox="0 0 80 80" fill="none" xmlns="http://www.w3.org/2000/svg">
<g clip-path="url(#clip0_549:492)">
<path d="M3.49691e-06 80L0 0L80 -3.49691e-06L80 80L3.49691e-06 80Z" fill="#0063E2"/>
<path d="M29.9065 19.6513C29.9065 17.6412 30.5025 15.6763 31.6193 14.005C32.736 12.3337 34.3232 11.0311 36.1803 10.2619C38.0373 9.49268 40.0807 9.29142 42.0522 9.68356C44.0236 10.0757 45.8344 11.0436 47.2558 12.4649C48.6771 13.8863 49.645 15.6971 50.0371 17.6686C50.4293 19.64 50.228 21.6834 49.4588 23.5404C48.6896 25.3975 47.387 26.9847 45.7157 28.1014C44.0444 29.2182 42.0795 29.8142 40.0695 29.8142C37.3741 29.814 34.7893 28.7432 32.8834 26.8373C30.9775 24.9315 29.9067 22.3466 29.9065 19.6513" fill="white"/>
<path d="M9.48151 40.0692C9.48151 38.0592 10.0776 36.0943 11.1943 34.423C12.311 32.7517 13.8982 31.4491 15.7553 30.6799C17.6123 29.9107 19.6557 29.7094 21.6271 30.1015C23.5986 30.4937 25.4094 31.4616 26.8307 32.8829C28.2521 34.3042 29.22 36.1151 29.6121 38.0865C30.0043 40.0579 29.803 42.1014 29.0338 43.9584C28.2646 45.8154 26.962 47.4027 25.2907 48.5194C23.6194 49.6361 21.6545 50.2321 19.6445 50.2321C16.9491 50.2321 14.3641 49.1614 12.4582 47.2555C10.5522 45.3496 9.48151 42.7646 9.48151 40.0692Z" fill="white"/>
<path d="M50.1881 39.932C50.1881 37.922 50.7841 35.9571 51.9008 34.2858C53.0176 32.6145 54.6048 31.3119 56.4618 30.5427C58.3189 29.7734 60.3623 29.5722 62.3337 29.9643C64.3052 30.3565 66.116 31.3244 67.5374 32.7457C68.9587 34.167 69.9266 35.9779 70.3187 37.9493C70.7109 39.9207 70.5096 41.9642 69.7404 43.8212C68.9712 45.6783 67.6686 47.2655 65.9973 48.3822C64.326 49.4989 62.3611 50.095 60.351 50.095C57.6557 50.0948 55.0708 49.024 53.165 47.1181C51.2591 45.2122 50.1883 42.6273 50.1881 39.932" fill="white"/>
<path d="M29.7666 60.3505C29.7666 58.3404 30.3627 56.3755 31.4794 54.7042C32.5961 53.0329 34.1833 51.7303 36.0404 50.9611C37.8974 50.1919 39.9409 49.9906 41.9123 50.3828C43.8837 50.7749 45.6946 51.7429 47.1159 53.1642C48.5372 54.5855 49.5051 56.3964 49.8973 58.3678C50.2894 60.3392 50.0882 62.3826 49.319 64.2397C48.5497 66.0967 47.2471 67.684 45.5758 68.8007C43.9045 69.9174 41.9396 70.5135 39.9296 70.5135C37.2342 70.5135 34.6492 69.4427 32.7433 67.5368C30.8373 65.6309 29.7666 63.0459 29.7666 60.3505" fill="white"/>
</g>
<rect x="0.5" y="0.5" width="79" height="79" transform="matrix(4.37114e-08 1 1 -4.37114e-08 2.18557e-08 -2.18557e-08)" stroke="black"/>
<defs>
<clipPath id="clip0_549:492">
</clipPath>
</defs>
</svg>
