<svg width="74" height="74" viewBox="0 0 74 74" fill="none" xmlns="http://www.w3.org/2000/svg">
<g clip-path="url(#clip0_549:640)">
<path d="M3.23464e-06 74L0 0L74 -3.23464e-06L74 74L3.23464e-06 74Z" fill="#F6331C"/>
<path d="M27.8931 18.4007C27.8931 16.5415 28.4444 14.7239 29.4774 13.178C30.5103 11.632 31.9785 10.4271 33.6963 9.71559C35.4141 9.00407 37.3042 8.81791 39.1278 9.18064C40.9514 9.54337 42.6264 10.4387 43.9411 11.7534C45.2559 13.0681 46.1512 14.7432 46.5139 16.5668C46.8766 18.3903 46.6905 20.2805 45.979 21.9983C45.2674 23.716 44.0625 25.1842 42.5166 26.2172C40.9706 27.2501 39.1531 27.8015 37.2938 27.8015C34.8006 27.8013 32.4096 26.8108 30.6467 25.0479C28.8837 23.2849 27.8932 20.8939 27.8931 18.4007" fill="white"/>
<path d="M9 37.287C9 35.4277 9.55134 33.6101 10.5843 32.0642C11.6173 30.5183 13.0855 29.3133 14.8032 28.6018C16.521 27.8903 18.4112 27.7041 20.2347 28.0669C22.0583 28.4296 23.7333 29.3249 25.048 30.6396C26.3628 31.9544 27.2581 33.6294 27.6208 35.453C27.9835 37.2765 27.7974 39.1667 27.0859 40.8845C26.3743 42.6022 25.1694 44.0704 23.6235 45.1034C22.0775 46.1363 20.26 46.6877 18.4007 46.6877C15.9075 46.6877 13.5164 45.6973 11.7534 43.9343C9.99043 42.1713 9 39.7802 9 37.287Z" fill="white"/>
<path d="M46.6536 37.1605C46.6536 35.3012 47.2049 33.4837 48.2379 31.9377C49.2709 30.3918 50.7391 29.1869 52.4568 28.4754C54.1746 27.7638 56.0648 27.5777 57.8883 27.9404C59.7119 28.3031 61.387 29.1985 62.7017 30.5132C64.0164 31.8279 64.9117 33.503 65.2744 35.3265C65.6372 37.1501 65.451 39.0403 64.7395 40.758C64.028 42.4758 62.8231 43.944 61.2771 44.9769C59.7312 46.0099 57.9136 46.5613 56.0543 46.5613C53.5612 46.5611 51.1702 45.5706 49.4072 43.8076C47.6443 42.0447 46.6538 39.6537 46.6536 37.1605" fill="white"/>
<path d="M27.7637 56.0477C27.7637 54.1884 28.315 52.3709 29.348 50.8249C30.381 49.279 31.8492 48.0741 33.5669 47.3626C35.2847 46.651 37.1749 46.4649 38.9985 46.8276C40.822 47.1903 42.4971 48.0857 43.8118 49.4004C45.1265 50.7151 46.0219 52.3902 46.3846 54.2137C46.7473 56.0373 46.5611 57.9275 45.8496 59.6452C45.1381 61.363 43.9332 62.8312 42.3872 63.8642C40.8413 64.8971 39.0238 65.4485 37.1645 65.4485C34.6712 65.4485 32.2801 64.4581 30.5171 62.6951C28.7541 60.9321 27.7637 58.541 27.7637 56.0477" fill="white"/>
</g>
<rect x="0.5" y="0.5" width="73" height="73" transform="matrix(4.37114e-08 1 1 -4.37114e-08 2.18557e-08 -2.18557e-08)" stroke="black"/>
<defs>
<clipPath id="clip0_549:640">
</clipPath>
</defs>
</svg>
